<mxfile host="app.diagrams.net" modified="2024-01-23T13:04:57.505Z" agent="Mozilla/5.0 (Windows NT 10.0; Win64; x64) AppleWebKit/537.36 (KHTML, like Gecko) Chrome/120.0.0.0 Safari/537.36" etag="EBBS3t7zcbgox-yzj3A9" version="22.1.21" type="github">
  <diagram name="第 1 页" id="xWkmQZNCc28ZKoSvsg0Z">
    <mxGraphModel dx="1434" dy="738" grid="1" gridSize="10" guides="1" tooltips="1" connect="1" arrows="1" fold="1" page="1" pageScale="1" pageWidth="827" pageHeight="1169" math="0" shadow="0">
      <root>
        <mxCell id="0" />
        <mxCell id="1" parent="0" />
        <mxCell id="79cBRET2oQ-xiVpWBCgC-1" value="" style="shape=image;verticalLabelPosition=bottom;labelBackgroundColor=default;verticalAlign=top;aspect=fixed;imageAspect=0;image=data:image/png,iVBORw0KGgoAAAANSUhEUgAABYkAAAWhCAYAAADQtB93AAAAAXNSR0IArs4c6QAAAARnQU1BAACxjwv8YQUAAP+6SURBVHhe7N0HlFXV2QbgjyZg772X2HuNSYyIiVEhxSj+xhp7V0QQaUZAQIqo2KNgjC22BBVNogY19t5r7L13Qp/ffc++cZgZEHSAmbnPs9ZZnvfOiRlm5l6c9+7z7WZVVVUXR8RKXx8AAAAAAFSW11JJPPbrk22LDAAAAABABbm9eT4BAAAAAKACKYkBAAAAACqYkhgAAAAAoIIpiQEAAAAAKpiSGAAAAACggimJAQAAAAAqmJIYAAAAAKCCKYkBAAAAACqYkhgAAAAAoIIpiQEAAAAAKpiSGAAAAACggimJAQAAAAAqmJIYAAAAAKCCKYkBAAAAACqYkhgAAAAAoIIpiQEAAAAAKpiSGAAAAACggimJAQAAAAAqmJIYAAAAAKCCKYkBAAAAACqYkhgAAAAAoIIpiQEAAAAAKpiSGAAAAACggimJAQAAAAAqmJIYAAAAAKCCKYkBAAAAACqYkhgAAAAAoIIpiQEAAAAAKpiSGAAAAACggimJAQAAAAAqmJIYAAAAAKCCKYkBAAAAACqYkhgAAAAAoIIpiQEAAAAAKpiSGAAAAACggimJAQAAAAAqmJIYAAAAAKCCKYkBAAAAACqYkhgAAAAAoIIpiQEAAAAAKpiSGAAAAACggimJAQAAAAAqmJIYAAAAAKCCKYkBAAAAACqYkhgAAAAAoIIpiQEAAAAAKpiSGAAAAACggimJAQAAAAAqmJIYAAAAAKCCKYkBAAAAACqYkhgAAAAAoIIpiQEAAAAAKpiSGAAAAACggimJAQAAAAAqmJIYAAAAAKCCKYkBAAAAACqYkhgAAAAAoIIpiQEAAAAAKpiSGAAAAACggimJAQAAAAAqmJIYAAAAAKCCKYkBAAAAACqYkhgAAAAAoIIpiQEAAAAAKpiSGAAAAACggimJAQAAAAAqmJIYAAAAAKCCKYkBAAAAACqYkhgAAAAAoIIpiQEAAAAAKpiSGAAAAACggimJAQAAAAAqmJIYAAAAAKCCKYkBAAAAACqYkhgAAAAAoIIpiQEAAAAAKpiSGAAAAACggimJAQAAAAAqmJIYAAAAAKCCKYkBAAAAACqYkhgAAAAAoIIpiQEAAAAAKpiSGAAAAACggimJAQAAAAAqmJIYAAAAAKCCKYkBAAAAACqYkhgAAAAAoIIpiQEAAAAAKpiSGAAAAACggimJAQAAAAAqmJIYAAAAAKCCKYkBAAAAACqYkhgAAAAAoIIpiQEAAAAAKpiSGAAAAACggimJAQAAAAAqmJIYAAAAAKCCKYkBAAAAACqYkhgAAAAAoIIpiQEAAAAAKpiSGAAAAACggimJAQAAAAAqmJIYAAAAAKCCKYkBAAAAACqYkhgAAAAAoIIpiQEAAAAAKpiSGAAAAACggimJAQAAAAAqmJIYAAAAAKCCKYkBAAAAACqYkhgAAAAAoIIpiQEAAAAAKpiSGAAAAACggimJAQAAAAAqmJIYAAAAAKCCKYkBAAAAACqYkhgAAAAAoIIpiQEAAAAAKpiSGAAAAACggimJAQAAAAAqmJIYAAAAAKCCKYkBAAAAACqYkhgAAAAAoIIpiQEAAAAAKpiSGAAAAACggimJAQAAAAAqmJIYAAAAAKCCKYkBAAAAACqYkhgAAAAAoIIpiQEAAAAAKpiSGAAAAACggimJAQAAAAAqmJIYAAAAAKCCKYkBAAAAACqYkhgAAAAAoIIpiQEAAAAAKpiSGAAAAACggimJAQAAAAAqmJIYAAAAAKCCKYkBAAAAACqYkhgAAAAAoIIpiQEAAAAAKpiSGAAAAACggimJAQAAAAAqmJIYAAAAAKCCKYkBAAAAACqYkhgAAAAAoIIpiQEAAAAAKpiSGAAAAACggimJAQAAAAAqmJIYAAAAAKCCKYkBAAAAACqYkhgAAAAAoIIpiQEAAAAAKpiSGAAAAACggimJAQAAAAAqmJIYAAAAAKCCKYkBAAAAACqYkhgAAAAAoIIpiQEAAAAAKpiSGAAAAACggimJAQAAAAAqmJIYAAAAAKCCKYkBAAAAACqYkhgAAAAAoIIpiQEAAAAAKpiSGAAAAACggimJAQAAAAAqmJIYAAAAAKCCKYkBAAAAACqYkhgAAAAAoIIpiQEAAAAAKpiSGAAAAACggimJAQAAAAAqmJIYAAAAAKCCKYkBAAAAACqYkhgAAAAAoIIpiQEAAAAAKpiSGAAAAACggimJAQAAAAAqmJIYAAAAAKCCKYkBAAAAACqYkhgAAAAAoIIpiQEAAAAAKpiSGAAAAACggimJAQAAAAAqmJIYAAAAAKCCKYkBAAAAACqYkhgAAAAAoIIpiQEAAAAAKpiSGAAAAACggimJAQAAAAAqmJIYAAAAAKCCKYkBAAAAACqYkhgAAAAAoIIpiQEAAAAAKpiSGAAAAACggimJAQAAAAAqmJIYAAAAAKCCKYkBAAAAACqYkhgAAAAAoIIpiQEAAAAAKpiSGAAAAACggimJAQAAAAAqmJIYAAAAAKCCKYkBAAAAACqYkhgAAAAAoIIpiQEAAAAAKpiSGAAAAACggimJAQAAAAAqmJIYAAAAAKCCKYkBAAAAACqYkhgAAAAAoIIpiQEAAAAAKpiSGAAAAACggimJAQAAAAAqmJIYAAAAAKCCKYkBAAAAACqYkhgAAAAAoIIpiQEAAAAAKpiSGAAAAACggimJAQAAAAAqWLOqqqqxX/9z2yICAMCMXXPNNTFw4MBYYoklYv/998+PTmvNNdeMDTfcMKeIJ598Mp599tmcattqq61ixRVXzCnizjvvjHfffTen2nbcccdYYIEFcoq4/vrrY/z48TlNq0WLFvHb3/42pyhdl66fnsUXXzy22267nCLeeeed+Pe//51TbauvvnpssskmOUU888wz8dRTT+VU2+abbx6rrLJKThH33HNPvPnmmznV9vOf/zwWXnjhnCLGjBkTX331VU61derUKZ9FTJo0Kf7617/mVFv696Z/f9n7778ft99+e061pc87ff5lL7zwQjz22GM51Za+LunrU3b//ffHa6+9llNt6euevv5lf//73+Pzzz/Pqbb0fU3f32Tq1Kmln83pST8v6eem7KOPPorbbrstp9rSz2P6uSx76aWX4uGHH86ptvTznn7uyx566KF4+eWXc6rtpz/9aSy11FI5Rdxyyy3xySef5FTbr3/965hnnnlyirj66qvj69/lcprWfPPNFzvvvHNOEZ9++mn885//zKm25ZZbLn70ox/lFPHKK6/Egw8+mFNt6623Xqyzzjo5RTz66KPx4osv5lTbj3/841h22WVzivjXv/4VH374YU61dezYMdq2bZtTxHXXXReTJ0/OaVpt2rSJX/7ylzlFfPHFF3HzzTfnVNvSSy8d22yzTU4Rr7/+etx333051bb22mvH+uuvn1PEE088Ec8991xOtW299dax/PLL5xRxxx13xHvvvZdTbTvttFPMP//8OUX87W9/i4kTJ+Y0rVatWsVvfvObnCLGjRsXN954Y061pdfodu3a5RTx1ltvxd13351TbT/4wQ9io402yini6aefLh3Ts+WWW8ZKK62UU8Rdd90Vb7/9duk1Nv28TZkypfT6kn4ekx122CEWWmih0nlyww03xH//+9+cptWsWbPYbbfdcoqYMGFCjB49OqfaFl100dh+++1zitLXPH3tp2e11VaLTTfdNKcofU/T93Z60rXpf1N27733xhtvvJFTbelzSZ9T2U033RRffvllTrWlP2v6Myfp63bttdeWzuuSvobpa1mWnkvpOTU9K6+8cmyxxRY5Rem5mp6z05N+BtLPQtkDDzwQr776ak61tW/fPhZbbLGcgEbs9vQfFmO/PgAA4Ft9/ctiaqW+9Tj++OPz/6LQo0ePOq8rH5dddlm+srDjjjvWeV35ePbZZ/OVhaWXXrrO69LRpk2bfFXh7bffrvO68rH11lvnKwtjxoyp87ryccQRR+QrC/369avzuvJx4YUX5isLu+yyS53XlY9HHnkkX1lYZZVV6ryufFT3ySef1HlN+dh4443zlYV//etfdV5XPvbff/98ZWHo0KF1Xlc+RowYka8s7LnnnnVeVz7uvvvufGVhnXXWqfO68jFu3Lh8ZVXV+PHj67ymfKy11lr5ysK9995b53XlY4899shXFs4+++w6rysfgwcPzlcWDjzwwDqvKx+33nprvrKw6aab1nld+fjoo4/ylYVmzZrVeV06VlpppXxV4bHHHqvzuvLx61//Ol9ZGDlyZJ3XlY++ffvmKwtHHXVUndeVjxtuuCFfWfjRj35U53Xl480338xXFuadd946r0vHkksuma8qPP/883VeVz522GGHfGXhiiuuqPO68nHiiSfmKwvdunWr87rycdVVV+UrC9tvv32d15WPF198MV9ZWGyxxeq8Lh0LLLBAvqrw+uuv13ld+dhmm23ylYW//e1vdV5XPo499th8ZeGkk06q87ry8ac//SlfWejYsWOd15WPJ554Il9ZWH755eu8Lh0tW7bMVxU++OCDOq8rH5tvvnm+svCPf/yjzuvKxyGHHJKvLAwaNKjO68rHeeedl68sdOrUqc7rykf6u7K6NdZYo87rysekSZPylVVVX375ZZ3XlI/11lsvX1m4884767yufOyzzz75ysIZZ5xR53XlY/jw4fnKwr777lvndeXjjjvuyFcCjdxY4yYAAJhpPXv2zGcAAEBToSQGAGCmpNuIx45Nk8oAAICmxExiAABmytFHHx0jRozI6RtLLrlkaU5umpdZlh5bZpllcorSfOEZzeVMcy2rz91NM1FnNIt2rbXWitatW+dUzAFO83fr0rx582lmiqbZpjOas5nmZ1afo5s+j/T5TE+aoZtmupalP+eM5imvsMIK08yqTLMeP/vss5xqS7Mhq89nTbOdpzezNKk+CzrNtpzRfOT0760+ezLNzEyzd6cnfd7p8y/74IMPSm8eTE/6ulSfMZzmv85o7m76upfnlybPP//8dGdNJxtssMH/5nh+/XvNDGeKptm11WcGp3muM5qju8gii0wzJzvNMJ7R7Og0czfNgC1L16b/zfSk+abVZ9GmzyV9TtOT5gCX5y8n6c+a/sx1SbOL0yzdsjT3Nc2Pnp404zTNLS37+OOPZzhvNc31rT5POc26ndGM4TTLesEFF8ypmO88o/msad5x9deTNNM8zZyuS8uWLWPdddfNqZhdO6OZwenzqD4TPM1rntGc7PTnTH/esjSjPM3unp70daw+dzfNpU5zkqcnfZ+qz5pOr03Tm7+cvv/p56Asveal177pST9f1efofttrWfr5rT47+ttet9PzIz1PysqvZWluefXX4zS/N73WpOdfeh6Wzei1LD2v0/O77Ntet+edd95YY401cipmU89oJniaoVt9dnT6nqbv7fSka6vP3U0/M+lnZ3rS55I+p7L0M5l+Nqen+ut2+llPP/PTU/N1O82o/89//pNTbTVft9NzNT1np6fma1l6LUivCdNT888KNFq3K4kBAPhWqQxM5cf0Sqzhw4fHsccemxMAlSoVwdUL0VRiKhEBGrzbjZsAAOBbDRkyZIarHNMK47RqFQAAaHyUxAAAzFC6pfb888/PqW7ptt6RI0fmBAAANCZKYgAAZiiNkpjRfOCyM844I58BAACNiZIYAIDpSptLnXXWWTnNWNpU6IorrsgJAABoLJTEAABMV5o1XH1X85qbD6200kr5rJBWHQMAAI2LkhgAgDr997//rTVCYuedd85nhdVXXz2fFR588MG4/vrrcwIAABoDJTEAAHVKm9W99957OUXMP//8seOOO+ZUWGihhWL33XfPqWA1MQAANC5KYgAAapk4cWIMGzYsp8KRRx4ZCyywQE7fOPbYY/NZ4fbbb4/bbrstJwAAoKFTEgMAUMvIkSPjzTffzCmiTZs2tcrgsq222io6dOiQU+GUU07JZwAAQEOnJAYAYBpTpkyJIUOG5FQ49NBDY6mllsqptpoF8tixY+OJJ57ICQAAaMiUxAAATOPPf/5zvPzyyzlFtGrVKo477ric6ta+ffto165dToWePXvmMwAAoCFTEgMA8D9VVVUxePDgnAr7779/rLDCCjlNX48ePfJZ4aabbooXX3wxJwAAoKFSEgMA8D9XXXVVPPvsszlFtGjRIrp27ZrTjG2//fax3nrr5RQxderU6NOnT04AAEBDpSQGAOB/Bg0alM8Ke+21V6y22mo5fbv+/fvns8K1114bb7zxRk4AAEBDpCQGAKBk9OjR8dhjj+UU0axZs+jWrVtOM6djx47TlMqTJk2Kk08+OScAAKAhUhIDAFBScxVxp06dYp111slp5jRv3jz69u2bU+Hyyy+P999/PycAAKChURIDABD/+Mc/4r777supcMIJJ+SzWbPbbrvFcsstl1PEf//73zjllFNyAgAAGholMQAAtVYR//KXv4yNN944p1nTqlWrOOmkk3IqjBo1Kj777LOcAACAhkRJDABQ4e688864/fbbcyp07949n303e+65Zyy++OI5RXzxxRdx6qmn5gQAADQkSmIAgArXv3//fFb4+c9/Hj/84Q9z+m7mnXfe6NmzZ06FCy64IMaNG5cTAADQUCiJAQAq2MMPPxy33HJLToVevXrls+/n97//fSy44II5RXz00UcxfPjwnAAAgIZCSQwAUMFOPvnkfFb4yU9+Ujrqw0ILLRTdunXLqXDOOefExIkTcwIAABoCJTEAQIV6+umn48Ybb8ypUF+riMsOPvjgaNu2bU4Rb7/9dqkoBgAAGg4lMQBAherbt29UVVXlFLHJJpuU5hHXpyWWWCKOOeaYnAojRoyIKVOm5AQAAMxtSmIAgAr04osvxrXXXptT4aSTTspn9euII46IVq1a5RTx8ssvx8iRI3MCAADmNiUxAEAF6t+//zSredddd93o2LFjTvVr+eWXj0MPPTSnwhlnnDHNKmYAAGDuURIDAFSY119/Pa644oqcCr17945mzZrlVP+OPvroaN78m//0TPOQa34OAADA3KEkBgCoMAMGDIhJkyblFLH66qvHrrvumtPskf4/9ttvv5wKp59+ej4DAADmJiUxAEAFeeedd+Liiy/OqdCrV69o0aJFTrPPsccem88KDz74YFx//fU5AQAAc4uSGACggpx66qkxYcKEnCJWXHHF+N3vfpfT7LX++uvH7rvvnlNh+PDh+QwAAJhblMQAABXiww8/jAsvvDCnQo8ePaJVq1Y5zX6dO3fOZ4Xbb789brvttpwAAIC5QUkMAFAhhg4dGl999VVOEUsvvXTsu+++Oc0ZW265ZXTo0CGnwimnnJLPAACAuUFJDABQAT777LM477zzciqccMIJ0aZNm5zmnJqriceOHRuPP/54TgAAwJymJAYAqACnn356qSguW2yxxeKggw7Kac7abrvtol27djkV0uZ5AADA3KEkBgBo4tKIiREjRuRUOP7442O++ebLac5Ls5Cru+mmm+LFF1/MCQAAmJOUxAAATdxZZ50VH330UU4RCy20UBx22GE5zR3bb799rL/++jlFTJ06Nfr06ZMTAAAwJymJAQCasPHjx5dGTVR37LHHloriua1fv375rHDttdfGG2+8kRMAADCnKIkBAJqw888/P959992cojRi4qijjspp7urYsWOsvvrqOUVMmjQpTj755JwAAIA5RUkMANBEpdL1tNNOy6lwxBFHlDatawiaN29eqxS+7LLL4v33388JAACYE5TEAABN1KhRo+L111/PKaJNmzbRuXPnnBqG3XbbLZZffvmcivEYp5xySk4AAMCcoCQGAGiCpkyZEkOGDMmpcPDBB8fSSy+dU8PQqlWrWhvWpXL7008/zQkAAJjdlMQAAE1QGtvwn//8J6eijO3SpUtODctee+0VSyyxRE4RX3zxRQwePDgnAABgdlMSAwA0MVVVVXHqqafmVNhvv/1ixRVXzKlhadu2bfTo0SOnwgUXXBDjxo3LCQAAmJ2UxAAATcw111wTzzzzTE4RLVq0iG7duuXUMO2///6x4IIL5hTx0UcfxfDhw3MCAABmJyUxAEATM2jQoHxW+N3vfherr756Tg1TKohrFtnnnHNOTJw4MScAAGB2URIDADQhN9xwQzzyyCM5RTRr1ixOOOGEnBq2Qw45pDR6ouztt98uFcUAAMDspSQGAGhCBg4cmM8Ku+66a6y77ro5NWyLL754HHvssTkVRowYEVOmTMkJAACYHZTEAABNxC233BL33ntvToXu3bvns8bhiCOOiFatWuUU8fLLL8fIkSNzAgAAZgclMQBAE9G/f/98VujQoUNssskmOTUOyy23XBx66KE5FU4//fSoqqrKCQAAqG9KYgCAJiCtIL7zzjtzKpx44on5rHE5+uijo3nzb/4z9ZlnnokrrrgiJwAAoL4piQEAmoCTTz45nxW233772HrrrXNqXFZfffXYb7/9cioMHz48nwEAAPVNSQwA0Mg9+uij8Y9//COnQq9evfJZ41RzA7uHHnoorr/++pwAAID6pCQGAGjkaq4i3mqrreKnP/1pTo3T+uuvH7vvvntOhdNOOy2fAQAA9UlJDADQiKV5vTVX2J500kn5rHHr3LlzPivccccdcdttt+UEAADUFyUxAEAj1q9fv6iqqsopYuONN45f/OIXOTVuW265ZXTo0CGnwimnnJLPAACA+qIkBgBopF566aW4+uqrcyr06dMnnzUNNVcTjx07Nh5//PGcAACA+qAkBgBopPr37x9TpkzJKWLttdeOX/3qVzk1Ddttt120a9cup0Jj35QPAAAaGiUxAEAj9MYbb8Rll12WUyGtIm7WrFlOTUePHj3yWeGmm26KF154IScAAOD7UhIDADRCAwYMiEmTJuUUsdpqq8Vuu+2WU9Oy/fbbx/rrr59TxNSpU5vcWA0AAJiblMQAAI3Mu+++GxdffHFOhZ49e0aLFi1yanrSBn3VXXvttfH666/nBAAAfB9KYgCARmbw4MExfvz4nCJWWGGF2GuvvXJqmjp27Birr756ThGTJ0+Ovn375gQAAHwfSmIAgEbko48+igsuuCCnwoknnhitWrXKqWlq3rx5nHzyyTkV0kzm999/PycAAOC7UhIDADQiw4YNi6+++iqniKWWWip+//vf59S0pZnLyy+/fE5RWk19yimn5AQAAHxXSmIAgEbi888/j3POOSenwgknnBBt2rTJqWlLq6Vrblg3atSo+PTTT3MCAAC+CyUxAEAjcfrpp8dnn32WU8Siiy4aBx10UE6VIc1eXmKJJXKK+OKLL0ozmgEAgO9OSQwA0AikERMjRozIqdClS5eYf/75c6oMbdu2jR49euRUSDOaq4/gAAAAZo2SGACgEUhjJj788MOcIhZccME4/PDDc6os+++/fyy00EI5FZv5pVXWAADAd6MkBgBo4CZMmBDDhw/PqXDMMcfEwgsvnFNlSQV5165dcyqcffbZMXHixJwAAIBZoSQGAGjg0jiFd955J6eIeeedN44++uicKtMhhxxS+jqUpa9PzU39AACAmaMkBgBowCZNmhTDhg3LqZDGTCy++OI5Vab050+rqas788wzY8qUKTkBAAAzS0kMANCA/elPf4rXXnstp4jWrVvHcccdl1NlO+KII2KeeebJKeKVV16JkSNH5gQAAMwsJTEAQAOVVsUOHjw4p8JBBx0UyyyzTE6VbbnlliuNnagubWBXVVWVEwAAMDOUxAAADdQVV1wRL774Yk4RLVu2jOOPPz4nkjRyokWLFjlFPPPMM6WvGwAAMPOUxAAADVBaDXvqqafmVNhvv/1ipZVWyolktdVWi3333TenwvDhw/MZAAAwM5TEAAAN0LXXXhtPPfVUTl//R1vz5tGtW7ecqK5z5875rPDQQw/F6NGjcwIAAL6NkhgAoAEaNGhQPivssccescYaa+REdeutt17svvvuORWsJgYAgJmnJAYAaGDGjBkTDz/8cE4RzZo1i+7du+dEXY477rh8VrjjjjvitttuywkAAJgRJTEAQAMzcODAfFbYZZddSqtlmb4tttgiOnTokFPhlFNOyWcAAMCMKIkBABqQtPr17rvvzqlgFfHMqbmaeOzYsfHYY4/lBAAATI+SGACgAenfv38+K+y8886x2Wab5cSMtGvXrnRU17t373wGAABMj5IYAKCBuO++++L222/PqWAV8azp0aNHPivcdNNN8fzzz+cEAADURUkMANBA9O3bN58Vtttuu/jxj3+cEzNj++23jw022CCniKlTp8ZJJ52UEwAAUBclMQBAA5Bm59588805FXr16pXPmBU1y/Zrr702Xn/99ZwAAICalMQAAA1AzWJzyy23rDVfl5nTsWPHWGONNXKKmDx5cq2vLwAA8A0lMQDAXPbss8/G6NGjcyoYkfDdNW/ePP7whz/kVLjsssvivffeywkAAKhOSQwAMJf169evNDu3bMMNN4wdd9wxJ76L3XbbLZZffvmcIsaPHx8DBgzICQAAqE5JDAAwF7388stx1VVX5VTo06dPPuO7atWqVa2v46hRo+LTTz/NCQAAKFMSAwDMRaecckpMmTIlp4i11lorfv3rX+fE97HXXnvFEksskVPEF198EYMHD84JAAAoUxIDAMwlb775Zlx66aU5FXr37l2aqcv317Zt2+jRo0dOhfPPPz+++uqrnAAAgMRvIAAAc8nAgQNj4sSJOUWsuuqq0alTp5yoD/vvv38stNBCOUV8/PHHcfrpp+cEAAAkSmIAgLngvffeK83IrS6tem3ZsmVO1IcFF1wwunbtmlPh7LPPjgkTJuQEAAAoiQEA5oIhQ4bEf//735will9++dh7771zoj4dcsghMe+88+YU8c4778S5556bEwAAoCSmTp07d44//OEPOQEA9emjjz6K8847L6dC9+7dY5555smJ+rT44ovHMccck1Nh2LBhMXny5JwAAKCyKYmpJe38fdZZZ8Vpp52WHwEA6tPw4cOn2TxtqaWWigMOOCAnZoejjz462rRpk1OxaWDNcR8AAFCplMTUssACC8Qdd9xROgCA+vX555+X3oytLs3MrV5gUv+WXnrpOOigg3IqDB06NKqqqnICAIDKpSSmTltvvXVsvPHGOQEA9eXMM8+Mzz77LKeIRRddtDQzl9kvjZxo0aJFThEvvPBCXHHFFTkBAEDlUhIDAMwh48aNK5XE1aV9AOaff/6cmJ1WW2212HfffXMqGK8FAABKYgCAOebcc8+NDz74IKdixNMRRxyRE3NCKuWbNWuWU8TDDz8co0ePzgkAACqTkhgAYA6YMGFCrVWraTO1RRZZJCfmhPXWWy86deqUU8FqYgAAKp2SGABgDrjwwgvj7bffzili3nnnLc3IZc477rjj8lnhzjvvjNtuuy0nAACoPEpiAIDZbPLkyTF06NCcCocddlgsscQSOTEnbbHFFtGhQ4ecCqeccko+AwCAyqMkBgCYzf70pz/Fq6++mlNE69atS7NxmXtqriYeO3ZsPPbYYzkBAEBlURIDAMxGU6dOjcGDB+dUOOCAA2K55ZbLibmhXbt2paO63r175zMAAKgsSmIAgNnoyiuvjBdeeCGniJYtW0bXrl1zYm7q0aNHPivcdNNN8fzzz+cEAACVQ0kMADCbVFVVxaBBg3Iq7LPPPrHyyivnxNy0/fbbxwYbbJBTser7pJNOygkAACqHkhgAYDb561//Gk8++WROX/+HV/Pm0a1bt5xoCPr27ZvPCtdee2289tprOQEAQGVQEgMAzCYDBw7MZ4Xdd9891lxzzZxoCDp27BhrrLFGThGTJ0+uVRwDAEBTpyQGAJgNbr755njooYdyimjWrFl07949JxqKtLr7D3/4Q06Fyy+/PN57772cAACg6VMSAwDMBgMGDMhnhV//+tfTzL+l4dhtt91ihRVWyCli/Pjxtb5/AADQlCmJAQDq2dixY+Ouu+7KqXDiiSfmMxqaVq1aRe/evXMqjBw5Mj755JOcAACgaVMSAwDUs/79++ezwo477hibb755TjREe+21Vyy55JI5RXz55ZcxZMiQnAAAoGlTEgMA1KMHHngg/vWvf+VUsIq44Wvbtm2t79P5558fX331VU4AANB0KYkBAOrRySefnM8K2267bfzkJz/JiYZs//33j4UWWiiniI8//jhOP/30nAAAoOlSEgMA1JPHH388brrpppwKvXr1ymc0dAsuuGB07do1p8LZZ58dEyZMyAkAAJomJTEAQD3p169fPiukOcTt27fPicbgkEMOiXnnnTeniHfeeSfOPffcnAAAoGlSEgMA1IPnnnsu/vrXv+ZUOOmkk/IZjcXiiy8exxxzTE6FM844I6ZMmZITAAA0PUpiAIB60L9//5g6dWpOERtssEHstNNOOdGYHHnkkTHPPPPkFPHqq6/GyJEjcwIAgKZHSQwA8D298sor8Ze//CWnQu/evaNZs2Y50Zgsu+yyceihh+ZUGD58eFRVVeUEAABNi5IYAOB7GjBgQEyePDmniDXXXDN22WWXnGiM0siJFi1a5BTx7LPPxhVXXJETAAA0LUpiAIDv4a233opLLrkkp0KvXr2ieXP/mdWYrbrqqrHvvvvmVDjttNPyGQAANC1+ewEA+B4GDRoUEydOzClilVVWif/7v//LicbsuOOOm2ZkyMMPPxyjR4/OCQAAmg4lMQDAd/T+++/HRRddlFOhR48e0bJly5xozNZdd93o1KlTToVhw4blMwAAaDqUxAAA39GQIUPiv//9b04Ryy23XOyzzz450RR06dIlnxX+/e9/x6233poTAAA0DUpiAIDv4JNPPonzzz8/p8IJJ5wQ88wzT040BZtvvnl06NAhp0LaqBAAAJoSJTEAwHcwfPjw+OKLL3KKWGKJJeKAAw7Iiaak5mrisWPHxqOPPpoTAAA0fkpiAIBZlMrhs846K6dC165dY955582JpmTbbbeNdu3a5VTo06dPPgMAgMZPSQwAMItGjBhRGjdRtsgii8Shhx6aE01Rz54981lhzJgx8dxzz+UEAACNm5IYAGAWpI3qzjjjjJwKnTt3jgUWWCAnmqL27dvHhhtumFNEVVVV/OEPf8gJAAAaNyUxAMAsOPfcc+P999/PKUrl8JFHHpkTTdnJJ5+czwrXXnttvPbaazkBAEDjpSQGAJhJEydOjNNOOy2nQiqI07gJmr6OHTvGD37wg5wiJk+eHH379s0JAAAaLyUxAMBMuuiii+Ktt97KKaJt27Zx7LHH5kRT17x58zjppJNyKlx++eXx7rvv5gQAAI2TkhgAYCakVaNDhgzJqZA2q1tyySVzohLstttuscIKK+QUMX78+Bg4cGBOAADQOCmJAQBmwp///Od45ZVXcoqYZ5554rjjjsuJStGqVavo3bt3ToWRI0fGJ598khMAADQ+SmIAgG8xderUOPXUU3Mq7L///rH88svnRCXZa6+9pllB/uWXX9ZaZQ4AAI2JkhgA4FtcddVV8fzzz+cU0bJly+jatWtOVJo0i/rEE0/MqXD++eeXymIAAGiMlMQAADNQVVVVa+ZsWkm66qqr5kQlOuCAA2LhhRfOKeLjjz+OM844IycAAGhclMQAADMwevToeOKJJ3L6+j+emjePE044IScq1QILLBDHH398ToWzzjorJkyYkBMAADQeSmIAgBmouYq4U6dOsdZaa+VEJTv00ENjvvnmyyni3XffjXPPPTcnAABoPJTEAADT8fe//z0eeOCBnArdu3fPZ1S6xRZbLI4++uicCmnkxOTJk3MCAIDGQUkMADAdNVcR/+pXv4oNN9wwJ4g48sgjY5555skp4tVXX41Ro0blBAAAjYOSGACgDnfccUfceeedORVOPPHEfAaFZZddtjR2orrhw4eXNjwEAIDGQkkMAFCH/v3757PCDjvsEFtuuWVO8I1jjjkmWrRokVPEs88+G1dccUVOAADQ8CmJAQBqePDBB+PWW2/NqWAVMdOz6qqrxn777ZdTYdiwYfkMAAAaPiUxAEANffv2zWeFn/70p6UDpqdz587RrFmznCIeeeSRGD16dE4AANCwKYkBAKp58sknY8yYMTkVevbsmc+gbuuuu2506tQpp4LVxAAANBZKYgCAavr16zfNpmObbbZZ/OxnP8sJpq9Lly75rPDvf/+71tgSAABoiJTEAADZCy+8ENdee21OhT59+uQzmLHNN988OnTokFNhwIAB+QwAABouJTEAQNa/f/+YOnVqThHrr79+rdIPZuT444/PZ4WxY8eW5hMDAEBDpiQGAPjaq6++GldccUVOhd69e0+zGRl8m7TBYbt27XIqnHTSSfkMAAAaJiUxAMDX0liAyZMn5xTxgx/8IH7729/mBDOv5kaHaSPE5557LicAAGh4lMQAQMV7++2345JLLsmpkIq+5s39pxKzrn379rHhhhvmFKWNEP/whz/kBAAADY/ffACAinfqqafGhAkTcopYaaWV4ne/+11OMOtOPvnkfFZIGyK+9tprOQEAQMOiJAYAKtoHH3wQF154YU6FHj16RMuWLXOCWdexY8fSyJKyNMqkb9++OQEAQMOiJAYAKtrQoUNj3LhxOUUsu+yyse++++YE300aVVJzw7rLLrss3n333ZwAAKDhUBIDABXr008/jfPOOy+nQrdu3aJ169Y5wXe32267xYorrphTlEaapA0SAQCgoVESAwAV6/TTT4/PP/88p4glllgiDjrooJzg+2nVqlX06tUrp8KoUaPik08+yQkAABoGJTEAUJG+/PLLGDFiRE6FLl26xLzzzpsTfH977713LLnkkjkVP3dDhgzJCQAAGgYlMQBQkc4666z4+OOPc4pYeOGF47DDDssJ6kebNm3ixBNPzKlw/vnnl8piAABoKJTEAEDF+e9//1saNVHdscceGwsuuGBOUH8OOOCA0psQZenNiTPOOCMnAACY+5TEAEDFSSs533vvvZwi5p9//jjqqKNygvq1wAILxPHHH59TIa1kTxvZAQBAQ6AkBgAqysSJE2PYsGE5FY444ohYdNFFc4L6d+ihh8Z8882XU8S7774b5557bk4AADB3KYkBgIoyatSoePPNN3MqZsZ27tw5J5g9FltssTj66KNzKqSRE5MnT84JAADmHiUxAFAxpkyZEoMHD86pcMghh8RSSy2VE8w+Rx55ZLRu3TqniFdffbX0pgUAAMxtSmIAoGJceuml8fLLL+cUMc8880SXLl1ygtlr2WWXLb0pUd1pp50WVVVVOQEAwNyhJAYAKsLUqVPj1FNPzanw+9//PlZYYYWcYPY79thjo0WLFjlFPPfcc3HFFVfkBAAAc4eSGACoCFdffXU8++yzOUWpqOvatWtOMGesssoqsd9+++VUqLmRIgAAzGlKYgCgIgwaNCifFfbcc89YbbXVcoI557jjjotmzZrlFPHII4/E6NGjcwIAgDlPSQwANHnXX399PPbYYzlFqaDr3r17TjBnrbPOOtGpU6ecCkOHDs1nAAAw5ymJAYAmb8CAAfmssNtuu8Xaa6+dE8x5xx9/fD4r3HXXXXHrrbfmBAAAc5aSGABo0v75z3/G/fffn1PhxBNPzGcwd2y22WbRoUOHnAo138wAAIA5RUkMADRpAwcOzGeFjh07xkYbbZQTzD01VxOPHTu2NJ8YAADmNCUxANBk/fvf/47bb789p0KPHj3yGcxdP/3pT6Ndu3Y5FU466aR8BgAAc46SGABosvr375/PCj/72c9iq622ygnmvp49e+azwpgxY+LZZ5/NCQAA5gwlMQDQJD388MOlecTV9erVK59Bw9C+fftpxp9UVVXFySefnBMAAMwZSmIAoEnq27dvPitsvfXWsc022+QEDUfNUvjaa6+NV199NScAAJj9lMQAQJPz1FNPxQ033JBTwaxXGqoOHTrEmmuumVPE5MmTo1+/fjkBAMDspyQGAJqcVLCl2/bLNt100/j5z3+eEzQszZs3jz59+uRUuOyyy+Ldd9/NCQAAZi8lMQDQpLz44otxzTXX5FTo3bt3PoOGqVOnTrHiiivmFDFhwoQYMGBATgAAMHspiQGAJuWUU06JqVOn5hSx7rrrxi9/+cucoGFq2bJlrY0VR40aFR9//HFOAAAw+yiJAYAm47XXXovLL788p0JaRdysWbOcoOHae++9Y6mllsop4ssvv4yhQ4fmBAAAs4+SGABoMgYOHBiTJk3KKWKNNdaIXXfdNSdo2Nq0aRPdu3fPqXDeeeeVymIAAJidlMQAQJPwzjvvxMUXX5xToUePHtGiRYucoOE74IADYuGFF84p4pNPPokzzjgjJwAAmD2UxABAkzB48ODSZl9laROwPffcMydoHBZYYIE4/vjjcyqcddZZMX78+JwAAKD+KYkBgEbvww8/jD/+8Y85FU488cRo1apVTtB4HHrooTHffPPlFPHuu++Wxk4AAMDsoiQGABq9YcOGxVdffZVTxDLLLBP77bdfTtC4LLbYYnH00UfnVDj99NNj8uTJOQEAQP1SEgMAjdqnn34a55xzTk6Fbt26lTYBg8bqqKOOitatW+cU8dprr8WoUaNyAgCA+qUkBgAatbSp1+eff55TxOKLLx4HHXRQTtA4pdXwhxxySE6F0047LaqqqnICAID6oyQGABqtL7/8MkaMGJFT4bjjjptmnis0Vscee2y0aNEip4jnnnsurrjiipwAAKD+KIkBgEYrjZn46KOPcopYaKGF4vDDD88JGrdVVlml1mztoUOH5jMAAKg/SmIAoFEaP358DB8+PKfCMcccUyqKoalIK+ObNWuWU8Sjjz4ao0ePzgkAAOqHkhgAaJQuuOCCePfdd3OK0oiJo48+OidoGtZZZ53YfffdcypYTQwAQH1TEgMAjc6kSZNqFWVHHHFELLbYYjlB09GlS5d8Vrjrrrvi1ltvzQkAAL4/JTEA0OiMGjUq3njjjZwi2rRpE507d84JmpbNNtssOnTokFNhwIAB+QwAAL4/JTEA0KhMmTIlBg8enFPhoIMOiqWXXjonaHq6du2azwpjx46Nhx9+OCcAAPh+lMQAQKNy+eWXx0svvZRTRKtWreL444/PCZqmbbbZJtq1a5dT4Q9/+EM+AwCA70dJDAA0GlVVVTFo0KCcCvvtt1+suOKKOUHT1bNnz3xWGDNmTDz77LM5AQDAd6ckBgAajWuuuSaeeeaZnCJatGgR3bp1ywmatvbt28dGG22UU/Gmycknn5wTAAB8d0piAKDRGDhwYD4r7LHHHrH66qvnBE1fzVL42muvjVdffTUnAAD4bpTEAECjcOONN8ajjz6aU0SzZs2ie/fuOUFl6NChQ6y55po5RUyePDn69euXEwAAfDdKYgCgURgwYEA+K/z2t7+NddddNyeoDM2bN48+ffrkVLjsssvinXfeyQkAAGadkhgAaPBuvfXWuPfee3MqnHjiifkMKkunTp1ipZVWyiliwoQJtUaxAADArFASAwANXv/+/fNZId1yv8kmm+QElaVly5bRs2fPnAqjRo2Kjz/+OCcAAJg1SmIAoEG755574o477sipYBUxlW7vvfeOpZZaKqeIL7/8MoYMGZITAADMGiUxANCg1dyUq3379rH11lvnBJWpTZs2tTZuPP/88+OLL77ICQAAZp6SGABosB555JH4+9//nlOhV69e+Qwq2wEHHBCLLLJIThGffPJJnHnmmTkBAMDMUxIDAA1WzVXEP/zhD2PbbbfNCSrbAgssEF26dMmpMGLEiBg/fnxOAAAwc5TEAECD9PTTT8fo0aNzKvTp0yefAclhhx0W8803X04R7733Xpx33nk5AQDAzFESAwANUv/+/aOqqiqniI033jh+8Ytf5AQkiy66aBx99NE5FU4//fSYPHlyTgAA8O2UxABAg/Of//wnrr766pwKvXv3zmdAdUcddVS0bt06p4jXXnstRo0alRMAAHw7JTEA0OAMGDAgpkyZklPEOuusE7/+9a9zAqpbZpll4pBDDsmpMGzYsJg6dWpOAAAwY0piAKBBef311+PSSy/NqdCrV69o1qxZTkBNxx57bLRs2TKniOeffz6uvPLKnAAAYMaUxABAgzJo0KCYNGlSThGrrbZadOrUKSegLqusskrsu+++ORWGDh2azwAAYMaUxABAg/Huu+/WmqXas2fPaNGiRU7A9HTp0mWaFfePPvpojB49OicAAJg+JTEA0GAMHjw4xo8fn1PECiusEHvttVdOwIysvfbasfvuu+dUGDJkSD4DAIDpUxIDAA3CRx99FBdccEFOhe7du0erVq1yAr7N8ccfn88Kd999d9x66605AQBA3ZTEAECDcNppp8VXX32VU8TSSy8d+++/f07AzNh0002jQ4cOORUGDBiQzwAAoG5KYgBgrvvss8/i7LPPzqnQtWvXaNOmTU7AzErPnerGjh0bDz/8cE4AAFCbkhgAmOvOPPPMUlFctthii8XBBx+cEzArttlmm2jXrl1OhT/84Q/5DAAAalMSAwBzVRoxkUri6jp37hzzzz9/TsCs6tmzZz4rjBkzJp555pmcAABgWkpiAGCuOvfcc+PDDz/MKWLBBReMI444Iifgu2jfvn1svPHGOUVUVVVF3759cwIAgGkpiQGAuWb8+PGlDeuqO/roo2PhhRfOCfiuao6YuPbaa+OVV17JCQAAvqEkBgDmmgsvvDDeeeednCLmm2++OOaYY3ICvo8OHTrEWmutlVPE5MmTo3///jkBAMA3lMQAwFwxadKkGDJkSE6Fww47LBZffPGcgO+jefPm0adPn5wKl1122TRvzAAAQKIkBgDmij/96U/x+uuv5xTRunXrOO6443IC6sNuu+0WK620Uk4REyZMiIEDB+YEAAAFJTEAMMdNmTIlBg8enFPhwAMPjGWWWSYnoD60bNkyevbsmVNh5MiR8fHHH+cEAABKYgBgLrjyyivjxRdfzCmiVatW0bVr15yA+rT33nvH0ksvnVPEV199VWvUCwAAlU1JDADMUVVVVbVud99nn32muSUeqD9t2rSJE044IafC+eefH1988UVOAABUOiUxADBHXXfddfH000/n9PV/jDRvXqvAAupXGueyyCKL5BTxySefxJlnnpkTAACVTkkMAMxRNVcR77HHHrHGGmvkBMwO888/f3Tp0iWnwogRI2L8+PE5AQBQyZTEAMAcM2bMmHj44YdzimjWrFl07949J2B2Ouyww0plcdl7770X5513Xk4AAFQyJTEAMMcMGDAgnxV+85vfxHrrrZcTMDstuuiicdRRR+VUGD58eEyePDknAAAqlZIYAJgj/vWvf8U999yTU6FHjx75DJgTUkncunXrnCJef/31GDVqVE4AAFQqJTEAMEf0798/nxV22mmn2HTTTXMC5oRlllkmDjnkkJwKw4YNi6lTp+YEAEAlUhIDALPdfffdF2PHjs2pYBUxzB2dO3eOli1b5hTx/PPPx5VXXpkTAACVSEkMAMx2ffv2zWeFdu3axY9+9KOcgDlp5ZVXjn333TenwpAhQ/IZAACVSEkMAMxWjz32WNx88805FXr16pXPgLmhS5cu0axZs5yK5+no0aNzAgCg0iiJAYDZql+/fvmssOWWW8Z2222XEzA3rL322rH77rvnVLCaGACgcimJAYDZ5tlnn42//vWvORX69OmTz4C5qWvXrvmscPfdd8ett96aEwAAlURJDADMNv3794+qqqqcIjbaaKPYaaedcgLmpk022SQ6duyYU2HAgAH5DACASqIkBgBmi5deein+8pe/5FTo3bt3PgMagpqriceOHRsPPfRQTgAAVAolMQAwW6QViVOmTMmpmIH661//OiegIfjJT34S7dq1y6lw8skn5zMAACqFkhgAqHdvvPFGXHrppTkVevbsGc2b+08PaGjSc7O6MWPGxDPPPJMTAACVwG9qAEC9O/XUU2PixIk5Ray66qrxf//3fzkBDUn79u1L84nL0hzxvn375gQAQCVQEgMA9eq9996Liy66KKdCjx49okWLFjkBDc1JJ52UzwrXXHNNvPLKKzkBANDUKYkBgHo1ZMiQGD9+fE4Ryy+/fOy99945AQ1Rx44dY6211sopSvPE+/fvnxMAAE2dkhgAqDcff/xxnH/++TkVTjjhhJhnnnlyAhqiZs2aRZ8+fXIqXHbZZfH222/nBABAU6YkBgDqzfDhw+PLL7/MKWKppZaKAw44ICegIdttt91i5ZVXziliwoQJMWjQoJwAAGjKlMQAQL34/PPP46yzzsqpcPzxx0fbtm1zAhqyli1bluaHVzdy5Mj46KOPcgIAoKlSEgMA9WLEiBHx6aef5hSx6KKLxqGHHpoT0Bik+eFLL710ThFfffVVDB06NCcAAJoqJTEA8L2NGzcuzjjjjJwKnTt3jvnnnz8noDFo06ZNaY54deedd1588cUXOQEA0BQpiQGA7+3cc8+NDz74IKeIBRdcMI488sicgMbkwAMPjEUWWSSnKN0hUPNNIAAAmhYlMQDwvaTNrU477bScCqkgXnjhhXMCGpN0B0CXLl1yKqR54+PHj88JAICmRkkMAHwvF110Ubz99ts5Rcw777xx7LHH5gQ0Rocddtg042Lee++90tgJAACaJiUxAPCdTZ48OQYPHpxTIW1Wt8QSS+QENEZp48mjjjoqp8Lw4cNj0qRJOQEA0JQoiQGA7+ySSy6J1157LaeI1q1b17pNHWicjj766NJzuuz111+Piy++OCcAAJoSJTEA8J1MnTo1Tj311JwKBxxwQCy77LI5AY3Z0ksvHYccckhOhaFDh5ae+wAANC1KYgDgO7nyyivjhRdeyCmiZcuW0bVr15yApqBz586l53ZZes6n5z4AAE2LkhgAmGVVVVUxaNCgnAp77713rLzyyjkBTUF6Tu+77745FYYMGZLPAABoKpTEAMAs+9vf/hZPPvlkTl//B0Xz5tG9e/ecgKbk+OOPj2bNmuUU8dhjj8Xo0aNzAgCgKVASAwCzbMCAAfmssPvuu8cPfvCDnICmZK211io9x6sbPHhwPgMAoClQEgMAs+Tmm2+Ohx56KKcorTA88cQTcwKaoprzxu+555649dZbcwIAoLFTEgMAs6TmKuJf/epXsf766+cENEWbbLJJdOzYMadCzdcCAAAaLyUxADDTbr/99rjrrrtyKvTo0SOfAU1ZzdXEY8eOneauAgAAGi8lMQAw0/r375/PCr/4xS9i8803zwloyn7yk59Eu3btciqcfPLJ+QwAgMZMSQwAzJT7778/brvttpwKVhFDZenZs2c+K4wZMyaefvrpnAAAaKyUxADATOnXr18+K2y77ballYVA5Wjfvn1pPnFZVVVVrdcGAAAaHyUxAPCtHn/88dKKwepqrigEKsNJJ52UzwrXXHNNvPzyyzkBANAYKYkBgG9VcxbxFltsEdtvv31OQCXp2LFjrL322jlFTJkyJU455ZScAABojJTEAMAMPffcc3HdddflVOjdu3c+AypNs2bNar0GXHbZZfH222/nBABAY6MkBgBmKK0QnDp1ak4RG2ywQey88845AZVot912i5VXXjmniAkTJsSgQYNyAgCgsVESAwDTleaMXnnllTkV0grCtJIQqFwtW7asNZd85MiR8dFHH+UEAEBjoiQGAKZr4MCBMXny5Jwi1lxzzdhll11yAirZ3nvvHUsvvXROEV999VUMHTo0JwAAGhMlMQBQpzfffDMuueSSnApp5WDz5v7zAYho3bp1nHDCCTkVzjvvvPjiiy9yAgCgsfBbHgBQp8GDB8fEiRNzilhllVVijz32yAkg4sADD4xFF100p4hPP/00zjjjjJwAAGgslMQAQC3vv/9+XHjhhTkVTjzxxNIcUoCy+eefP4477ricCiNGjIj//ve/OQEA0BgoiQGAWtJc0eolz3LLLRf77rtvTswu48ePLx3QmBx++OGlsrgsvcl0/vnn5wQAQGOgJAYApvHJJ5+U5opWl+aOzjPPPDkxO6RSfr311ouddtopxo0blx+Fhm+RRRaJo446KqfC8OHDY9KkSTkBANDQKYkBgGmkcqf6xlNLLrlkae4os08qiNdff/146aWXYuzYsdGhQwdFMY3K0UcfHW3atMkp4vXXX4+LL744JwAAGjolMQDwP6kcPuuss3IqdOnSJdq2bZsT9S0VxOuuu26pIC5LRfHTTz+dEzR8Sy+9dBx88ME5FdLYmqlTp+YEAEBDpiQGAP4nFcRp3ERZuo38sMMOy4n6Vl5B/Morr+RHCtddd11svvnmOUHjkDawq7655QsvvBBXXnllTgAANGRKYgCgJI03OP3003MqHHvssbHAAgvkRH2qPmKiulQQ/+Y3v8kJGo+VVlqp1gaXgwcPzmcAADRkSmIAoOT888+P999/P6colcM1N6Oi/vzlL39RENPkHH/88dG8+Te/Yjz++OMxevTonAAAaKiUxABATJw4MYYNG5ZT4YgjjiiNm2D22G+//eLMM8/MSUFM07DWWmtFp06dcipYTQwA0PApiQGAGDlyZLz11ls5RWmjus6dO+fE7JJWaqeiWEFMU9KtW7d8Vrjnnnvi1ltvzQkAgIZISQwAFW7y5Mm1VvodcsghseSSS+ZEfUgziLfffvt488038yOFVBQriGlKNt544+jYsWNOhQEDBuQzAAAaIiUxAFS4Sy+9NF555ZWcIuaZZ57SXFHqT3mTuttuuy223XbbWkUxNDU1VxOPHTs2HnzwwZwAAGholMQAUMGmTp0agwYNyqmw//77x3LLLZcT31e5IC5vUpf+mYri9Dg0VT/+8Y9ju+22y6nQt2/ffAYAQEOjJAaACnbVVVfF888/n1NEy5Yta60A5LurWRCXDRkypDT3GZqyHj165LPCmDFj4umnn84JAICGREkMABWqqqoqBg4cmFNhzz33jFVWWSUnvo/pFcQ2qaNStG/fPjbddNOcitecfv365QQAQEOiJAaACnX99dfHE088kdPX/1HQvHl07949J76PNMZjs802UxBT8fr06ZPPCtdcc028/PLLOQEA0FAoiQGgQp1yyin5rLDbbrvFWmutlRPfRyrchw8fHm3atMmPKIipTB07doy11147p4gpU6bUeu0BAGDuUxIDQAX6xz/+EQ8++GBOEc2aNYsTTzwxJ+rDz3/+8xg9enSpKFYQU6nSa0vv3r1zKlx66aXx9ttv5wQAQEOgJAaACjRgwIB8VvjlL38ZG264YU58F2kG8SOPPJJTIRXFr776qoKYipbuUlh55ZVzipg4cWIMGjQoJwAAGgIlMQBUmDvuuCPuvPPOnAo9evTIZ3wX5U3qtttuu3jggQfyo4Wllloqn0FlatmyZfTs2TOnwsiRI+PDDz/MCQCAuU1JDAAVpuY80LTadYsttsiJWVUuiNMmdZ999lnp61mzKIZKt/fee8cyyyyTU8RXX30Vw4YNywkAgLlNSQwAFSTNIb7llltyKtRc4cfMSwXxeuutVyqIy1JR/MEHH+QEJK1bt45u3brlVDjvvPPi888/zwkAgLlJSQwAFaRfv375rLDNNtuUDmZdeQXxyy+/nB8ppE3qdt5555yAsgMPPDAWXXTRnCI+/fTTOPPMM3MCAGBuUhIDQIV44okn4sYbb8yp0KtXr3zGrKg+YqK6VBDbpA7qNv/888dxxx2XU2HEiBGl5xMAAHOXkhgAKkT//v2jqqoqp4jNNtssfvazn+XErHjrrbdi3LhxORUUxPDtDj/88FhggQVyinj//fdLYycAAJi7lMQAUAGef/75uPbaa3Mq9O7dO58xq1ZfffUYO3bs/zbiUhDDzFlkkUXiyCOPzKkwfPjwmDRpUk4AAMwNSmIAqAADBgyIqVOn5hSlUQkdO3bMiZlR/euXrLnmmqWi+Oabb1YQwyw4+uijo02bNjlFvPHGG3HxxRfnBADA3KAkBoAm7tVXX43LL788p0KaRdysWbOc+DZpZuraa68dV1xxRX6kkIriX/ziFzkBM2PppZeOgw8+OKfC0KFDa70RAwDAnKMkBoAmbuDAgTF58uScIn7wgx/ErrvumhPfprxJ3QsvvBB77713raIYmHVpA7uWLVvmFKXn15VXXpkTAABzmpIYAJqwtMHan/70p5wKPXv2jObN/SfAzCgXxC+99FIpT5kypVQUp9vjge9upZVWin333TenwuDBg/MZAABzmt8QAaAJS6XLhAkTcopYeeWV43e/+11OzEjNgrjs6quvjhVWWCEn4Lvq2rXrNG9YPf744zF69OicAACYk5TEANBEffDBB3HhhRfmVOjevfs0t3hTt+kVxNddd51N6qCepJnenTp1yqlw6qmn5jMAAOYkJTEANFHDhg2LcePG5RSx7LLLxn777ZcTM7LnnnsqiGEO6NatWz4r3HvvvXHrrbfmBADAnKIkBoAm6JNPPolzzjknp0IqY1q3bp0TM3LRRRfFJptskpOCGGaXjTfeODp27JhTYcCAAfkMAIA5RUkMAE3QGWecEV988UVOEUsssUQcdNBBOfFtFllkkdJqxlQUK4hh9jrhhBPyWWHs2LHx4IMP5gQAwJygJAaAJiaVwyNGjMipcNxxx8W8886bEzWlGcSnnXZaToVUFKdb3xXEMHv96Ec/iu222y6nQt++ffMZAABzgpIYAJqYNGbi448/zili4YUXjsMPPzwnaipvUtelS5fo2bNnfrQwzzzz5DNgdurRo0c+K4wZMyaeeuqpnAAAmN2UxADQhNS1IvaYY46JBRdcMCeqKxfE5U3q0izUmkUxMPu1b98+Nt1005wiqqqqon///jkBADC7KYkBoAm54IIL4v33388pYv7554+jjz46J6pLBfF66633v4K4bLPNNstnwJzUp0+ffFa45ppraj0/AQCYPZTEANBETJw4MYYOHZpT4YgjjohFF100J8rKK4hffvnl/EjBJnUw93Ts2DHWWWednCKmTJlSWt0PAMDspyQGgCZi1KhR8eabb+YU0bZt2+jcuXNOlE2YMGGaERNlCmKYu5o1axa9evXKqXDppZfGW2+9lRMAALOLkhgAmoDJkyfH4MGDcyocdNBBsdRSS+VEWYsWLWLjjTfOqaAghoZht912i1VWWSWn4g6JU089NScAAGYXJTEANAGXX375NKMT5plnnujatWtOVNeyZcu44oorYtdddy1lBTE0HOn52aNHj5wKF110UXz44Yc5AQAwOyiJAaCRmzp1agwcODCnwn777RfLL798TqQRE5MmTcrpm6L4gQceUBBDA7P33nvHMsssk1PEuHHjYtiwYTkBADA7KIkBoJG75ppr4rnnnsupGKdwwgkn5ETapG7dddeNTp061SqKN99885yAhqJ169a1XsPOO++8+Pzzz3MCAKC+KYkBoJGrufv/nnvuGauuumpOlS0VxOVN6v72t7/VKoqBhunAAw+MxRZbLKeITz/9NM4888ycAACob0piAGjErr/++nj88cdz+vov9ubNo3v37jlVtuoFcVkqih955JGcgIZqvvnmi86dO+dUGDFiROl5DQBA/VMSA0AjVnMV8W9/+9tYe+21c6pcdRXESdqkbsstt8wJaMgOP/zwWGCBBXKKeP/990tjJwAAqH9KYgBopG655Za4//77cyr06NEjn1WuGRXENqmDxmORRRaJI488MqfC8OHDjYwBAJgNlMQA0Ej1798/nxU6duwYG220UU6V6/zzz1cQQxNxzDHHRJs2bXKKeOONN+Liiy/OCQCA+qIkBoBG6K677oo777wzp4JVxIVjjz02+vTpk5OCGBqzpZZaKg4++OCcCkOGDImpU6fmBABAfVASA0Aj1K9fv3xW2H777WOrrbbKiZNPPrlUFCuIofE77rjjomXLljlFvPjii3HllVfmBABAfVASA0Aj89BDD8U///nPnAq9evXKZ5UnzSD+1a9+FR999FF+pJCKYgUxNH4rrbRS7LvvvjkVTj311HwGAEB9UBIDQCNTcxbxj370o/jpT3+aU2Upb1J3/fXXR/v27WsVxUDT0LVr12je/JtfXZ544okYPXp0TgAAfF9KYgBoRJ566qlSIVpd796981llGTduXKkgLm9S9/jjj5eK4okTJ5Yy0HSsueaa0alTp5wKgwYNymcAAHxfSmIAaETSKuKqqqqcIjbddNPYYYcdcqocaQXxBhts8L+CuOykk06KeeaZJyegKTnhhBPyWeG+++6LW2+9NScAAL4PJTEANBJps6arr746p0IlziIuj5ioWRDbpA6ato022ig6duyYU+GUU07JZwAAfB9KYgBoJAYMGBBTp07NKWK99dYrbdhWSdKfPxVFCmKoTDVXE99+++3xwAMP5AQAwHelJAaARuC1116LSy+9NKdCz549o1mzZjlVhrRxVb9+/aJly5b5EQUxVJK0Ued2222XUyG9JgAA8P0oiQGgEUgbNE2ePDmniDXWWCN22223nCpL2rzqsssuKxXFCmKoPD169MhnhTFjxpQ29QQA4LtTEgNAA/f222/HqFGjciqkkqRFixY5NW1pBvELL7yQUyEVxa+++qqCGCpQ+/btY7PNNsspSpt5pk09AQD47pTEANDADRkyJCZMmJBTxEorrRR77rlnTk1beZO6bbbZJp599tn8aGG55ZbLZ0Cl6d27dz4rXHPNNbVmlQMAMPOUxADQgH344YdxwQUX5FRIGze1atUqp6arXBCn4ue9996Ldu3a1SqKgcrUsWPHWGeddXKKmDJlSmlzTwAAvhslMQA0YKeddlqMGzcup4hlllkm9t9//5yarlQQr7feetOsDExFcRoxAZA27ezVq1dOhbS551tvvZUTAACzQkkMAA3Up59+GmeffXZOha5du0br1q1zaprKK4hffvnl/EghbVK344475gRUujSbfJVVVskpYuLEiXHqqafmBADArFASA0ADdeaZZ8bnn3+eU8Tiiy8eBx98cE5NU/URE9WlgtgmdUB1afPOtIlndRdddFFpTA8AALNGSQwADdCXX35ZKomrO+6442K++ebLqWl6/vnn46OPPsqpoCAGpmfvvfeOZZddNqcojecZNmxYTgAAzCwlMQA0QOecc840ZelCCy0Uhx9+eE5N10YbbRS33HJLLLzwwqWsIAZmJI3f6datW06Fc889d5q7MAAA+HZKYgBoYMaPH1/asK66o48+ulQUN0VTp07NZ4XNNtusVBSPGTNGQQx8qwMPPDAWW2yxnCI+++yzWndiAAAwY0piAGhg/vjHP8Z7772XU5RGTBxzzDE5NS1pBvF6660XN998c36kkIrinXbaKSeA6UuvkZ07d86pkEri9PoCAMDMURIDQAMyadKkGDJkSE6FNGai+iq5pqK8Sd2zzz5bWjFcsygGmFnpdXKBBRbIKeKDDz6I8847LycAAL6NkhgAGpCLL7443njjjZwi2rRpU9qwrqkpF8QvvfRSKU+YMKFUFFdfQQ0wsxZZZJE48sgjcyoMHz689MYbAADfTkkMAA3ElClT4tRTT82pkGZtLr300jk1DTUL4rIrr7wyllpqqZwAZk0ay5PeWCtLb7iNGjUqJwAAZkRJDAANxBVXXDFNcdqqVatau/Y3dtMriP/617/Gr3/965wAZl16k+nggw/OqTB06NBam2MCAFCbkhgAGoCqqqoYOHBgToV99903VlhhhZyahlQEK4iB2aVLly6lN9jKXnzxxdJdCgAAzJiSGAAagGuvvTaeeeaZnCJatGgRJ5xwQk5NR7r1e4011shJQQzUrxVXXDH22WefnAppjE96Iw4AgOlTEgNAAzBgwIB8Vthjjz1i9dVXz6npWHbZZeP2228vFcUKYmB26Nq1azRv/s2vOU888URcf/31OQEAUBclMQDMZTfeeGM8+uijOUU0a9YsTjzxxJwatzSD+KKLLsqpkIrixx9/XEEMzBZrrrlmdOrUKafCoEGD8hkAAHVREgPAXHbKKafks8Iuu+wS66yzTk6NV3mTugMPPDBOP/30/Gihbdu2+Qyg/tUc13PffffFrbfemhMAADUpiQFgLrrttttK5UV1PXv2zGeNV7kgLm9S17lz51pFMcDsstFGG0XHjh1zKtR8Qw4AgG8oiQFgLurfv38+K+y8886x8cYb59Q41SyIy1ZeeeV8BjD7de/ePZ8V0jz0+++/PycAAKpTEgPAXHLPPfeUSovqGvsq4ukVxDapA+a0rbfeOrbbbrucCjXfmAMAoKAkBoC5pF+/fvms0L59+/jhD3+YU+Mzfvx4BTHQoPTo0SOfFcaMGRNPPvlkTgAAlCmJAWAueOSRR+Lvf/97ToWmMIu45kgJBTEwN6U33zbbbLOcIqqqqswmBgCog5IYAOaCmrc8pxXE7dq1y6lxatOmTdxwww2lUiZREAMNQe/evfNZ4Zprron//Oc/OQEAkCiJAWAOe/rpp+Nvf/tbToWaJUZjMXHixNLKvLK2bduWiuK7775bQQw0CB07dox11103p4gpU6bEwIEDcwIAIFESA8Aclm51rl6sbrLJJrHjjjvm1HikTerWWWedOPDAA2sVxWnDKICGoFmzZrXG+Vx66aXx5ptv5gQAgJIYAOagdIvzVVddlVOhV69e+azxSAVxeZO6kSNH1iqKARqSTp06xaqrrppTcRfE4MGDcwIAQEkMAHPQgAEDSrc6l6WVuI1tLMO4ceP+VxCXpaL4scceywmgYWnRokWceOKJORUuuuii+OCDD3ICAKhsSmIAmENef/310i3O1aVboNOt0I1FWkG8wQYbTFMQJ2mTuo033jgngIZn7733jmWXXTan4g2v0047LScAgMqmJAaAOeTUU0+NSZMm5RSx+uqrx+67755Tw1d9xER1qSC2SR3Q0LVu3Tq6deuWU+Hcc8+Nzz77LCcAgMqlJAaAOeCdd94pjWSoLt36nG6BbiyGDBmiIAYatTQ/fbHFFsspSgXxiBEjcgIAqFxKYgCYA4YOHRrjx4/PKWLFFVcs3frcmPTp0ycOP/zwnBTEQOMz33zzxXHHHZdT4cwzzyyNngAAqGRKYgCYzT766KM4//zzcyqccMIJ0apVq5waj7PPPrtUFCuIgcYqvYYtsMACOUVp87qar9EAAJVGSQwAs1naGOmrr77KKWLppZeO/fffP6eGK80g3muvvab53JNUFCuIgcZq4YUXjiOPPDKnQnqdnjhxYk4AAJVHSQwAs1Gad5lK1eqOP/74aNOmTU4NU3mTussuuyx23HHHWkUxQGN2zDHHRNu2bXOKePPNN+Piiy/OCQCg8iiJAWA2ShsiVd85P22YdOihh+bUMJUL4vImdf/+979LRfHkyZNLGaCxW2qppeKggw7KqZA255wyZUpOAACVRUkMALNJWn17+umn51To3LlzaeOkhqpmQVyWNnpq2bJlTgCNX5cuXaaZDf+f//wn/vKXv+QEAFBZlMQAMJuce+65pU3ryhZaaKFaczAbkukVxDapA5qiFVdcMfbZZ5+cCoMGDYqqqqqcAAAqh5IYAGaD8ePHx7Bhw3IqpII4FcUNUbrFeoMNNlAQAxWlW7du0bz5N78SPfnkk3H99dfnBABQOZTEADAbXHTRRfHuu+/mFKURE8cee2xODU+LFi1Kt143a9YsP6IgBpq+H/zgB9GpU6ecCgMHDsxnAACVo1lVVdXYr/+5bREBgO9r0qRJsfrqq8frr7+eHylmXw4dOjSnhuu8886Lww8/PK677joFcRM2ceLE+OKLL/53pPnZ6ec2bU5Y/mf5qJnvv//++OMf/5j/TRHrrrtu/P73vy+90ZDmVqdjlVVWidatW5fmvc4zzzylN0zmnXfe0psl6Z/VV26ma9Zcc82cIiZMmBAvvvhiTrUtsMACsdJKK+UU8emnn8abb76ZU21LLrlk6ShLn8uHH36YU21pBMGCCy6YU8Qrr7xS+vpMT/rcq8+1ffbZZ6e7+Vn6Gq299to5Fd+HF154Iafa5p9//lh55ZVzivj888+neV2pafHFF4+ll146p4j33nsvPvjgg5xqW2GFFaa5u+G1114r/TxMzxprrFH6vpY999xzpZ+JuqTv8TrrrJNTlK5L109P+rlYddVVc4rS55E+n+lJm4Aus8wyOUXpz5n+vNOz3HLLxSKLLJJTlL6O6euZPP/887HrrruWzsvGjBkTO+20U05R+j6l79f0rLfeevksYurUqfHMM8/kVFvbtm1jtdVWy6mYX59+zqYnfd7p8y9LP7/V34Ssadlll41FF100pyg9P9LzZHrS1z19/cvS8y89D6cnPefLbyim0RxPP/106bwu6ecl/dyUjRs3Ll5++eWcalt44YVj+eWXzyni448/jrfffjun2tLPe/q5L3vrrbfik08+yam29NpUfV+AdPdMGrU0Pen5mp63ZU899VQ+qy291qU3HcrSHUVpzvX0pNeZ9HpTlj7v9PlPT9pscYkllsgp4p133plmpFVN6XUyvV6Wpa97+vpPT83XsvQznH6W65Je59daa62car9ub7LJJqW/O8rSv6v6a1/a0PeNN97Iqbb050x/3rJve92u+Vr26quvxpdffplTben7lL5fZTN63a75Wpb+XOk1Y3rSz1f6OSv7ttftmq9l77//fumYnvT8SM+TsuqvZXWp+bqdPvfq35vq0vM6Pb/L0tckfW2mp+brNtDo3Z7+Yh/79QEA1JMLL7wwDbT839GmTZuqr3/JzR9tOL7+ZbHq61/ScvrG179I5jMasq9/ySv9XD3++ONVt9xyS9Vll11Wdfrpp1f16NGj6sADD6z67W9/W/Xzn/+86oc//GHV+uuvX7XyyitXff3LaNXXvxhP8/M5t49WrVpVbbPNNlU777xz1R577FE66rqufHTo0CF/BQp//vOf67yufPTu3TtfWejcuXOd15WPv/71r/nKwrbbblvndeXj1VdfzVcWFlxwwTqvS8eiiy6aryq89NJLdV5XPtq3b5+vLFx99dV1Xlc+jj/++HxlIf0s1HVd+bj88svzlYUdd9yxzuvKx7PPPpuvLCy11FJ1XpeOtm3b5qsK6We1ruvKx9Zbb52vLIwZM6bO68rHEUccka8s9OvXr87rysdFF12UryzssssudV5XPjbddNN8ZSE9f+q6rnxU98knn9R5TfnYeOON85WF2267rc7rysf++++frywMHTq0zuvKx1lnnZWvLOy55551Xlc+7r777nxlYe21167zuvLx3//+N19ZVTV+/Pg6rykfa621Vr6ycM8999R5XflIz//qzj777DqvKx9DhgzJVxbSa19d15WPW2+9NV9Z2GSTTeq8rnx8/PHH+cpCs2bN6rwuHSuttFK+qvDoo4/WeV35+PWvf52vLIwcObLO68pH375985WFo446qs7ryscNN9yQryz86Ec/qvO68vHWW2/lKwvzzjtvndelY8kll8xXFZ577rk6rysfP/vZz/KVhSuuuKLO68rHiSeemK8sdO3atc7rysdVV12Vryxsv/32dV5XPv7zn//kKwvp78a6rkvHAgsskK8qvPbaa3VeVz5++tOf5isLf/vb3+q8rnwce+yx+cpCnz596ryufPzpT3/KVxY6duxY53Xl48knn8xXFpZffvk6r0tHy5Yt81WF999/v87ryscWW2yRrwSaiLHGTQBAPUqrLtLGR9UdcMAB06wSaQjKm9Rts802tVa4VF8Bw9yRVkw98sgj8fUvl3HmmWeWVqLvtttu8ZOf/KS0eiutEkyroNKKwQ033DC+/gU89txzz9JIkwEDBsSFF14Y1157bfzzn/+Me++9tzRnNa2sSqvOZrQacm5IK5ruvPPO0srNK664onTMyC233BIbbbRR/PznP4999903rrnmmvwRqD8PP/xwadU88P1VH2UFQMOlJAaAenTllVdOc3tpunWza9euOTUM5YI43WabbnHedtttZ3grJPUv3fqdCqg///nP0b9//zjooINihx12KN2Om25VTbfabrrppvGb3/wmjjnmmDjttNNKZehdd91VulU03ZZcVZUW8lSedFvz448/XiqLL7nkkhg9enT+SN3+8Y9/xPDhw0uF+4xuKYaa+vXrl8+A76P6iCEAGi4ziQGgnqTSLpWv1ecz7r///qVN7BqKVBCn2Zk1Z0Kmwm377bfPifqQZrCmr3MqdWseM5o3OCekGZtpVmU60tzbdKSVyeWZwunNjbrO05HeULjtttvyv6mYl5pmcKfyNR1phmVa6Zz+mb4GqdRNczbTfM50zGjW6ZyQyopUwqfV/elIq7HL52mmZVpdn+Zblt16660znHWbZndXn3F69dVXT3e1dpoLWX32bZqZOaOSO81bbd++fU7F7Ml///vfOdWW5mZuvPHGOUWpTJ/RDNUf/ehH08w8vv3222c4E7Vjx47TzGtOs8unN881/azsvvvuORWvPen66Unfk7Q6vCzNoR07Nv2aUrc0P3WzzTbLqZgVm/6807PVVltNMwc4fR1rvjmW/h3V7wRJqx/TvzO9rqfv04xmnKaV/GVpdfxVV12VU23p+bHjjjvmVMyOTj9n05OeX1tuuWVOxfzUdKfB9Gy++ebTzMa95557ZjjzOL1BVX2u74033liaGTs9//d///e/Ob3peT6j1f/pOdWhQ4ecirsk0hs305PuZNl6661zKmZBP/jggznVlmbfVp91m958m9Ec4PT3XPVZtzfffHNp7vH0pDs4qs+uvfzyy6f7Bl16Hf3Vr36VUzFj+KabbsqptvQ6k15vytIbt/fdd19OtaW7RqrPvn7ooYdKf59MT3oDuPos6/T3/Iz+7tlll11K87LL/vKXv0x35ni6Ll1flmbi3nDDDTkVz/f0/5f+9+l5nX4e27Vrlz9azD9Pb3pOT5qLm+4YKXv00UdnOOc73WVTfb7zv/71r9LM5un55S9/Oc285vQm7PT+bkp/B1bf3DLNEE9vOk5P+vmq/t9TaSb4HXfckVNt6e6g9KZwWbrz54knnsiptvT8qH7HV/p3z2guf3r+VZ/XnD736c3ZT38/7rHHHjkVb8rO6G6d9LqRXj+AJuN2JTEA1JNUgPz2t7/NqSji0i/z1TftmZuqryCu7q9//atN6r6nVMA89thjpUIp/TNt0JUK4ultDlMfUoGVyqa0KVsq2Gr+M/3yVi6Cax7Vi4BZlUrQ6r8wp6IgjbaYWalUSmVb9Y3zykcqGtIGZOWNe8rn5X/OaAO5+pB+kU7lYypbU0GRjlTMVN8kiKZtiy22mKaUTEV3ukMEAKCJUxIDQH1JK0Gqr+763e9+F5dddllOc5eCuH6kVTVppXj1Qjj9c0ar7r6LtDI1rTJLu9On1VHlI+1qXi6CUwlcfdf9OSWtKkqr68pmtST+PtLO/NVL5LQ7floNmlalpX+mI62Ere+REun7UC6Ny0f1Fbg0Hddff/00q0HTcyy96ZNW8wIANGFKYgCoD+mW0p133jmnYpVnumUw3TLZEKRbq9MtgdVvDVcQz1gqGtP3MG38lm4BTre7ppXh07v9dlak21fTre9p1Woqn8olcLkUXmyxxfKVDc/3XUk8u6XvWyqKqxfH6fzFF18slX1pjEF9SKuL0yrjdLv7D3/4w9KRSnwat8YwNggAYDZQEgNAfUizPdPcx7KGVpwlaUZfmk2XimIFcW1phWoqg1MpnI50y/n3HW+QZhOmIrjmseqqq86VVcD1YW6uJK4PadRFzRnR6UizT9NK5e8jlcTlwjgdaT5wmkNM45Jm7KY7QcrSTNp0F4Y3AQCAJkxJDADfVypfq28ulaQNZapvRDI3pBVxaUVzdelzTUVY9Y2EKlH62qSNYe6+++7/lcI1R3HMirSZV1pVmo40iiCtRExlcPXNYpqKhr6S+LtKPxNpfEUqjMujRNKR8nddPZ4K4lQUl0vjH//4x6UN8mjY0mr0tNFW9Q0+jzrqqDjzzDNzAgBocpTEAPB9pYI4la9ladf6Ge1oPiek1cKplDrnnHOm2Sm+kqVRA+n7lI7bb789Pvroo/yRWZPGQZTL4PKRdhqvWcg3VY19JfGsGj9+fDz11FP/K43Tkd5gSBvtfRdpJ/vtttuudGy77bYNerRIJbvwwgvjoIMOyili3nnnjVdffbU0ExwAoAlSEgPA95FWoNYsYe+6667S+Im5pfomdQsssED8/e9/r8ii+JVXXvlfKTx27Nh455138kdmXiqEttpqq1LhvuWWW5YK4UUXXTR/tDI11ZXEsyKtOk6rTNNGleURJek8bWw4K9IbC+kNh3JpvM0225Ses8x9EydOLL35U32Gdffu3WPgwIE5AQA0KUpiAPg+0mZ11VcNt2vXbppVxXNaKojXW2+9aW6TTqVTWgHX1MvNTz/9NP7xj3+UjvQ9SJuVzYqWLVvGBhtsUCqEy8Vw2lyOaSmJ65ZKxeqlcTrS+IpZkX4GN9tss1Jh/Itf/KL05k5jnV3dFJxxxhlx7LHH5hSl8THpdaUpjpEBACqekhgAvqtHH300Ntlkk5wKt912W6ngmRuqryCurilvUvf000/HmDFjSkfaOHBWZsemoiet3EyrvlMhnMq5dEs5M1Zp4ya+j7feeut/hXG6w+Dhhx8uzbudWYssskipLE5vRqV/Gk0xZ6WNK1deeeX48MMP8yMR/fr1i169euUEANBkKIkB4Lv67W9/G9ddd11OUVp9msqguaFSCuL050yrhFMpnFZwz8pq4VQAp43Dyrf2p4LfKs1ZpyT+7j7//PO44447SuNP0s9xmm2cRlfMjObNm5deY1JhnI40poLZb8CAAdGzZ8+cihE06c4MbygBAE2MkhgAvotnnnmmNNahesFz4403lsqbueEnP/lJaaVidU2lIH733XdLf5b09U3lWiqKZ0br1q1LK4TTCJBUCqeZwq1atcof5btSEteftEI1baKYCuN0PP/88/kj32755ZePnXbaKTp27Bg/+9nPSj/v1L80xmallVYqFfxlp512WnTu3DknAIAmQUkMAN/FXnvtFZdddllOUdrQLI2fmFv+85//xLbbblu6vT1p7AVx+nOkVdqpkEzl99SpU/NHZmzttdf+3635aZ5r27Zt80eoL0ri2SdtkpbK4ptvvrm04eTHH3+cPzJjCy64YKksTt+XHXbYIdq0aZM/Qn3o0aPHNBvWpYI+3bUxzzzz5EcAABo9JTEAzKpUDqy55prTzBZNxVkaPzE3lYvis846q1EWxK+//nqpbExfyzS2Y2Zuw09lWFopnIrhtKpylVVWyR9hdlESzxnp9SVtgleeuZ1GU8yM+eefPzp06FD6Hu24447eKKkH77//fmk2cfW7GM4///w4+OCDcwIAaPSUxAAwqw488MC46KKLcipWrz711FOlmaFzSiorUnG066675kcKX375ZakkaixeeeWVUumYjgceeCA/OmMrrrhiqRBOxXAaI2E26JylJJ473njjjf8Vxmm18bhx4/JHpm+++eYrPVfS9yv9M2W+m2OOOSbOPPPMnCJWX331eO6558w1BwCaCiUxAMyKVNSsttpqMWnSpPxIxJ///OfS+Ik5pbxJXSpYR40aFfvss0/+SOOQbqG/6qqr4pJLLpnpjf423njjUiH+y1/+sjQLmrnn6quvjk6dOuWkJJ4bxo8fX5rPff3115dGy7z33nv5I9OX3kxJdxik14vtt99euTmL6nrtv/TSS2PPPffMCQCgUVMSA8CsOOqoo0rjHMpSaZA2m5pThUu5IE4jL5K0evniiy+Ovffeu5QbqokTJ8ZNN91UKtTTBnQpf5vNN9+8VAynY9VVV82PMrdZSdywpHndd955Z+n7kuZ4v/POO/kj07fMMsvE7373u1JhvMEGG+RH+TY17yJJr8WPP/54NGvWLD8CANBo3T7n7osFgEbu3XffjQsvvDCnQvfu3edaQZykgmihhRbKqeG5//7744gjjohll102fvOb35RKrOkVxKlo+eEPfxjDhg2LV199tTR+olu3bgpimIH0RlF5Fvmbb75ZKoyPPvroWG655fIVtaUiOT3PNtxww9Kmm6eddlrp9Y0ZS69H1ccKPfnkk6XV3AAATYGVxAAwk7p27RpDhw7NKWKFFVYobRY3J3a4r6sgTtKt5g1tk7p0W/af/vSn0qrhF154IT9at1QMb7311qXxBWlF6vLLL58/QkNl3ETjkDZ+TONcyjO/0/NyRtKbXT/72c9Kq4vTGzppU0hq22OPPeLKK6/MKWLLLbcsbTAIANDIGTcBADPjo48+Ku1unzaGKxsxYkQceeSROc0+qSBOc3hffvnl/EihIRXEaUXzzTffXNrxP42VmDJlSv5I3dKmT2lERjpWWWWV/CiNgXETjU8qjNMM4/TGTfpeffHFF/kjdVt00UVj3333jYMPPjjWWmut/ChJGi+RVl9Xd8stt5TmPAMANGLGTQDAzDj99NOnKYiXWmqpOOCAA3KavdJ4hsUWWyynQkMpiN9+++3o169fqUDv0KFD3HDDDdMtiFPxdNhhh8U999wTL774YvTp00dBDHNAWrG/3XbblTa6TGMl0oZrP//5z6c7KidtLjl8+PBYe+21o127dqWVszMzR7wSpBEdHTt2zKlwyimn5DMAgMZLSQwA3+Lzzz+fZrO6pEuXLtG2bducZq80c/if//xnaSO3ZG4XxGnV8N///vfSLekrrbRSqeyd3q3saRRH+lzLG2qdc845pbnDwNwx77zzxp577hn/+Mc/4vXXX48hQ4aURtlMz+23314asZBGwZxwwgm1Rt5UohNPPDGfFdLXyMgJAKCxUxIDwLdIBfGnn36a0zcrYmenSZMm5bPCwgsvXCqK77jjjrlWEL///vsxYMCAWG211WLHHXeMv/3tbzF58uT80Wml1Xbp65aK4VRqp0J5TsxuZvZLowtoGtKGkscff3w88cQT8eijj8axxx5ben2rywcffBCDBw+ONdZYo7QKOY2tmN7zv6lLb3SlldnV9e/fP58BADROSmIAmIFx48aVbruuLhUp888/f071L80gTnNA00761aWieJtttslpzkk7+KfRGiuuuGL07NkzXn311fyRaaWV1fvtt19ps6zHHnssjjjiiOkWTjReaXQBTU+as5te695666245JJL4kc/+lH+yLTSmwRpBu+uu+5aGheTiuPqb6JVih49euSzQprFnsp2AIDGSkkMADNw3nnnxYcffphTxIILLhhHHXVUTvUvFcTp1u+0SV26DbxmUTynpCIolR4/+9nPYoMNNoiRI0fGhAkT8kente6668aZZ55Zmk+cZp5utdVW+SNAY9OmTZvShpJ33XVX6Q2itDlnGnlTlzfffLM0giKNokivi//5z3/yR5q+9u3b/28EUJJeM9OdFgAAjZWSGACmI5WiQ4cOzamQCpO0ond2SKuW11tvvWlmfqai+Omnn85p9kufw7nnnlvasGrnnXeOW2+9NX9kWtWLpKeeeqpUEM2urwswd6TXoxEjRpTeALroootiiy22yB+Z1ldffVUaL7PmmmuWxuGksTiVoFevXvmscM0115Q25QQAaIyUxAAwHakUSTN1y9KGT2nUxOyQVhCnFbtpBXF1aZ5vWqk7u6VbzNNmTCussEIcfvjh8fzzz+ePTCvdXj5s2LBvvSWdpstM4sqTXvv233//uP/+++ORRx6Jgw8+uM6NO9OmlqNHj45tt902Nt1007j00ktrzVdvSjp27Fgq0sumTJkSgwYNygkAoHFREgNAHVKxkWZtVnfIIYfEEksskVP9KY+YqL6COEkF8ezepC6Vwb///e9L5W8qNz7++OP8kWn9+Mc/Lm1UlVbJHXfccWYNQ4XaeOON4/zzz4833ngjTjnllFhmmWXyR6aVyuR0t8HKK69cuiPiyy+/zB9pOtJ87pqzif/85z+XxnAAADQ2SmIAqENaAffaa6/lFNG6des4/vjjc6pf6ZblOV0QP/7447H77rvHOuusExdffHGdq/1atWoVv/vd7+LBBx+Mf//737HLLrtEixYt8kepVDauI1lsscVKBWnayDLdVZDK47qkURVptvpKK60Uffv2bXKb3HXq1ClWW221nOp+gxEAoDFQEgNADemW6YEDB+ZUSLdaL7vssjnVr1Qo/N///V9Os7cgvu+++0q3SG+00UZx1VVXlf6sNaVVwt27d49XXnklLrvssthss83yRwCmNc8885RWDKeVw2PHjo1f/vKX0bx57V8x0l0KJ510UqksTqNtPvjgg/yRxi29cZZeL6u78MILm8yfDwCoHEpiAKjhL3/5yzSbD7Vs2bK0Em52SSVDWrmciuK//e1vs6Ug/te//lXajf+HP/xh3HjjjfnRaa2xxhpxzjnnlG4jTyX5csstlz8C3zCTmOlJs4jTTOLnnnsujjjiiJhvvvnyR77x+eefl0bbpDEUacZ7mm/e2O2zzz7TvF6mEUKnnXZaTgAAjYOSGACqSQXYgAEDcirstddepUKjvqQC4bDDDouJEyfmR4qi+PLLL49f/epX+ZH6kQrhVAyngjgVxXVJG+ZdccUVpWInfV5pkyqYHuMm+DbpDaezzjqrNLInjdNZeOGF80e+MW7cuDjjjDNi1VVXLc17T3cuNFZpNXXXrl1zKqQ33D777LOcAAAaPiUxAFSTVsE99dRTOX39F2Xz5qVbo+tLeZO68847L3bddddpiuL6LN9uu+222GqrrUqjJdKIibpsueWWpT/vY489VlrFXNct4gDfVZpb3K9fv1JZnDa5q2vjz/QaeMEFF8QPfvCDOPjggxvtpm8HHXRQLL744jkVK6ZHjBiREwBAw+e3QQCoJhUZ1aVNiVJ5UR/KBXF5k7obbrihVBTXNRf4u7r33ntju+22i+233z7uv//+/Oi00i3ht9xyS6k8TvNDrQwFZqcFF1zwf5vcpTEMdc13nzx5cvzxj3+M1VdfPY477rhGN9M33YHRuXPnnApppXRaMQ0A0BgoiQEg+/vf/x4PPfRQTsXK3lRs1IeaBXHZAQccUC8reB9//PHSquGtt966tHlUXXbaaae45557Sh9PJTLAnFQuUl9++eU499xz6xzjM2HChBg+fHhpDEWfPn0a1ciGww8/vFSIl3344Ydx/vnn5wQA0LApiQEgq7mKOM0HTsXu9zW9gjhtUvd9ZxA///zzpVERG2+88XQ3pEurhR999NEYM2ZMaT4xfB82ruP7at26dRx66KGlDUIvvvji0urhmr788svSqIpUFp966qmNYkVumr185JFH5lQYNmzYNGOFAAAaKiUxAHzt9ttvj7vuuiunQs+ePfPZd5duoZ4dBfHrr79eWoW87rrrxl/+8pc6i7u0WV0aKZHmDm+00Ub5Ufh+jCehvrRs2TL23XffePbZZ0srbpdffvn8kW98/PHH0b1791httdXi7LPPbvCF6zHHHBNt27bNKeKtt94qFeEAAA2dkhgAvta/f/98Vthhhx1is802y+m7SyXIfvvtl1Ph+xTEX3zxRam8XnPNNWPkyJExZcqU/JFvpNXC//rXv+LWW28tbU4H0JCl18m0aV1aWZxmFte1wd27775bWqW79tprx7XXXpsfbXiWXHLJ0iZ21Q0ePLjO12oAgIZESQxAxUsbvN122205FXr16pXPvr/070q3TSfftSBOBUPa1GmNNdaIAQMGxPjx4/NHvrHhhhuWNsNLc4fbtWuXHwVoHNq0afO/mcV9+/aNhRZaKH/kG+ljacPPbbbZJh5++OH8aMNy/PHHR6tWrXKK0p0kV155ZU4AAA2TkhiAildzFfFPf/rT+PGPf5zTrEsziNOGRdWlojjND/4uBfEtt9xSmjmcVtq99957+dFvpFXFqYBIc4c7dOiQHwVonOaff/7o3bt3qRDu1q3bNOMbyv7973/H5ptvXhpXkUY6NCQrrLBC7LPPPjkVBg0aZJ43ANCgKYkBqGiPP/54rQ3fvs8q4vImdWkl7wcffJAfLfzgBz/IZzMnzenceeed4+c//3k8+eST+dFvLL300qXVxU8//XTsvvvuZsUyRyi6mFMWXXTR0qZ1aSXuYYcdFi1atMgfKaSfxUsuuaT02vqHP/yhQW1ud8IJJ0Tz5t/8qvXUU0/F9ddfnxMAQMOjJAagotVcRbzFFlvE9ttvn9OsKRfEqdBIhcB2221XqyieGWkV8hFHHBEbbLBB3HTTTfnRb6RVdWkucZrfeeCBB9YqTmB28mYEc9oyyywT55xzTjzxxBPxi1/8Ij/6jVQOn3zyyaWyOJXGDeGNjDQaqFOnTjkV0qggAICGSkkMQMV67rnn4rrrrsup8F1XEVcviMtSUZxW+c6sqVOnlnbvT+VCKkQmT56cP1JI5dyee+5ZGluRyu10SzZApVhnnXXi5ptvjr///e+x7rrr5ke/kcZOpPET6c2+Bx54ID8695x44on5rJA+p7ShKABAQ6QkBqBipVVdqZgtSxu/dezYMaeZV1dBnKRN6rbddtucZiyVB2m+Ztq9/9NPP82PfiPNSE4b7F166aWleZcAlWqHHXYojQpKb6YtscQS+dFvPPTQQ7HVVlvFIYccEh9//HF+dM5Ld4PU/DvllFNOyWcAAA2LkhiAipQ2RLriiityKqQRDrNqRgXxzGxSlwqMVGSkQuORRx7Jj35j1VVXjauvvvp/mzQBEKUxO2lOcRq707Vr12jdunX+SCGNnLjgggtKG3uOGjVqro2gqLma+Pbbb4/77rsvJwCAhkNJDEBFSjvNVx/nsNZaa8Vvf/vbnGbe2LFj47XXXsupMDMFcSosLrroolKBkYqMmgVGGiUxePDg0uZ1u+66a34U5r6GMO8VyhZaaKHSa+UzzzxT52t4mvG+//77x09+8pPSTOM57Yc//GFpPn11NWfhAwA0BEpiACrOm2++GX/6059yKvTo0WOanehn1k477RR/+ctfomXLlqU8MwXxY489Fj/60Y9Km86lAqOmtNlRmpecVsfNM888+VFoGGxcR0OU7rq45ppr4p///GdpA7ua7r777th0003juOOOiy+++CI/Omekv1+qGzNmzFwprAEAZkRJDEDFSavOJk6cmFPEKqusEnvssUdOs26XXXYpFcXXX3/9DAviVEwcc8wxsdlmm8W9996bH/1GKjZSwZH+Xcstt1x+FBoWK4lpyH72s5+VCth+/fpF27Zt86OFdPfI8OHDS3eOXHXVVfnR2a99+/alzfSqM5sYAGholMQAVJT33nsvLrzwwpwK3bt3/99K4G+TZhBvueWW8dRTT+VHCqkontGmd2k3/vXWWy/OPPPMmDJlSn60kIqMdPvxk08+WSo4oCGzkpiGLs0n7tWrVzz99NOx884750e/8fbbb8fuu+8eHTp0KN1ZMifUnHmfVj2necoAAA2FkhiAinLaaaeVit6ytGJ3v/32y2nGypvUPfDAA6UZkzWL4rqkjen23Xff2HHHHeP111/Pj37jl7/8ZWmWZioQjJYAqD/pLpEbb7yxNAZopZVWyo9+I419WHfddeucC1/f0puI6Y3CsqlTp5Zm4wMANBRKYgAqRipszznnnJwK3bp1m6lytlwQv/TSS6X8wQcflIrizz//vJTrklaKrbPOOnHJJZfkR76RyosbbrghRo8eHSuvvHJ+FID6lsYApTfj0l0jrVq1yo8W0mv4IYccEttvv328/PLL+dH6l1bg15xN/Oc//zneeOONnAAA5i4lMQAV44wzzogvv/wyp4gll1wyDjrooJymr2ZBXPbHP/4xFlxwwZy+8e6775Z22d9tt91K4y2qa9GiRXTp0qV0G3S61RkaGzOJaYzmnXfeGDhwYDz++OOljUNr+te//lV6nT/99NNLq3xnh7Qp6WqrrZZTxKRJk2LIkCE5AQDMXUpiACpC2jRuxIgRORVSWVtzY6OaplcQp9uX69qk7uKLLy6tHr7uuuvyI99Itxrfc889MXTo0G/9/4WGykxiGrO111477rzzztKbhvPNN19+tDBu3Ljo3Llz/PjHP45nn302P1p/0puEaTVzdWlG/vvvv58TAMDcoyQGoCKcddZZ8cknn+QUscgii8Rhhx2WU93Sismf/OQnM1UQp82Pdthhh/j9738/zf9Pkm5vPumkk+Lhhx+utcM9NDZWEtPYNW/ePI4++ujSXPk0ZqKme++9NzbeeOMYMGBATJ48OT9aP/bZZ5/SLPyy9Ebk8OHDcwIAmHv+n707Abep/v44vszzGCIRkUxRkkrSYCbzFClJxmiQklKRiH7NZJ4JIfMsUSpUEiVK0SAzmTPe+2/t7zr/zj33mu9whvfree5jr2Unruuesz/7u9eXkBgAEPZ0dVjgRfgTTzwhmTJlsipuumJSR0pkz57dOnEHxJMnT5ZSpUrJ4sWLrfOfW265Rb799lvp2bMnG9MhLLCSGOFC58EvWbLEW82bJUsW6zonTpzwNhTVVcW//PKLdS+fvg4888wzVjk6K//gwYNWAQAAJA1CYgBA2NOd63WjOR8Nh3UV2YXQ1WQff/yxFxQHBsQHDhyQBx54QJo1axZr9bCOk9BZk7oizX9HewBAcGndurW3sV3t2rWt85/Vq1fLjTfe6L2OxBedhZ8jRw6r3OZ5geOQAAAAEhshMQAgrOlqsMCNgR577DFv3ERc9NHfwBXBGhTryAn/gFg3OdLVwxMnTrTOf+666y5Zv369dO3a1ZtBCQAIbldddZXMnj3b+57uH+Cqo0ePSrt27aROnTrxMj9YN9HT2cf+dEayPvUCAACQVAiJAQBhbfTo0bJ9+3ar3ArfwItzH98mdbqabO7cudZ1smbN6v2ooXOXLl28OZZ//vmn1/NJkyaNvPnmm7Js2TIpXLiwdQEAoUKfDNFVxRoIB5ozZ473GqE/Xi69WZk5c2arRPbu3StDhw61CgAAIPEREgMAwpZuONS/f3+rnLZt20quXLms+o8vINYVwydPnpSGDRvGCorXrVsnZcuW9eYbB27epauKv/nmGy9AZmYrAISunDlzyqxZs7wRExkyZLCuoyuJNUDWlcW6wvhS6QzkTp06WeXoTUZ9/QEAAEgKhMQAgLD1wQcfyG+//WZV3BsGKf+A2Mf/Ql0DYR1ZUa5cOW83fH+6S77+ml9//TWzhxERAm+QAOFKZwd/9913ctttt1nnPxog6yginVl8qZ588knv6Rafv/76S8aMGWMVAABA4iIkBgCEpaioKHnttdesclq1aiV58+a1yokrIFa6Sd19993nbXhXs2ZNefbZZ2Ot8Lrmmmu82cSvv/66F0ADkYCV8ogkOjro888/l169eknKlCmt62zevFkqVKjg3US8lJsnumJZg2h/+npy5swZqwAAABIPITEAICxNnTpVfvrpJ6vEu7jv1q2bVc65AmLdpO6zzz7zdrVfuHCh/cx/HnzwQW9zOt2kDgAQvnQD0pdeekm++OILue6666zr6FgjvYmoNxX37dtn3QunG5ymSpXKKvFejyZPnmwVAABA4iEkBgCEHV3R1bdvX6ucBx54QAoWLGiVc/jw4RgX50oDYt247tVXX5V77703xqZ3Knv27DJlyhQZN25cjE2HAADhTUcOrV271ptHHGj+/PneTUUNki9Gvnz55KGHHrLK6devH2NdAABAoiMkBgCEndmzZ3urfH10bnD37t2t+o9uYLds2TIpWrSoV+tGRbfffrtUq1ZNXnzxxViP/N5xxx3efMrGjRtbBwAQSXQjuyFDhnivF9myZbOus23bNrn77ru9DVMvJuTVp1z0dcpHZ9/rrw8AAJCYCIkBAGGnT58+duQ0atRIrr/+eu9YHw32lzt3bi8o1tnCmTJlktKlS8vHH39sP+voDFa9iF++fLm36gsAENnq1KkT56Z2+hrz3HPPSa1atWTv3r3WPTcdYdGkSROrnMCZ+gAAAAmNkBgAEFYWL14sX3/9tVUu4H3hhRe8Y51BrKuGdZMhf7qiWOcPV65cWXbu3GldJ0eOHN5jxPr4b+CmRQCAyJU/f37vtePpp5+OtaHjggUL5KabbvI2vbsQ+rSL/6/x1VdfxbphCQAAkJAIiQEAYUVnCfvT+cKlSpWKsUmdbjLkC4r3798v1atXl549e0pUVJTX86lYsaK3Ukx/HgCAQDrX/o033vDGQ+jMen86fuKee+6JdWMyLvo6pZvf+Qt8KgYAACAhERIDAMKGruhasWKFVY6uIvYPiH00KJ4zZ46ULVtWlixZYl1HZ0Pqf6cjKPLmzWtdAADipjckdVM7nWvvT8dP6OvN/fffL8eOHbNu3J5//nk7cnTE0cqVK60CAABIWITEAICwEbiKuGrVql44HBgQK308WC/at27dah1HR08sXLjQ+7VSpEhhXQAAzs03fqJr166xxk98+OGHXoAc+JrjT+cb33vvvVY5rCYGAACJhZAYABAWdH5j4IpgvVCPKyCuW7euvPnmm7FWdd1xxx3eeIkqVapYBwCAC6ez63W8xOzZsyVbtmzWddavX+89vaKz888mcDXxvHnzZN26dVYBAAAkHEJiAEBYCFxtdeedd8qUKVNiBcQaGuvsyEDt27eXZcuWSZ48eawDAMCl0fnCuolqyZIlrePoHPyaNWuedU5xpUqV5NZbb7XK6du3rx0BAAAkHEJiAEDI09VZOl/YX48ePWTAgAFSrVo164jkzJlTvv/+e6ucNGnSyMiRI2Xw4MHeBkQAAMSHQoUKyapVq6RRo0bWcc6cOXPOOcWBq4mnTZsmmzdvtgoAACBhEBIDAEKeriKOjo62SuSWW27x5hGnTZtWZs6c6a0eTp06tezZs8fOcK6++mpvfuQjjzxiHQAA4k+GDBlk6tSp3mpg3RTVn29O8ZYtW6zj6CZ4+rrlExUVJf369bMKAAAgYRASAwBC2k8//eStsvLnW4WlwbFuQKerh0+ePOn1fHQcxTfffCPlypWzDgAACaN79+7efOG45hTrjU29Yemjm97p+f7Gjx8vf/75p1UAAADxj5AYABDSdHWWrrLyN336dO8RXn2UN66d4Tt16iRLly6VK6+80joAACSs6tWrn3VOsW6YqkGwT5MmTaRw4cJWiZw6deqsc4wBAADiAyExACBkbd26VSZOnGjVf/RC+5prrvE2rvOn4yfGjBnjzSpm/jAAILGdbU6xPu3y0EMPyUsvveQ9BZMiRQrp1q2b/awzYsQI2b17t1UAAADxi5AYABCy+vfvL6dPn7Yqpr1799qRo5vWffLJJ9KyZUvrAACQ+Hxzinv16mWd//Tu3VuaN28uJ06c8EJjnZ3v888//8jbb79tFQAAQPwiJAYAhKS//vpLRo0aZdW5FS9eXFavXu1tEAQAQDDQVcP6NEyaNGms40yePFnuvfdeOXjwoHTt2tW6zqBBg+TAgQNWAQAAxB9CYgBASNKd3nVG4/nonMcvv/xSChYsaB0AAIJDs2bNvKdccuTIYR1HX7duu+02qVixovckjM+hQ4dk4MCBVgEAAMQfQmIAQMjRmYwXsoq4Xbt2Mn/+fMmSJYt1AAAILuXLl/eedilatKh1nC1btngrimvXrm0d591335WjR49aBQAAED8IiQEAIUdnMh47dsyq2JInTy5vvvmmDBkyRFKmTGldAACC07XXXisrV670QmF/Olpi3Lhxki5dOuu4mfvDhg2zCgAAIH4QEgMAQsbx48flzz//lPfff986semGQDNmzJAuXbpYBwCA4Jc1a1ZZuHChPPLII9ZxdINW3bTOn94IPXnypFUAAACXj5AYABAS9AK5RIkScscdd8jhw4etG9NVV10lK1askDp16lgHAIDQkSpVKhk5cqQ3dz9ZsmTWjU03bx0zZoxVAAAAl4+QGAAQ9DQgvuGGG7z5jLqSOC7XX3+9t9HPTTfdZB0AAEJTt27dZOLEiV5ofDb9+/eXM2fOWAUAAHB5kkVHRy/798e7XQkAQHDRgLhkyZJeQHw2efPmlQcffFAyZcokhQoVkqZNm9rPiPzwww+yZMkSb06xrsrSDz321bpzfPHixe1skaVLl3pBtP85/v+trlL2nw05c+bM//+5wHP10eHbb7/dzhTZs2ePfP/997HO831cc801cvXVV9vZIlu3bpV9+/bFOs/3UaRIEUmbNq2dLfLzzz9LVFSUd6y/vvKdq0GD/vo+Orpj165d///zyv9YP5eZM2f2jtWRI0e8OdBxnas/6rn+8591tfe/7zGscuf4ftQPHQvio+fp70f5n+eTIkWKGL+2/hl9f04f//N9n1sf/fX1w7/n72x9xG3atGnSuHFjq0QaNGggH330kVUA4pO+fum/Mf0eHJcJEybIAw88YBUAAMAlW05IDAAIWr4VxL/++qt1zq9atWreTEcffWz30UcftSq2QYMGSYcOHawSLwSeM2eOVbHpI7461kJp8OgLY+Nyyy23yFdffWWVC5Tr169vVWyvvvqqvPDCC1aJtGrV6pyPE2vgrAG6T/bs2eXvv/+2KibdFMn/86hjOTQgP5unnnpK3nrrLatEnn766Rh1oOXLl8tdd91llUjhwoXP+veWJUsWbzMmnw0bNsT4cwRq2bJljM9D3759Y3yeAk2fPj3G57lcuXLy9ddfWxWbrsTz/T3u3LlT8uTJ4x3H5b777ovx9TF06FBp3769VeKF2Rqwa7Ctv6Zusti8eXP7Wfd3qp97389rQK0/+j6WLVsm2bJl887VOaT6OfX/ed/5+t/r+BX/v5MvvvjCm1Pq+3nfufqj1nrzpFatWna2yKhRo7zPi/95+qPv47nnnpOcOXPa2SK9evXyfk8bN26MEQrrTZbHH39c2rVrZx2RP/74wztHf03/X9dXlylTRm699VY7W2T16tXerxvXufpRuXJlyZEjh50tsmjRIu/7Q+B5+m8yffr0MTb/0nBN/x36n+f/3+XOndu7ueSj/8Z37Njx/z+vfMf6of+W9O/YR29gnThxIsY5/h/+v7Z+/vTX177yneM71htQ+u/YR2/M+MLBwP9GP/RmS5o0aby+0nP169n/XP8f9XzfsdLPoU/gufo58l/FqjdmfKtW/X8N//P9+76bM8q/7xNXD3HTf6c1a9b0NqwLVLRoUfnxxx/5fAIAgMu1XN+8Lfv3AwCAoHLs2LHoQoUKacJwUR/Vq1e3X8EZMWJEnOf5PgYPHmxnOrVr147zPN/Hjh077Mzo6KioqDjP8X2UK1fOznSmT58e53m+jz59+tiZTsuWLeM8z/fxww8/2JlO1qxZ4zxPP/Rz6e/TTz+N8zzfR5cuXexMR+u4zvN96K/n71x/d9myZbOzHP1zxHWe7+Phhx+2M51XX301zvN8HzNmzLAznVtuuSXO83wf+vfos3379jjP8X3o14c//fqJ6zzfh379+dOvz7jO833s2bPHzoyOPnHiRJzn+D7Kly9vZzpTpkyJ8zzfx+uvv25nOg888ECc5/k+fvrpJzvTyZAhQ5zn6UfRokXtLOfjjz+O8zzfR7du3exMp3PnznGe5/v48ssv7Uwnf/78cZ6nH7ly5bKznLVr18Z5nu+jTZs2dqbTs2fPOM/zfcydO9fOdG688cY4z9OPFClS2FnO77//Hud5vo8GDRrYmc57770X53m+j7Fjx9qZTqVKleI8z/dx4MABOzM6+siRI3Ge4/u466677Ezngw8+iPM838fbb79tZzpNmjSJ8zzfx5YtW+xMJ3Xq1HGepx833HCDneUsWrQoOm3atN7XZKZMmaKzZMnifV+54ooronPmzBndv39/O9Pp0aOH9z3puuuuiy5SpEh0sWLFokuUKOH9uqVLl47esGGDnenov/MKFSpEV6xY0fs83HPPPd7ntkqVKt6/G3+bN2+Orl+/fnTDhg2jGzdu7P25mzVrFt28efPoBx98MNbf0cyZM6Pbt28f3aFDh+jHHnssulOnTtGPP/549JNPPhn91FNPRW/atMnOdN59913v99+xY0fvzxnX52fkyJF2NgAAwCVbxkxiAEBQ0lW35xoxcTaBq6n+fbGzo7hdzvkX+2ufT0Kefzl/TnW+83UVob9znX+5v5fzuZzz4/vzcrHn+38eL+ZcldC/93NJ6M/LxZyf2L+Xc0ns38vFnH++c4P560tXNeuImqNHj3qjbQ4ePOg9RaHjeXSsT+BoBu3pkw2bN2/2xvLoqnV9gkGfxli3bl2MFdVKV+5+/vnn8tlnn8mnn37qrfDXUUQ6+kFrf/v375cZM2Z4K+enTp0qU6ZMkUmTJnnzhMePHx/jaRKl9ZAhQ2Tw4MHy/vvvy8CBA+W9996Td955x3vyQFfh+xs2bJj3lIk+9aJ/zrh07Njxkl4vAQAA/BESAwCCUrNmzS54zuJtt93mze/dvn27N5/Rn/46etH9+++/y2+//eadpxfT+qGhQeD/Qy/eNUDQx3f1Q4MEnWusYcL69evliiuusDNdiLJmzRovUNALf31kftWqVd7HypUrZfjw4Xamc+edd3phwyeffOIFDh9//LEXOixevNgbkXH//ffbmc4TTzwhs2bN8gIIHaGgIYTOg9UQ4sMPP4wxv1hp6DB27FgZPXq0N0pAR23o70FHIvTu3dvOcnQcxLvvvuuFEjqi4I033pDXX3/d2wjptdde8x5t9le1alV58cUXpUePHvL88897owh0Y6VnnnnGG0Whc6H9tWjRwhvjoSMI2rRpI61bt5ZHHnlEHn744Vh/Tn10X2fc6txNHRNRt25dqV27tjfaQX8fOnLEX758+bzP5R133CHly5f3xhboaI+bb77ZG2Ogs6D96fn659UxAQUKFJD8+fN7nzv9PQeOltAwSucr6+8pY8aM3uP5Or5AxwDoY/2pU6e2M52LDdoCZykH8g/DLuZcldDnn2uDrMv9tePz85jYn5ek/L1c7NeX//nx/XtJzM/j+TZrS8zfS1J+Xnx03ImOD9IAHAAA4FIxkxgAEJQ0wHzyySetcnTeq4a4ulpLZ5L6q1GjhheonmsneCCp+cLQwFDUV+vsYH86w1b5n+871jDJ/+tdg7NTp07F+n/4ftSA2/98XT3pOz+u/0bDdv9QUeehamCl/87atm1rXfdvT29O+M8v1lWeu3fvjvVr+z507rL/7F3dRFFXgvqfox9K/5/XXXddjA0j9aaNBmOB5+uH/hnLli1rZ4q3qvSbb76JdZ7+uvqj3jDQ+c4+mzZt+v9NIOM6X29Q+N9c0BnVupo08Dz9UT9//jPRDx065N3ECTzPd6zzZevVq2dni3fDaf78+bHO8/2oN8H0xoiPrkb96aefYpyjXxe+Wlel+mYY6ypcnZGtP+//6/qOS5Uq5d0w8tHvuX369Ilxjv7o++/1hpH+fnw6d+7s/Te+n/f/0J7eYPO/uaRfb/r16H+e7/9x4403yrfffmtnisydO9e7kXQ2L7/8svTs2dMq8W5UjRgxwqrY1q5d6/0/fHLlyuWtPo6L3mTSm44+X375pXfD6mz086ArhX305prekDsbvXlYqVIlq9zMYf07vRA6X1tvQPpvxgoAAHCB2LgOABAcNLDSsEkDFF0pqytV/Wnwo4/wNmzY0NvMSTeo08eB/emqYH28N3AlFoD4o6vZdeW3j64A99/IDkgKGij7BL4G6M/5/7yPr6dhvv9/ozdn/M8P/G/9nyjQEFtvWKi4/hu9uem/uaDeQDl58qT3875z/H/Upxj8b+boDQj9/Wio36hRoxhheVz0Zo0+oVK6dGnrAAAAXBBCYgBA0tOAWEcK6PiHLFmyxJq7qBfYGkzp+AEfvXDWx2t1HIS/xx9/3FuFDCBhEBIDiUtXWOvrn44m8le9enW56qqrvPFC/nSVvq7i9l9RDwAAcB7LYw4yAwAgkfkHxCowINZHzPVxbv+AWOlFsF4wFyxY0DqOPtb7wgsvWAUAQOjSlcoPPvhgrIBYR1zorHodo6Hz3/3pTdTKlSt7s/EBAAAuFCExACDJBAbEgXTjsAULFkiVKlWsE5OuoNLHaq+88krrOH379vV2jAcAIJR17NjR26jUn46SmDdvnncTVcdkDBo0KNYMf73hqhuOfvbZZ9YBAAA4N0JiAECSOF9ArGMndOXUXXfdZZ24FSpUyDtPNz3yp2MnPvjgA6sAAAgtTz31lAwdOtQq5/rrr/c2p9PXSH9vv/22tymeP920UWf96/kAAADnQ0gMAEh0ujnPrbfeetaAWEdJ6A7vt99+u3XOTXfh11VV6dOnt477fzz88MPeLvgAAISSnj17yjvvvGOVkzdvXm/W8BVXXGGdmPr16ycvv/yyVY5u9FqnTh1WFAMAgPMiJAYAJDp9PHbAgAExdnD30Z3Zly1bdtEb7pQvX97bPMv/19Qd4Zs0acLFMQAgZIwcOVJ69epllaPBsI5Xuuaaa6wTNw2XX3vtNascDYpr1arFjGIAAHBOhMQAgCShQbDu2O7PFxDryuBLoTu9jx8/XpIn/+/lTcda1K5dW9auXWsdAJdDV+kDSBj6Gta2bVurHJ3P/8knn0ixYsWsc27PPfecvPnmm1Y5vtETa9assQ4AAEBMhMQAgEShYa1vFZM+Ehu4SkpHTOgqqRIlSljn0jRt2lTef/99q5xDhw55AfLPP/9sHQCXSp8EABD/9DXw0UcflaioKOuIpEmTRmbPnn3RN0+7dOkSa0WxbzO79evXWwcAAOA/hMQAgATn26ROL047d+4s3bt3t59xdAMenbOoO7bHh/bt20ufPn2scnbv3i1VqlSRbdu2WQcAgOCwatUqqV+/vpw8edI6IilSpJAPP/xQ7rnnHutcHF1RHDijeP/+/d5r4caNG60DAADgEBIDABKULyDWTer0cdeBAwfazzj6GO2CBQsuegbx+Tz//POxwug//vjDuzjeu3evdQAASFo//PCD1KxZU44ePWodt2JfZxPXrVvXOpdGZxQ/++yzVjl607RSpUryyy+/WAcAAICQGACQgDQgLlmypBcQxyV9+vQyb948uf32260Tv/r27SutWrWyytm0aZM3l/Hw4cPWAQAgaWzZssW7efn3339bx3n77belZcuWVl2e/v37y+OPP26Vs2PHDrn33nvl999/tw4AAIh0hMQAgAThW0GsF8BxSZs2rcyaNUsqVqxonYQxfPhw7xFef9988423OuvEiRPWAQAgcWlQe/fdd8vOnTut42io+8QTT1gVP955551YG+L9+eefXlCsvw8AAABCYgBAvPMfMRGX1KlTy0cffSSVK1e2TsLRmY6TJk3yLoT9LVu2zNvk7syZM9YBACBx6MphndOvQa0/HQ0ROB4iPuj4iiFDhsRanaw3cnVjV93UDgAARDZCYgBAvNu1a1eMzXf8pUyZUqZMmeLNX0wsuju8rlq+5ZZbrONor3Xr1hIdHW0dAAAS1qFDh7yxRzqL2N9DDz0k/fr1syr++eYc33///dZx1q9f7z1dc/z4cesAAIBIREgMAIh3BQoUkDFjxkjy5DFfZvQCdcSIEZe9Ec+l8G2QV6xYMes4Y8eOlaefftoqAAASjt5A1RFIq1evto7TuHFjL8DV18mEpE/XjB8/XmrVqmUd59NPP5XmzZtLVFSUdQAAQKQhJAYAxAv/sQ06X/HRRx+NdbH5+uuvx9tGPJfiiiuukCVLlsg111xjHUc3CHrppZesAgAg/ulrogaxn3zyiXUcnc0/btw470mbxOB7oidw09gZM2ZIhw4drAIAAJGGkBgAcNl0BrGu0B01apQ311DnG27dutV+1tHVul27drUq6eTNm9cLinPlymUdp3fv3jJo0CCrAACIX23atPHm8fsrU6aMzJkzx9vMNTGlT59e5s6dK8WLF7eOM2zYMHn55ZetAgAAkYSQGABwWXyb1G3evNmb71uuXDlZt26d/ayjcxb/97//WZX0rrvuOlm0aJFkyZLFOk6nTp28Te4AAIhPepNUb6T6u/7662XhwoWSOXNm6ySu7Nmze6+F+fLls47zyiuvcNMUAIAIREgMALhkvoD4119/tY7Izz//bEeOblCXGHMWL9aNN97oraJKly6ddcTbwE7HYcyfP986AABcnh49esibb75plZM/f37vqZacOXNaJ2lcffXVXlCtgbG/zp07y7Rp06wCAACRgJAYAHBJ4gqIA+m8w6lTpybanMWLVaFCBe8i2P/3d+rUKWnUqJF8/vnn1gEA4NK899570qdPH6scDYZ1LnHgCt6koiMn9KapjqDw0fnJLVq0kM8++8w6AAAg3BESAwAu2oUExHFddAYjXek8duzYGCud9c933333xRqbAQDAhZo8ebI89dRTVjk6WkJHPBQqVMg6wUFv6upmdv43TU+cOCH169eXX375xToAACCcERIDAC5aq1atzhkQ6+OrehEc+PhqsNLd5gcOHGiVoxvwVatWjYtjAMBF083odB6/rsj10c3p9LXxpptusk5wqVWrlowYMcIqZ//+/V5ffwQAAOGNkBgAcNF09/PbbrvNqpgyZszorSDWoDiUdOzYUfr162eVs2vXLqlSpYr89ddf1gEA4Ny++OILadq0qTe+yEdX6Op4o7O9dgYLncuvG9f5070GGjZsGOPPAwAAwg8hMQDgounjsjqiIXXq1NZxUqRI4T1eW7p0aeuElm7dusmTTz5plfPbb79J1apVZd++fdYBACBuOqZIV97q2CIfHWc0ZswYrx8KXnzxRW8esb/ly5dL27ZtrQIAAOGIkBgAcF56sdu3b1+rRI4dO+aNaDh58qR1nLfffjtkLoLP5q233vJWUvn78ccfvdnFR44csQ4AADFt3rzZu6mo44r8DRgwQB544AGrQsPIkSO9zV39adD92muvWQUAAMINITEA4Jx8m9S98MIL0qVLF2++ol7srlmzxs5wOnXqJJ07d7YqdOmKL704rlu3rnWcr776SurVq+dt5AMAgD8dS6TjiXbv3m0dR0c3PPbYY1aFDn1SaObMmbE22NP3Ajo2AwAAhB9CYgDAWWlAXLJkyf/fpE5XCt9yyy3ehaM/XWX7zjvvWBX6dGzGhx9+KHfffbd1nKVLl3orqM+cOWMdAECk03FEGhD//vvv1nGef/55b3RDqLriiitk3rx5ki1bNuuIREdHexvy6Y1TAAAQXgiJAQBx8q0g3rJli3Wcb7/91o6cUqVKeXOINVgNJ2nSpJHZs2fLzTffbB1n+vTpzGVERNOQCIBz+PBhqVSpkmzcuNE6TocOHeTVV1+1KnRdf/313srhVKlSWce9P9Cnbf7880/rAACAcEBIDACIxRcQ+1YQ++ju7P7y5Mkjc+fOlUyZMlknvOifa+HChVK0aFHrOKNGjZKuXbtaBUQWHckCQLzxQxqW6mZ1/nQ0kc4hDpd/K/fee68MHjzYKmfnzp3SsGFDRjABABBGCIkBADHoBV9cAbE+dnr69GmrRNKlSydz5syRfPnyWSc85ciRQ5YsWSL58+e3jvPmm29Kr169rAIARBIdO1S/fn1ZtmyZdRzduC4cn65p3bq1PPvss1Y5X3/9tbdiGgAAhAdCYgBADPpI6e23326VU7x4cW/mor/hw4fHGsUQrq6++movKM6ZM6d1nJ49e8rQoUOtAgBEAh250qpVK1mwYIF1HJ3ZryOJdFxROOrXr5/cd999VjmjR4+W999/3yoAABDKCIkBADEkT55cxo4dKy1atPBq3ZTuxx9/9I59unTpIg888IBVkaFIkSKyaNEiyZw5s3Wcjh07epvcAQAiw1NPPSXjx4+3ytGbqRoaZ8iQwTrhR8dnTJgwwXs99Kefj88//9wqAAAQqgiJAQBy/PjxGHMFfUHxyy+/LPPnz7euo7MJX3/9dasiy0033eSN2EibNq11RKKiouTBBx/0AmQAQHh77rnn5N1337XKKVCggCxevNgbyxTusmTJIjNmzJCMGTNaR+TUqVPSqFEj+euvv6wDAABCESExAEQ43aSuZMmS3mxF/6B4zZo13qOl/q655hpv1Wy4zVq8GBUrVpSpU6fG2MRPL5AbNGggX375pXUAAOFm4MCB0r9/f6ucK6+80htHlDdvXuuEP101rTeS/Tfm27Vrl7eR3cmTJ60DAABCDSExAEQwDYh9m9TpY7K+oHj37t1e6OkfGutGdbp6SDdyi3Q6k1HnMPpfIB87dkxq1aol69evtw4AIFzomIXHH3/cKidr1qzeUySFCxe2TuTQ9wjdu3e3ylm9erU89thjVgEAgFBDSAwAEco/IPbRoFhXEDdu3Fi2bdtmXUc3qtNxC3B0ZnPgI8cHDhyQatWqxficAgBCm25GpxvV6YZ1Pjp7WAPi0qVLWyfy9O7dW2rUqGGVM2LECDZ0BQAgRBESA0AEiisgVrNmzZK5c+fKZ599Zh1HN6WJtI3qLkTnzp2lT58+Vjk7d+6UKlWqyI4dO6wDAAhVn376qff6d/r0aeuIpEqVSqZNmyblypWzTmTS/QsmTpwohQoVso7zxBNPyLfffmsVAAAIFYTEABBhzhUQp0mTJtYcYt2o7n//+59VCPT88897YbG/rVu3StWqVWX//v3WAQCEGn2ypnbt2t7mrj46k3/8+PFSvXp160Q2Hbkxc+ZMb2W1j46qatKkiRw6dMg6AAAgFBASA0CE0c1m4gqIy5Yt641Q8H+cNk+ePDJp0qSI3qjuQujYCf3c+fvhhx+8GcVHjx61DgAgVPz000/eUyGHDx+2jqOjFJo2bWoVlG5+O3LkSKscfZ/Rpk0bqwAAQCggJAaACNO+ffsYq4Vnz57thZnNmjWTvXv3WtetltKAOFeuXNbB2egGdrqRna4487dq1SpvM0B2eweA0PHHH394AfHff/9tHee1116T1q1bWwV/Gpzr+wt/U6ZMkSFDhlgFAACCHSExAESgbt26eUGxBsQabL700kux5hD37NlT7rrrLqtwPilTpvQuiCtWrGgdZ8mSJd48y6ioKOsAAILVnj17vID4zz//tI6jr5PPPfecVYjL22+/HWsjP93TYN26dVYBAIBgRkgMAGFOZxDrSuFdu3ZZx9GgWAPixYsXe6uj/FWuXNmbtYuLkzZtWpkzZ46UKVPGOo5ucNSuXTurAADBSGfoVqtWTX7++WfrOLp6uFevXlbhbPQ1UG+WZsyY0TrizXPW+cRHjhyxDgAACFaExAAQxnyb1M2fP9/bgC4wKN6+fXucc4g/+OADb9dyXLzMmTPLwoULpUiRItZxRowY4QXzAIDgo2HmfffdJ2vXrrWO06hRIxk2bJhVOB997dO5zf40dOdGKQAAwY8EAADClC8g9m1S9+OPP3pBsW+X9jNnznhziPXRWh+dQzxx4kTmEF+mnDlzemMm8uXLZx3n9ddfl1dffdUqAEAwOH36tBcGr1ixwjqOjp3gpunFa968uTz66KNWOfreQm+WAgCA4MU7HgAIQ4EBsY/OIdbHQVWfPn1izSHWmYt33323Vbgc+fPn90Z55MiRwzrOiy++KMOHD7cKAJCU9EkaDTXnzZtnHefOO++UmTNnSurUqa2Di/Hee+9JyZIlrXIef/xx2bBhg1UAACDYEBIDQJg5W0Ds26ROffXVV9K7d2/v2KdSpUrSo0cPqxAfihYt6o2eyJQpk3Uc3QFe5xQDAJJWp06dZOrUqVY5Gm7OmjVL0qdPbx1crHTp0nmf1wwZMljHvT/RjVxPnjxpHQAAEEwIiQEgjERFRXmbpp0rID527Jg3h1gfr/XR8RI8Upswbr75Zu/z71vBrfTvSS+UdSQFACBpPPPMMzJo0CCrnMKFC8snn3wi2bJlsw4uld4oDfz8rlu3znuiBgAABB/SAAAIIxry9u/fX1KlSmWdmAGx6tKli2zevNkqR+cEXnnllVYhvukIjw8//NCb+eyjK6nq168vq1atsg4AILH07dtX3njjDasc3bhVxwTpXHnEj4ceekjuv/9+qxz9vAeOuwIAAEmPkBgAwkydOnW8UQYaFAcGxDpzMXDX8bZt28Y4BwlD/15GjRolyZIls47I0aNHpWbNmvLDDz9YBwCQ0MaMGRNrvJKuHNaAuGDBgtZBfNHVxFdffbVV7mmali1byqFDh6wDAACCASExAIQ4nfEXGDJqIPnHH3/ECH/37NkjrVu3tsq57rrr5K233rIKCU1XVL399ttWOX///bdUrVpVtm7dah0AQELRzegeffRRb8M6H52bu2DBglgbrSF+aACvwbz/TdLffvvN28gOAAAED0JiAAhhvk3qdJyBzvnzlzt3bjty9KJ4165dVomkTJlSxo8fH2NTGSS8J554Ql555RWrnB07dkjlypVl586d1gEAxDedNayjD86cOWMdkdSpU3vB8a233modJATdHFdf//yNHTtWPvroI6sAAEBSIyQGgBDlC4h1k7p9+/Z5F2CBQbGPzhzW0RP+9FFbLoqThm7a89hjj1nlbNmyxVtRrCuLAQDx6+uvv5a6devKiRMnrOPm+E+cONG7SYeE99prr0mJEiWsctq1a+fdKAUAAEmPkBgAQpB/QOyjQXFcK1H1nCeffNIqR8PhF154wSokhQEDBkjz5s2tcr7//nupVauWHDt2zDoAgMulI5mqV68uR44csY4zbtw4adiwoVVIaGnTppUJEyZ4q7d99L3LI488YhUAAEhKhMQAEGLiCoiVrhSuVq2aVY7OXNSLL90gzUfHS+hFmo6bQNLR2Yz6qK2Gwv5WrlwpDRo0kFOnTlkHAHCpdPZtlSpVZP/+/dZxdB7/Aw88YBUSy4033ii9evWyylm4cKEMGTLEKgAAkFQIiQEghJwrIPbfpM5n8ODB8tlnn1nl6IVx4cKFrUJS0qB+6tSpcuedd1rHWbRokbRo0cLbAR4AcGl0Dr8GxIFP2ehc+KeeesoqJLZnn3021uue9v7880+rAABAUiAkBoAQonNrDx48aJVztoD4jz/+kG7dulnl6OO2bdu2tQrBIF26dDJnzhxvdZW/KVOmSMeOHa0Cgoc+oQAEuwMHDsg999wjv/zyi3UcHb+kc+GRdHQWtI76yJgxo3VEDh8+LO3bt7cKAAAkBUJiAAghuuHL0qVLJUeOHF59toBYaRjsP38xU6ZMMnToUKsQTLJkyeKtHr7uuuus4+jfV/fu3a0CgoOOSgGCmc5111E+GzdutI5z//33y5tvvmkVklKBAgWkX79+Vjnz58/3xmEBAICkQUgMAEEucORAqVKlvKBYQ8WzBcRjxozxft5f//79JX/+/FYh2OTKlUuWLFkiefPmtY6jF9G6IzwA4Px0nrvOdf/yyy+t49SoUcNbvaqrWBEc9GmZChUqWOXoSu/du3dbBQAAEhPvkgAgiOkM4uLFi8vMmTOt42hQXLVqVati0tmLXbp0scqpWLEij3GGgGuuucYLiq+44grrOM8//7yMGjXKKgBAXPSmqs5zD7xJescdd8hHH30kqVKlsg6CgT6VMHLkSEmbNq11RPbt2yedO3e2CgAAJCZCYgAIUr5N6n766Sdp0qRJrKD4bHRlzt9//22Vm3mrF2E8Ih4aihUrJgsWLIgxq1Hp+JDp06dbBQAI1KFDB2+eu7/SpUvLvHnzvNdCBJ8iRYpIz549rXL07/BC3/MAAID4Q0gMAEFI5ymWLFlSfv31V6/Wx2c1KN6xY4dXn41eWM2YMcMqp3fv3lK4cGGrEApuueUWmTVrlqRJk8Y6ImfOnJFmzZrJxx9/bB0AgM9zzz0nw4YNs8rROe+LFy/25r4jeD399NNSpkwZqxy94a2bDwIAgMRDSAwAQUZXEOs4iS1btljH0Udl8+TJY1VscT2iWa5cOW++H0LPvffeK5MmTZIUKVJYR+TkyZNSv359+eqrr6wDAHjllVe8ufv+8uXL543v0XnvCG4pU6b0Rirpjz56U1zDYwAAkHgIiQEgiPhGTPhWEPvMnj37rJvU+Tz77LMxNntJnTq1d9HlHzIitGggPHz48BijQo4cOeJtwPTjjz9aBwAi16BBg+Tll1+2ytG57vrUhc55R2jQsSDdunWzytH3MJ988olVAAAgoRESA0AQady48SUFxLqL++jRo61yXnjhBSlRooRVCFWtWrWSN954wypn//79UqVKFfntt9+sAwCRZ+rUqbGeoMmUKZMsXLjQm3WL0PLiiy96c/n9PfbYY97ILQAAkPAIiQEgiOiqGf9g90ICYp1Vq7P7oqOjrSNStGhR6d69u1UIdV26dIm1Um779u1eULxr1y7rAEDkmD9/vrRo0UKioqKsI94cd92krmzZstZBKNG/vxEjRsR4embTpk3y5ptvWgUAABISITEABBGdnaiPVmpQfCEBsRowYICsW7fOKkcfv02VKpVVCAe6+3v79u2tcn755RepVq0am/sAiCgrV670NnPVOe0+Olrpww8/lDvvvNM6CEXly5eXRx55xCpHN+D9448/rAIAAAmFkBgAkpDOINZA158GxWvWrLmggFg3dnnppZescpo3by733HOPVQgn77//vtx///1WOXqD4L777vO+lgAg3H3//fdSq1YtOXr0qHXEW3mqT+LUrVvXOghluglh9uzZrRI5duyYPPHEE1YBAICEQkgMAEnEt0mdztvr27evdR195PJC6BiCw4cPWyWSOXNmHssMY8mTJ5dx48Z5G9f5++KLL6Rhw4bMbQQQ1rZs2SJVq1aVv//+2zrO22+/LQ899JBVCHW68WC/fv2scmbOnOmNGAEAAAmHkBgAkoAvIPZtUqebzAUGxeezdOlSmTx5slWOPpKZO3duqxCOdIzItGnT5I477rCOs2DBAi8k8Z/PCQDhQp+cqVy5suzcudM6jr52sso0/Dz66KNy6623WuU8/vjjcvz4casAAEB8IyQGgESmAXHJkiX/PyD20dD4QukcRl2B7O+mm26K1UN4Sp8+vcydO1dKlSplHUdvGnTq1MkqAAgP+/fv9zbq3Lp1q3Uc/X7HJq3hSUeI6DgufYLGR983Ba4wBgAA8YeQGAASkW8FsT4y6+9CN6nz+d///ic//fSTVf9dTOnGPYgMWbNmlcWLF0vhwoWt4wwePFi6detmFQCENp09XLNmTdmwYYN1nBYtWsh7771nFcJRmTJlpEOHDlY5Oq848CY7AACIH4TEAJBI9BFJ/xETPhcbEG/bti3WaAp9LPO2226zCpHiyiuvlCVLlshVV11lHef111/3ZnQCQCjTp2Z0k7rVq1dbx6lfv76MHj3au0GK8Pbqq696G/r66HspHTsBAADiHyExACQSfWSyaNGiVjkXGxCr559/3tvp2yeuDV4QOQoUKOCtKPbfCV49/fTTMmbMGKsAILScOXNGmjVrJp9++ql1nLvuuksmTpwoKVOmtA7CmT41o09P+dMN7BYtWmQVAACIL4TEAJBIUqdOLdOnT/dWRalLCYi/+eYbmTBhglVOnz59YgWEiCwlSpTwLpozZMhgHZHo6GhvhbnuCA/EJ/3aAhJaq1atvNdMf+XKlZM5c+ZI2rRprYNIoJuyVqhQwSqna9eu3o0EAAAQfwiJASABnThxIsZFjC8o1kdnLzYgVl26dIkR0Gg4qEEgoLvAayCsX2M++rV3//33yyeffGId4PLxiD8SmgaA48ePt8q5/vrrZd68eZIpUybrIJLoCCX/7z0//PCDjBgxwioAABAfCIkBIIHoJnUa4uoKmMCgWFdDXaxp06bJihUrrHLeeustNqvD/6tcubL3GLb/14TeqKhXr558/fXX1gGA4PXSSy/Jm2++aZWTP39+b/56jhw5rINIU7ZsWW+zQn/6tXL48GGrAADA5SIkBoAEoAGxb5M6De0efPDBy3osUoO+bt26WeXUqFFDqlatahXgNGzYUIYOHWqVoxfR+vWyceNG6wBA8BkyZIj07t3bKidnzpxeQJwvXz7rIFLppr3p06e3SmT37t2xNvIFAACXjpAYAOKZf0DsM2nSJFm/fr1VF++9996TLVu2WCXehj2BK60An9atW8vrr79ulbNv3z7vpsLvv/9uHQAIHpMnT5bHHnvMKidz5szeBmVFihSxDiLZ1Vdf7W3K6u+dd97hdQ0AgHhCSAwA8SiugFjpJnU33XSTVRdnz5493uZ0/tq1ayfFihWzCojtmWeekR49eljlbNu2TapUqeKtvgKAYLFgwQJvNFNUVJR1RNKlSydz58695NdOhCd9qipPnjxWiRw/flyee+45qwAAwOUgJAaAeHKugPhSNqnzefnll+XgwYNWiWTNmlV69uxpFXB2+th227ZtrXI2b94s1atXj/E1BQBJ5fPPP/fG5Jw6dco67mmZqVOnyp133mkdwMmQIUOsG+e6Cn3VqlVWAQCAS0VIDADx5N133433gFhnyA4bNswqR1eHsnkPLtTgwYOlSZMmVjlr1671vi71xgYAJJVvvvlG7rvvvhjfi5InTy4TJkyQWrVqWQeIqWXLlnLjjTda5XTp0sWOAADApSIkBoB4oo87+s/Ku9yAWL344osxNrwrVKiQdO7c2Srg/DRwGT9+vFSrVs06zooVK6Rx48Zy+vRp6wBA4tGnGjQIDnyqYcCAAdK0aVOrgNj0de2tt96yylm5cqXMmDHDKgAAcCkIiQEgHr3xxhteUBwfAfGaNWvko48+ssrp16+fpE6d2irgwujXzPTp0+X222+3jjNv3jx5+OGHJTo62jrA+fH1gsv1559/yr333htrPnr//v2lY8eOVgFnd88990idOnWscvTGuv9cawAAcHEIiQHgEunjsfoYf+AqKA2KLzcgVi+88IIdOWXKlPHmNgKXIn369F4orHOz/X3wwQesTsdFSZYsmR0BF2/v3r3ekw26kaY/fRrn2WeftQo4v759+3qrin02bNggEydOtAoAAFwsQmIAuAS+Tep0Y52qVavG+yZgn332mSxatMgqRzdqIZzB5ciWLZv3dXXttddax3n//ffl+eeftwoAEsbhw4elRo0a3rx9f/pEgwZ+wMUoUaKENG/e3CpHN/ZljBIAAJeGkBgALpIvIPZtUvfVV195QbH/zuyXK3AVse7wXr16dauAS5cnTx5ZsmSJ96O/1157zdt8EQASwokTJ7zxALpZnb969erJiBEjuAmKS6KhcMqUKa0S773ZyJEjrQIAABeDkBgALkJgQOzTo0cPSZUqlVWXZ/78+fL5559b5bDCCvFJVxIvXrzYW1ns76mnnpJx48ZZBQDxQzdg1fFMy5cvt46jc4knT54sKVKksA5wcXRD39atW1vl9O7dW44fP24VAAC4UITEAHCBzhYQx8cmdT66IZQGzv700dwKFSpYBcSPkiVLejOKM2TIYB339acX2/o1DQDxQb+vPPLII7G+r5QrV05mzZoladKksQ5waXTDurRp01ol8tdff8ngwYOtAgAAF4qQGAAugK6CKl26dIIGxGratGmydu1aq9wGUTqLGEgIt99+u0yfPl1Sp05tHfFmOTZt2jTWij8AuBRPPvlkrCcUihcvLgsWLJCMGTNaB7h0efPmlQ4dOljl6AilI0eOWAUAAC4EITEAXAB9FFbnBPvvoh3fAbEG0boaxl+jRo3kpptusgqIfzpPe8KECTG+tvUxXZ0dumbNGusAwMXTDTHfe+89q5wCBQp4c9GzZ89uHeDyde/ePcZNhz179sg777xjFQAAuBCExABwgVq2bCmjRo3ywrT4DojVpEmT5KeffrLKBdOvvPKKVUDCady4sQwZMsQq5/Dhw95mif5fkwBwod5++21vNae/K6+8UpYtWyZXXXWVdYD4kTNnTm/Vur833nhDDhw4YBUAADgfQmIAOAudQbx161arHA2Kf/vtt3gPiHVmY+DmdA8++KAULVrUKiBhtWnTRvr162eVs3fvXqlSpYr8+eef1gGA89PxEk8//bRVjq4c1g0zdSUxkBC6du0aY0PWgwcPysCBA60CAADnQ0gMAHHwbVJXsWLFWHOI8+XLZ0fxR+fCbty40Sq3ijhwAzsgoXXr1s17ZNefBsQaFOujuwBwPh999JG3Aabe/PRJnz69t1FmqVKlrAPEvyxZssS6OaEjJ44ePWoVAAA4F0JiAAjgC4g1HN62bZvcfffdsYLi+Ba4Od39998vhQoVsgpIPLqi/dFHH7XK0ZETOnri0KFD1gGA2D799FNp0aKFtwGmT6pUqbwbobfddpt1gITTqVMnLyz22bdvnwwdOtQqAABwLoTEAODHPyD20aBYR0wklPnz58vatWutEkmWLFms1ZxAYtIL6oYNG1rlfPvtt95mdrqpHQAE0o0udRST//cIneGvG2NWq1bNOkDC0oBYg2J/Opv4xIkTVgEAgLMhJAYAE1dArHSTukqVKlkV/wJXEdevX19KlChhFZD4NNiZOHGiN2bCn64SbNKkSYxVggCwadMm72kD3fDS3+DBg73vGUBi0g3sdMSJz44dO2T06NFWAQCAsyEkBoB/nSsgju9N6vzpLu9ffvmlVc4LL7xgR0DSSZ06tcyYMUNuvfVW6zhz5syRRx55JMa8UQCR648//vBuKOlGl/50I8y2bdtaBSSeHDlySLt27axy+vfvzw1OAADOg5AYAP61fv162bVrl1VOQgfEKnAVcY0aNaRMmTJWAUkrQ4YM3jiUwJXt48eP91ZqAYhsu3fv9gJiHcvkTzde1Y0wgaTStWtXSZMmjVXijQ3TJ2QAAMDZERIDwL90teTChQslY8aMXp0YAfGqVatk6dKlVjmsIkawyZ49uyxevFgKFixoHee9996TF1980SoAkUY3stQREz///LN1HN34snfv3lYBSeOqq66Shx9+2Crntddek6ioKKsAAEAgQmIAESvwcfk77rjDC4oXLFiQ4AGxClxFfPfdd3u/ByDY6MX2kiVLJHfu3NZxXn31VRk4cKBVACLF0aNH5b777oux6arS+cO68SUQDJ599llJmTKlVW529vTp060CAACBCIkBRCSdQVyqVClZvny5dRwNaXVlVELTC5V58+ZZ5bCKGMGsUKFCsmjRIsmaNat1nMcff1w++OADqwCEO53r2rhxY1mxYoV1nKpVq8qECRO8jS+BYHDttddKs2bNrHJ0VjYAAIgb7+IARBzfJnU//PCD1KpVK1ZQnBjefvvtGCuZb7nlFqlcubJVQHDSGyt6c8N/13j9OtZHeufOnWsdhDs2LYxc+qh+ixYtvCdu/N15553eCs1UqVJZBwgO3bt3l2TJklklsmbNmlg3OAAAgENIDCCiHDt2zAuIf/311/+vNSgO3JU9Ie3bt8/b+Mtfly5d7AgIbuXLl5ePPvooRhjkW1n42WefWQfhzD9wQWTp3LmzfPjhh1Y5+po6a9Ysb6NLINgUK1bMe5/nT2/UAwCA2AiJAUQM34gJX0DsM3nyZMmRI4dVCW/IkCHe78UnX7580qhRI6uA4KcjWfRGh/9j5cePH/dmeQfOKAUQHnr06CGDBg2yytExNLqxZbZs2awDBJ+nnnrKjhy9qbFlyxarAACADyExgIjgGzERGBDPnj07UTap8zl58qS8//77Vjm6Mst/YxUgFDRt2jTW1/KhQ4e8APnnn3+2DoBwoHNcAzdbzZMnT5wbWgLB5t577/UWCfjo2JT33nvPKgAA4ENIDCAi1KxZM8kDYqWrlnfs2GGVSMaMGaVNmzZWAaGlffv2sYKj3bt3S5UqVWTbtm3WARDKRo8eLc8//7xVTvbs2b2AuGDBgtYBglvgauJRo0Z5NzYBAMB/CIkBRIQxY8ZIgQIFrEqagFgFzsFr1aqVZM2a1Sog9Gh49Oyzz1rl/PHHH15QnJizvgHEvxkzZng3Mv03K9TZw/Pnz5cSJUpYBwh+zZo1kyuvvNIqkcOHD8uIESOsAgAAipAYQES45pprZPny5V5QPGfOnCQJiJctWybfffedVf9+A06eXJ544gmrgNDVv39/74aHv02bNkmNGjW8C3EAoWfp0qVesHbmzBnriKROnVpmzpwpt956q3WA0JAmTRrp2LGjVc6AAQNifH0DABDpCIkBhCWdQTxx4kSrHA2KN2zYIPfdd591ElfgKmINqnXTHyAcDB8+XOrXr2+V880330jdunXlxIkT1gEQCr766iupV69ejH+7KVKkkEmTJknlypWtA4SWDh06SNq0aa0S+e2337zV8gAAwCEkBhB2fJvUtWjRQoYNG2ZdJ3369HaUuDZv3ixz5861yunSpYsdAaHPFyBVqlTJOo6uoNdN7litBYSG77//3nsK4MiRI9ZxdIZrgwYNrAJCT86cOeWBBx6wygm8gQ8AQCQjJAYQVnwBsW5SpzMUdWOtwKA4KQwZMiTGTMcyZcpIxYoVrQLCgz7Oq4+i33LLLdZxZs2aJa1bt47xbwBA8NGVldWrV5f9+/dbx3nzzTfloYcesgoIXU8++aQdOV9++aV8++23VgEAENkIiQGEDf+A2EdDqbx581qVNI4fP+5tnOePWcQIVxkzZpQFCxZI8eLFreOMHTtWnn76aasABJvt27d7TwLoj/569erFky8IGyVLlow1MmXo0KF2BABAZCMkBhAW4gqIlW5SV6tWLauSxrRp02KsysqWLZs0adLEKiD8XHHFFbJ48WJvDrg/fay3Z8+eVgEIFgcOHPBGTGzZssU6js5wfemll6wCwkPgBna6hwWbrAIAQEgMIAzoSl1dGRJXQJxUm9T501ET/lq2bBlj4xQgHOkK/iVLlsiVV15pHUdXJQ4aNMgqAEnt2LFj3s3U9evXW8e5//77ZeDAgVYB4UM3Ds6TJ49V4s3fDtzsGACASERIDCDk6YZYV111lVVOsATEGzZskC+++MIqp127dnYEhLfrrrtOFi5cKFmyZLGO07lzZ2+TOwBJ69SpU95mdDqX1V/NmjVl3Lhxkjw5lwoIPylTpvTm5Ptj5AQAAITEAMJAhgwZvBmoFSpU8OpgCYhV4EXHXXfdJUWLFrUKCH833nijzJ07V9KlS2cdkaioKG9F/fz5860DILHpv8MWLVrIokWLrOPoa6mOSUqVKpV1gPDz6KOPxrgJsnbtWvn666+tAgAgMhESAwhJJ0+etCPHt1mWrtoNloBYH+HVlVj+2rdvb0dA5IgrdNIVjI0aNZLPP//cOgASk74eTZkyxSonrps6QDjSmfnVq1e3ymE1MQAg0hESAwg5ukldsWLFvEfW/WlQXL58eauS3ocffigHDx60SiRnzpzeY71AJNLH18eOHSvJkiWzjvu3rDd11q1bZx0AieG5556T4cOHW+XoeBhdVRw4HgYIV4HjvyZPniyHDh2yCgCAyENIDCCkaKh0ww03eDuw64Y6gUFxMAncsK5Vq1aSOnVqq4DI06xZs1gbYemNlGrVqskvv/xiHQAJ6dVXX5X+/ftb5Vx99dXeRpO5cuWyDhD+dMNG3WTV5+jRozJhwgSrAACIPITEAEKGjm/QgPjXX3+1jniBk24OF2y+++47+eqrr6wSb/Vk27ZtrQIiV8eOHaVv375WObt27ZIqVarIX3/9ZR0ACWHYsGHy4osvWuXoUy6LFy/2Hr8HIkmKFCm82cT+GDkBAIhkhMQAQoKuIC5VqlSMgFjpJnUlSpSwKniMHj3ajpxKlSpJoUKFrAIiW/fu3eXJJ5+0yvntt9+katWqsm/fPusAiE8TJ06UDh06WOVkypTJm+evI5yASKQhsYbFPuvXr2cDOwBAxCIkBhD0fCMm4gqIg2WTOn+nT5+WSZMmWeW0adPGjgCot956S1q2bGmV8+OPP3qzi48cOWIdAPFBg2D99xYVFWUdkbRp08q8efPk5ptvtg4QeXTUSo0aNaxyAjcdBgAgUhASAwh6r7zySsgExGrhwoWyZ88eq8TbBKhOnTpWAVA6gmXkyJFSt25d6zg6pqVevXpy4sQJ6wC4HCtXrpRGjRp5NzB9UqZM6W2ueuedd1oHiFyBNyx1A7tTp05ZBQBA5CAkBhD0+vTpIw8//LBVwR0Qq8AVKE2aNPFWbAGISR/x1aDqnnvusY6zdOlSb5O7M2fOWAfApfj++++91fk609/Hd4OGm5eAU7t2bcmaNatVInv37vVW3wMAEGkIiQEEveTJk3sXtBoUB3tAfODAAZk9e7ZVzkMPPWRHAAKlSZNGZs2aJWXLlrWOM2PGDDZ7BC6DPoGjc771dcnfO++8w+sS4Edfh/SGvr/x48fbEQAAkYOQGEDQ0RnErVu3luPHj1vHBcWjRo0K6oBYTZkyJcZj8gULFpQ77rjDKgBx8W2eVbRoUes4+m++a9euVgG4UNu3b5cqVarIzp07reO8+uqr8vjjj1sFwCfwxokuSgi8wQIAQLgjJAYQVHyb1Gk4pI/C+gfF+ohssAscNfHggw+GxO8bSGo5cuSQJUuWSP78+a3jvPnmm9K7d2+rAJzP/v37vRXEW7dutY7TuXNneeGFF6wC4E9v6F977bVWiXfDX2/8AwAQSQiJAQQNX0Ds26ROAyMNikNlLumWLVvkiy++sMrRkBjAhdFd5vXffc6cOa3jvPTSSzJ06FCrAJzNkSNHpEaNGrJhwwbrOPpa9O6771oFIC6B79kCb/wDABDuCIkBBIXAgNhHH4vVza1CQeD8uvLly0vhwoWtAnAhihQpIosWLZLMmTNbx+nYsaO3yR2AuOnKx3r16slXX31lHUc35dKnc3iqBTi3wJBYb/zrAgAAACIFITGAJHe2gDjYN6kLFBgSszEQcGluuukm799/2rRprSMSFRXlXcAvXLjQOgB89Imb5s2by9KlS63j3HXXXd4j8ylTprQOgLMpVKiQd4PfHxvYAQAiCSExgCR1+vTpsAiIdeWW/58hrp2yAVy4ihUrytSpU2OEW6dOnZKGDRvKl19+aR0khejoaDtCsNDNXqdPn26VU65cuVg3WwCcW+Bq4g8++MCOAAAIf4TEAJKUBkD6GLm/UAuIlYZZ/mrWrCnZsmWzCsCl0O8Do0ePjvGY/LFjx6RWrVqyfv166yCxMbYguDz55JMyduxYq5zixYvLggULJFOmTNYBcCGaNm0qqVOntkpk8+bNsm7dOqsAAAhvhMQAklyXLl3kjTfe8I5DMSBW06ZNsyOncePGdgTgcrRo0SLWhlsHDhyQatWqxXoCAYg0PXv2jPXvI3/+/N5c7+zZs1sHwIXSG/xVqlSxygl8jwcAQLgiJAaQ6HQG8a5du6xynn76afnll19CMiD+5ptv5LfffrNKvEd7Q/HPAQSrzp07S+/eva1ydu7c6V3Ib9++3TpAZBk8eLD06tXLKidXrlyyZMkSufrqq60D4GI1atTIjhxCYgBApCAkBpCoNCAuWbKkt5nOjh07rOvohiGhKPDiQVc48ogvEL969Oghjz/+uFXO1q1bpWrVqrJ//37rAJFh0qRJ0qlTJ6ucLFmyeBs7FilSxDoALkXdunUlVapUVols2rRJNmzYYBUAAOGLkBhAotGAWDep27Jli/z0009yzz33xAqKQ1FgSBy4AgVA/HjnnXdibSqkF+46A/zo0aPWAcLb/PnzpWXLlhIVFWUdkXTp0nnjmm666SbrALhUOnLi3nvvtcphNTEAIBIQEgNIFL4VxP4zRDUo1o9Qtnbt2hh/pjRp0kidOnWsAhCfdMO0UaNGSe3ata3jrF69WurXry8nT560DhCeVqxY4d2IPHXqlHXcBrC6eeqdd95pHQCXi5ETAIBIREgMIMH5ryD2p6ue7r77bqtCU+BFg85IzZw5s1UA4psGYlOmTPFG1vjTOawPPPBAjNWVQDj57rvvvBsk+prqozdOxo0bJ7Vq1bIOgPhQr149SZEihVUiP/zwQ8gvbAAA4HwIiQEkKF9A7L/aVmlAHA6buwWGxI0bN7YjAAlFN4ecPXu2lClTxjqO/nts166dVUD4+Pnnn7159wcPHrSOM3DgQGnWrJlVAOJLjhw5Yi1kYDUxACDcERIDSFBffPGFbNu2zSonXALi9evXexfuPrrJCaMmgMShK/Z1k67rr7/eOs6IESOkW7duVgGhT19D9SmV3bt3W8fp16+fdOzY0SoA8Y2REwCASENIDCBBVa5cWaZPn+7N6lXhEhCrjz76yI4c/bNmzZrVKgAJLWfOnLJ48WLJly+fdZzXX39d+vbtaxUQuvbs2SOVKlWSP/74wzqO3gjhZgiQsHTWffLk/10u68iXwCfjAAAIJ4TEAOJddHS0HTk1a9b0gmLdkT1cAmI1d+5cO3ICV5wASHj58+f3gmJ9NNjfCy+8IMOHD7cKCD2HDh2SqlWrxnhiRbVu3Vpee+01qwAklCuvvDLWhpA66ggAgHBFSAwgXukM4ltuuUW+/fZb6zgaFNeoUcOq0Ldjxw5Zu3atVW7zIDYOApJG0aJFvdETmTJlso7Tvn17mTp1qlVA6Dh+/LjUrVvXW7noT1c2Dh061HvNAZDw9N+hP13wAABAuCIkBhBvfJvUrVmzxhu9EBgUhxO9SPBfMV22bFlvxQmApHHzzTd7K7x0UzufqKgoadGihbfSGAgVp0+flqZNm8ry5cut4+jYiUmTJkmKFCmsAyChBS4A+Oyzz+TIkSNWAQAQXgiJAcQLX0Dsm9X2999/e0HxgQMHvDrczJs3z44cVhEDSU93ov/www8lZcqU1hE5efKkNGjQQFatWmUdIHjpzcdHHnkk1iPt5cqVk5kzZ/7/fH8AiaNIkSJSuHBhq9xrypIlS6wCACC8EBIDuGyBAbHPuHHjwnIjN71A+Pjjj61yCImB4FCnTh0ZOXJkjMfxjx496o28+eGHH6wDBKcnn3xSxo8fb5VTokQJWbBggWTMmNE6ABJT4Hu8wIUCAACEC0JiAJflbAHxnDlzwmqTOn/6qOHhw4etEsmdO7f3qDuA4PDQQw/J22+/bZWjTzfoJmBbtmyxDhBcevToIe+9955VTsGCBb1xKdmzZ7cOgMSmNxn9BY4cAwAgXBASA7gs99xzT0QFxCpwBYluyMcmQkBweeKJJ6Rnz55WObrhZJUqVWTnzp3WAYKDhsN9+vSxytEbkPpY+1VXXWUdAEnhrrvukgwZMljlXksCN5UEACAcEBIDuCz6WHeuXLmsCv+AWDGPGAgNL7/8sjz22GNWObqSWFcU68piIBjoeAkdM+FPRzUtWrRIChUqZB0ASUVnges+G/4YOQEACEeExAAui85K/OSTT7ygOBIC4s2bN3sfPqlSpfICJwDBacCAAdK8eXOrnO+//967uXPs2DHrAElDN6jTjer8H11Pnz69F0CVKlXKOgCSGnOJAQCRgJAYwEXRGcRz5861ytGg+Jdffgn7gFgFXhTceeedkilTJqsABBsdBTN27NhYF/grV66UBg0ayKlTp6wDJK7ly5dL06ZN5fTp09YRSZ06tUyfPl3Kly9vHQDBIHAu8VdffSV79+61CgCA8EBIDOCC+Tapq1+/vkybNs26TqQEpfr4r79ICMaBUJcyZUqZOnWqd1PHn/57btGihURFRVkHSBxr1qyR2rVry/Hjx63z75vy5Mnlgw8+kGrVqlkHQLDImzevlC5d2irxXjd0U0kAAMIJITGAC+ILiHWTOl311KxZs1hBcbjTFYcrVqywymHUBBAa0qVL543EufHGG63jTJkyRTp06GAVLgS7+l+eTZs2ea8dR44csY4zdOhQadSokVUAgo1uVOxPx60BABBOCIkBnJd/QOyjQbHOTYwk+mjh0aNHrRK58sorvVEbAEJDlixZvNXD1113nXWcYcOGSffu3a3C+egID1yaP/74Q6pUqSL79++3jtOvXz959NFHrQIQjO699147cgiJAQDhhpAYwDnFFRArXZEXOJ8t3AVeDNxzzz12BCBU6CabS5Ys8R4d9qchXf/+/a0C4t/u3bu9gHjbtm3WcZ5//nnp1q2bVQCC1R133OHNDffZunWr/Pbbb1YBABD6CIkBnNW5AuJInMUbGBIHrigBEBquueYaLyi+4oorrOM899xzMnLkSKuA+HPw4EFv1vDPP/9sHadNmzbSp08fqwAEM32C7rbbbrPKWbZsmR0BABD6CIkBnJVuqJMhQwarnEgNiPVzsXLlSqscQmIgdBUrVkwWLFggGTNmtI7Trl07mT59ulXA5dMbrrpJ3XfffWcdp3HjxjJkyBCrAIQCRk4AAMIZITGAs8qWLZssXbpUSpUq5dWRGhCrL7/8Uk6cOGGVSP78+aVQoUJWAQhFt9xyi8yaNUvSpEljHZEzZ854G3N+/PHH1gEunW54qpvRBW56qquKJ0yYIMmT81YcCCWBo8YIiQEA4YR3pgDOKUeOHF5Q/Pnnn0dsQKwYNQGEJ/23PHnyZEmRIoV1RE6ePCn169f3NqsELlVUVJS0bNlS5s+fbx3n9ttv91ar+882BRAadNxEunTprBLZvn27/PTTT1YBABDaCIkBnJcGxbpZRyQjJAbCV7169WTEiBGSLFky64gcOXJEatSoIRs2bLAOcHE6deokkyZNssrRJ3M0NNbZpgBCj97cqVChglUOc4kBAOGCkBgAzkPDoq+//toqh5AYCC8PP/ywvPHGG1Y5+/fvl6pVq7J7PS6aboI4ePBgqxwdUbRo0SLJmjWrdQCEIkZOAADCFSExAJyHzpI8ffq0VSJFihSRvHnzWgUgXHTp0kVefPFFqxx9lLhKlSqya9cu6yA6OtqOEBe92dC/f3+rHH3NWLJkieTOnds6AEJV4EKB5cuX830RABAWCIkB4Dx0HrO/wBUkAMLHK6+8Ih06dLDK+eWXX7yNxg4cOGCdyOY/lgMxjRw5Up555hmrHB3ZpCuICxYsaB0Aoaxs2bKSKVMmq0T27NnDXGIAQFggJAaA81i1apUdOZE+nxkIdwMHDpT777/fKmfdunXe5p3Hjh2zDhCTbkbXrl07q5yMGTPKvHnzpESJEtYBEOp0o1PdgNLfypUr7QgAgNBFSAwA53DmzBn56quvrHICLwwAhJfkyZPLuHHjvI3r/H3xxRfSqFEjOXXqlHUAZ+nSpdK8eXPvNcMnTZo0MnPmTClXrpx1AISL2267zY4cQmIAQDggJAaAc/jhhx+8jet89LHhwoULWwUgXKVKlUqmTZsW68mBBQsWyEMPPSRRUVHWQaRbvXq11KtXT06cOGEdt9Jw4sSJUqlSJesACCeBCwYCnzoDACAUERIDwDkErgxhFTEQOdKnTy9z586V0qVLW8eZPHmydOrUySpEsg0bNkjNmjVj3EzUmc3Dhw+XBg0aWAdAuLn11ltjzGfX7wWHDh2yCgCA0ERIDADnEBgSBz5eCCC8Zc2a1dt0LPAJgsGDB8vzzz9vFSLR1q1bpWrVqrJ//37rOG+88Ya0atXKKgDhKFu2bFK0aFGrxHu6JHA8GQAAoYaQGADOgZXEAK688kpZsmSJXHXVVdZxXnvtNXnrrbesQiTZuXOnVKlSRbZv324d56WXXpIuXbpYBSCcMZcYABBuCIkB4Cz27dsnmzdvtsrNmGQDIiAyFShQQBYvXizZs2e3jtO1a1cZM2aMVYgEf//9t7eC+Ndff7WO06FDB+nVq5dVAMIdc4kBAOGGkBgAziJwRcgNN9wgGTJksApApClRooTMnz9fMmbMaB2R6OhoefTRR2XmzJnWQTg7duyY1KpVS77//nvrOM2aNZOBAwdaBSASxBUS62sCAAChipAYAM4icEUIoyYA6GZFM2bMkNSpU1tH5MyZM3L//ffLJ598Yh2Eo5MnT0r9+vVj3UDUjevGjh0ryZPzthqIJMWLF5fMmTNbJd588p9//tkqAABCD+9mAeAsmEcMIC6VK1eWiRMneiNofE6cOCF169aVr7/+2jrhKxJXyummVM2bN/dGjvirWLGiTJs2TVKlSmUdAJFCbwwFjiFj5AQAIJQREgPAWXz33Xd25OgKQgBQDRs2lKFDh1rlHDlyRGrUqCEbN260DsJF27Zt5aOPPrLKKVOmjMyZM0fSpUtnHQCRJnDzum+//daOAAAIPYTEABCHP/74w3ts0EdnERcuXNgqABBp3bq1/O9//7PK0Q0vdVOz33//3TrhJ1myZHYUGbp16yYjR460yilSpIgsWLAgxqPmACLPTTfdZEdO4AIDAABCCSExAMQh8E1+qVKlmDcJIJauXbvK888/b5Wzbds2qVKliuzevds6CFV9+/aV119/3Srn6quvliVLlkiuXLmsAyBS3XjjjXbkrFu3zo4AAAg9JB4AEIfAkDjwIgAAfPr06eONI/C3efNmqVatmhw8eNA6CDXDhg2TF154wSonR44cXkCcP39+6wCIZAULFozxRIF+z9+6datVAACEFkJiAIgDITGAizF48GBp0qSJVY5+H6ldu7b8888/1kGomDJlinTo0MEqJ1OmTLJw4UIpWrSodQBEOh2/o0+b+WM1MQAgVBESA0AcAt/gExIDOBcdRzN+/Hhv9bC/FStWSOPGjeX06dPWQbBbtGiRtGjRQqKioqwjkjZtWpk9e7bcfPPN1gEAJ/A9InOJAQChipAYAAIcOnQoxqOCKVKkkBtuuMEqAIhb6tSpZfr06XL77bdbx5k3b560bNlSoqOjrYNg9eWXX0qDBg3k1KlT1hFJmTKlfPjhh3L33XdbBwD+Q0gMAAgXhMQAEEBXEfuHObqLfbp06awCgLNLnz69FwoH3liaOHGidO7c2SoEo/Xr10utWrXk2LFj1nGPko8aNUrq1KljHQCIiZAYABAuCIkBIADziAFcjmzZssnixYvl2muvtY7z/vvvy4svvmgVgsmvv/7qjQo5cOCAdZx33nlHHnzwQasAILYSJUp4Txz4/P7777G+lwAAEAoIiQEgACExgMuVO3duWbJkieTJk8c6zquvvirvvvuuVQgG27dvl8qVK8vOnTut47zyyivy+OOPWwUAcdOZ5ddff71VDpvXAQBCESExAARg0zoA8UFXEuuKYl1Z7O+pp56ScePGWRV6wmm28r59+7yA+LfffrOO88QTT7DqG8AFY+QEACAcEBIDQICffvrJjhw2rQNwqUqWLCnz58+XDBkyWMeFrK1bt5bZs2dbB0nhyJEjUqNGDdm4caN1nIcffljefvttqwDg/EqVKmVHTuD3FQAAQgEhMQD4+euvv7zgwCdTpkyxHhcHgItx2223yfTp0yV16tTWETl9+rQ0bdpUli9fbp3QoZu5hboTJ05IvXr15Ouvv7aOoxvUDR8+PCz+jAAST+C4icAFBwAAhAJCYgDwE/imPvBNPwBciqpVq8qECRMkefL/3nodP37cCyXXrFljHSSGM2fOSLNmzWTp0qXWce6++2758MMPY2xABQAXgpAYABAOCIkBwM+mTZvsyCEkBhBfGjduLEOGDLHKOXz4sFSvXj3W9x4kDB310aZNG5kxY4Z1nLJly3rjP3QDKgC4WIUKFYpxg2nHjh3e93cAAEIJITEA+GElMYCEpAFlv379rHL27t3rrTT+448/rIOE8vTTT8vo0aOtcooWLSoLFizwxgsBwKVIlSqVFCxY0CqH1cQAgFBDSAwAfgiJASS0bt26eR/+/vzzTy8o3rNnj3UQ31555ZVYG9Llz59flixZIjly5LAOAFwaRk4AAEIdITEA+Al8Q68rzAAgvulq4kcffdQqR7//6OiJQ4cOWQfxZdCgQfLyyy9b5eTKlUs+/vhjufrqq60DAJeOkBgAEOoIiQHA6CZS/o976+721113nVUAEL+GDh0qjRo1ssr59ttvvc3s9PsR4sfEiROlU6dOVjlZsmSRRYsW8T0eQLwhJAYAhDpCYgAwmzdvlqioKKvcY8jp0qWzCgDiV/LkyeWDDz6QKlWqWMf59NNPpUmTJnL69Gnr4FLNmzdPWrZs6W1Y56Pf1+fOnSs33nijdQDg8hESAwBCHSExAJjAN/PMIwaQ0FKnTi0zZsyQW2+91TrOnDlz5JFHHokRbuLirFixQho3bhwjbNfNpaZNmyYVKlSwDgDEj8D3jbr4gO/hAIBQQkgMAIaQGEBSyJAhg8yfP19KlChhHWf8+PHy5JNPWhU8QiH00LEd9913n/zzzz/WcSu39XNas2ZN6wBA/Lnyyisla9asVokcO3ZMtm3bZhUAAMGPkBgAzO+//25HTuHChe0IABJW9uzZZfHixVKwYEHrOO+995707NnTquCg89qD2c8//xznBoADBw6Upk2bWgUA8S/wvePWrVvtCACA4EdIDAAmMCTWmcQAkFiuuuoqWbJkieTOnds6Tq9evWTAgAFW4Vx01Z7OeN6zZ491nL59+0qHDh2sAoCEcc0119iR478hMgAAwY6QGABM4Bt5QmIAia1QoUKyaNGiGI8sqyeeeEImTJhgFeKyd+9eLyAO/F7epUsX6d69u1UAkHAC3zsSEgMAQgkhMQCYwDfygatBACAxlCpVSubNmyfp06e3jpsD3KpVK5k7d6514O/w4cPeiIlNmzZZx9HP2RtvvGEVACSswJA48Ck1AACCGSExAPxLV6DpBiM+Gs5cccUVVgFA4ipfvrx89NFHkipVKuuInD59Who3biyfffaZdaCOHz8utWvXljVr1ljHadCggQwfPjzoZygDCB+sJAYAhDJCYgD4F6uIAQQbXRk7fvx4SZ78v7drvkB07dq11olsGpw3adJEPv30U+s4lStXlokTJ0qKFCmsAwAJj5nEAIBQRkgMAP8KfBPPPGIAwaBp06by/vvvW+UcOnRIqlWrJj///LN1IpNvBMecOXOs49x6660yY8YMSZMmjXUAIHGwkhgAEMoIiQHgX4Ez4wiJAQSL9u3bS9++fa1y9uzZ423Stm3bNutEnrg28ytRooTMnz9fMmbMaB0ASDw5c+aUdOnSWSVy5MgR2b9/v1UAAAQ3QmIA+BfjJgAEs+7du8vTTz9tlaPftzQo1pnqkeall16SAQMGWOUULFhQFi9eLNmzZ7cOACS+fPny2ZHDamIAQKggJAaAf7GSGECwe+ONN7zxCv42bdokNWrUkMOHD1sn/L333nvSu3dvq5zcuXPLkiVL5KqrrrIOACQN5hIDAEIVITEA/CvwDTwhMYBgNHz4cKlfv75VzjfffCN169aVEydOWCd8jRs3Tp588kmrnGzZsnkriAsVKmQdAEg6zCUGAIQqQmIA+NfOnTvtyLn66qvtCACCR4oUKWTSpElSqVIl6zjLli3zNrk7c+aMdcLPzJkz5ZFHHvE2rPNJnz69zJs3T2644QbrAEDSCnwPuWPHDjsCACC4ERIDwL90Eyh/uXLlsiMACC5p0qTxAtNy5cpZx5k1a5a0bt06RogaLjQEb9asWYwQPHXq1DJjxgy5/fbbrQMASS/wPeTu3bvtCACA4EZIDCDi6SzP48ePW+UCmEyZMlkFAMEnY8aMMn/+fClevLh1nLFjx0qXLl2sCg++cRr+36eTJ08uEyZMkKpVq1oHAIJDYEgcuBABAIBgRUgMIOIFrvBgFTGAUHDFFVd4s3gLFChgHeedd96JtbFbqNq4cWOcG/MNGTJEGjdubBUABI+cOXPakcNKYgBAqCAkBhDxCIkBhKq8efN6QfGVV15pHeell16SQYMGWRWafv/9d2+l8N69e63j9O/fX9q0aWMVAAQXxk0AAEIVITGAiBf4GGDgChAACGbXXXedLFy4ULJkyWIdp3Pnzt4md6FIQ5UqVarItm3brOM899xz8uyzz1oFAMEn8H0k4yYAAKGCkBhAxGMlMYBQd+ONN8rcuXMlXbp01hGJioqSli1berOLQ8nBgwelWrVqsnnzZus4bdu2lddee80qAAhO2bNnlxQpUlglcujQITlx4oRVAAAEL0JiABGPlcQAwkGFChVk2rRpkipVKuuInDp1Sho1aiSff/65dYLbP//8I/fdd59899131nGaNGkigwcPtgoAgpdurKkz4/2xmhgAEAoIiQFEPFYSAwgXNWvWlLFjx3ohhc/Zgtdgo4F2w4YNYwXauqp4woQJMf5MABDMmEsMAAhFvNsGEPEIiQGEk2bNmsmAAQOscnSEQ/Xq1WONcAgWOhrjoYcekgULFljHKV++vEyfPj3G6mgACHbMJQYAhCJCYgARj3ETAMJNx44dpXfv3lY5u3bt8jaD++uvv6wTPDp16iSTJ0+2yilVqpTMmzdP0qdPbx0ACA2sJAYAhCJCYgARb9++fXbk5MiRw44AIHT16NFDnnzySauc33//XapWrRrr+97FiI6OtqP48fzzz8eaN1yoUCFZvHixZM2a1ToAEDoC30vu37/fjgAACF6ExAAi3pEjR+zIyZw5sx0BQGh76623pGXLllY5P/74oze7OPB734VKliyZHV2+N998U1577TWrnKuuuko+/vhjufLKK60DAKEl8L3k4cOH7QgAgOBFSAwg4gW+cc+UKZMdAUBo00B35MiRUrduXes4X331ldSrV09OnDhhncQ3atQo6dq1q1VO9uzZZcmSJVKgQAHrAEDoyZgxox05hMQAgFBASAwg4hESAwhnKVKkkA8//FDuuece6zhLly71Nrk7c+aMdRKPbkbXtm1bqxwNVXTjuuLFi1sHAEJT4HtJQmIAQCggJAYQ0XS25tGjR61yAld/AECoS5MmjcyaNUvKli1rHWfGjBnSpk2beJ8zfC46SiIwnNbf38yZM6VcuXLWAYDQRUgMAAhFhMQAIprO5PQPR3QXfV11BwDhRkMLXalbtGhR6zijR4+WZ555xqqEtXr1am/MxcmTJ63jVjpPmjRJKlWqZB0ACG2ExACAUERIDCCiBb5pZxUxgHCmO+7rzN/8+fNbx9EN5Pr27WtVwvjhhx+8DfP8n97QmckjRoyQ+vXrWwcAQh8hMQAgFBESA4hogW/aA9/UA0C4ufrqq72gOFeuXNZxXnjhBRkyZIhV8Wvr1q1StWpV2b9/v3UcDacffvhhqwAgPBASAwBCESExgIhGSAwgEhUpUkQWLlwomTNnto7z2GOPeZvcxaedO3dKlSpVZMeOHdZxevToIU899ZRVABA+CIkBAKGIkBhARCMkBhCpbrrpJpkzZ46kTZvWOiJRUVHy4IMPegFyfPj777+9FcS//vqrdZyOHTtK7969rQKA8EJIDAAIRYTEACIaITGASFaxYkWZOnWqpEyZ0joip06dkoYNG8qXX35pnUujs4dr1aol33//vXWc5s2by8CBA60CgPBDSAwACEWExAAi2pEjR+zIYeM6AJHmvvvuk9GjR3ubyPkcO3bMC3jXr19vnf9ER0fb0dmdPHnS24xu5cqV1nH01xw7dmyM/xcAhJvA95OB7zcBAAhGhMQAIpqumPOXOnVqOwKAyNGiRQt59913rXIOHDgg1apVizUq4nwBr46seOCBB7zN8fzdeeedsVYtA0A4Cnw/qd8X9QMAgGBGSAwgop0+fdqOnFSpUtkRAESWzp07S8+ePa1yfJvObd++3Trn165dO5k2bZpVjm/+cbp06awDAOEt8IZY4MIEAACCDSExgIgWGBKzwg1AJHv55Zfl8ccft8rZunWrt/nc/v37rXN2zz77rIwYMcIqp0iRIt5GeFmyZLEOAIS/wPeUge85AQAINoTEACJa4KoOQmIAke6dd96RBx980Cpnw4YNUrNmTW8zurPp16+f/O9//7PKyZcvnzd2IleuXNYBgMhASAwACDWExAAiGuMmACAmnTk8atQoqV27tnWc1atXe5vRxfXI9LBhw6R79+5WOTly5JDFixdL/vz5rQMAkSPwPSUhMQAg2BESA4hojJsAgNj0e+GUKVPkrrvuso6jq4IDN7hbtWqVdOjQwSonc+bM3oiJokWLWgcAIkvge0pmEgMAgh0hMYCIxrgJAIhb2rRpZfbs2VKmTBnrOLqi2J9uaue/a7/vv7v55putAwCRh3ETAIBQQ0gMIKKxkhgAzs63Ivj666+3zrmdbQUyAEQaQmIAQKghJAYQ0QLfsDOTGABiypkzpzdmQjehOxedZTx69OhYs4wBIBIxkxgAEGoIiQFENMZNAMD5aUCsm9DpZnRno7OKW7RoYRUARLbA95TMJAYABDtCYgARjXETAHBhdBM6HT2hM4cD9erVSzp37mwVAIBxEwCAUENIDCCi6ePR/qKjo+0IABBIN6MbP368Vc69994rL730klUAgLgEvucEACDYEBIDiGis8gCAi9OoUSOZOHGi3HLLLdK+fXv5+OOP7WcAAD6MNAMAhBpCYgARjU1FAODiNWvWTL766isZPHgwq+MAIA6MNAMAhBpCYgARjZXEAAAAiG+B7ykDFyYAABBsCIkBRLTAkJidpwEAAHC5WEkMAAg1hMQAIhoriQEAABDfmEkMAAg1hMQAIhoziQEAABDfGDcBAAg1hMQAIhoriQEAABDfGDcBAAg1hMQAIlrgG3ZmEgMAAOByMW4CABBqCIkBRDRWEgMAACC+MW4CABBqCIkBRDRmEgMAACC+nTlzxo4cVhIDAIIdITGAiBYYEp84ccKOAAAAgIsX+H5SA+JkyZJZBQBAcCIkBhDRMmXKZEfOkSNH7AgAAAC4eIcPH7YjJ2PGjHYEAEDwIiQGENECQ+LAN/UAAADAxQh8Pxn4fhMAgGBESAwgohESAwAAID4FPplGSAwACAWExAAiWuDjf4TEAAAAuBysJAYAhCJCYgARjZXEAAAAiE+ExACAUERIDCCiERIDAAAgPhESAwBCESExgIiWIUMGSZ78v2+Fx48fl9OnT1sFAAAAXBxCYgBAKCIkBhDRkiVL5gXF/lhNDAAAgEtFSAwACEWExAAiHiMnAAAAEF8IiQEAoYiQGEDEIyQGAABAfAl8L5kxY0Y7AgAgeBESA4h4gSHxoUOH7AgAAAC4OIHvJTNnzmxHAAAEL0JiABHviiuusCNn7969dgQAAABcnMD3ktmzZ7cjAACCFyExgIiXK1cuO3J2795tRwAAAMDFCXwvGfheEwCAYERIDCDiBb5x37Nnjx0BAAAAF4eQGAAQigiJAUS8nDlz2pHDSmIAAABcqsAFB4HvNQEACEaExAAiHuMmAAAAEB/OnDkj+/fvt8ohJAYAhAJCYgARL/CNO+MmAAAAcCn27dsnUVFRVolkzZpVUqVKZRUAAMGLkBhAxGMlMQAAAOID84gBAKGKkBhAxGMlMQAAAOIDITEAIFQREgOIeIFv3gmJAQAAcCnYtA4AEKoIiQFEvAwZMkj69OmtEjl58qQcPHjQKgAAAODCsJIYABCqCIkB4F+Bqzx27dplRwAAAMCFISQGAIQqQmIA+NdVV11lR862bdvsCAAAALgwge8hc+fObUcAAAQ3QmIA+Ff+/PntyPn999/tCAAAALgwf/zxhx05ge8xAQAIVoTEAPCvwDfwgW/wAQAAgPMJfA95zTXX2BEAAMGNkBgA/kVIDAAAgMsRHR0tf/75p1UOK4kBAKGCkBgA/hW4yoOQGAAAABdDNz4+ceKEVSJZsmTxPgAACAWExADwL2YSAwAA4HIEvn9kFTEAIJQQEgPAvwLfxAc+KggAAACcC5vWAQBCGSExAPwrW7ZskilTJqtEjh8/Lrt377YKAAAAODc2rQMAhDJCYgAwgas9mEsMAACAC8W4CQBAKCMkBgAT+EaeucQAAAC4UIybAACEMkJiADCsJAYAAMClClxgwLgJAEAoISQGAFOwYEE7cjZv3mxHAAAAwLn9+uuvduQUKFDAjgAACH6ExABgrr/+ejtyfvrpJzsCAAAAzm779u1y+PBhq0QyZswoV111lVUAAAQ/QmIAMITEAAAAuBSB7xsD31cCABDsCIkBwBQqVEhSpEhhlchff/0lR44csQoAAACIGyExACDUERIDgEmdOnWsucQ///yzHQEAAABx27Rpkx05hMQAgFBDSAwAfhg5AQAAgIvFSmIAQKgjJAYAP4TEAAAAuFiExACAUEdIDAB+CIkBAABwMU6cOCG///67VSLJkiWTIkWKWAUAQGggJAYAP4TEAAAAuBibN2+WqKgoq0Ty5csn6dOntwoAgNBASAwAfgJDYt24Ljo62ioAAAAgJkZNAADCASExAPjJnTu3ZM6c2SqRo0ePyrZt26wCAAAAYtq0aZMdOYTEAIBQREgMAAGKFy9uR866devsCAAAAIjp+++/tyOnWLFidgQAQOggJAaAAKVLl7Yjh5AYAAAAZ/Pdd9/ZkRP4XhIAgFBASAwAAW688UY7cgLf+AMAAADq2LFj3sZ1PsmSJZNSpUpZBQBA6CAkBoAAhMQAAAC4EOvXr5eoqCirRAoVKiSZMmWyCgCA0EFIDAABbrjhBkme/L9vj7/++qscOXLEKgAAAMAJXEwQuNgAAIBQQUgMAAEyZMgghQsXtkokOjqaucQAAACIhZAYABAuCIkBIA6Bb/AJiQEAABCIkBgAEC4IiQEgDswlBgAAwLnoLOLvv//eKoeQGAAQqgiJASAOhMQAAAA4l59//lmOHTtmlUiOHDkkb968VgEAEFoIiQEgDoEh8Q8//CBnzpyxCgAAAJEucBFB6dKl7QgAgNBDSAwAcciTJ4/kypXLKpF//vlHNm7caBUAAAAi3dq1a+3IYdQEACCUERIDwFmUKVPGjpxVq1bZEQAAACLd6tWr7cgJfO8IAEAoISQGgLO4/fbb7cghJAYAAIA6ffq0fP3111Y5t912mx0BABB6CIkB4CwCQ+KVK1faEQAAACLZ+vXrY2xap2PKrr32WqsAAAg9hMQAcBblypWT5Mn/+zapM4kPHjxoFQAAACJV4OKBwMUFAACEGkJiADiLLFmySLFixawSiY6OjjV7DgAAAJGHkBgAEG4IiQHgHBg5AQAAgECBe1UQEgMAQh0hMQCcAyExAAAA/O3evVt+/fVXq0RSpkwpZcuWtQoAgNBESAwA5xC4S7WOm9CxEwAAAIhMgauIS5cuLenTp7cKAIDQREgMAOegM4mzZs1qlciBAwdk06ZNVgEAACDSMI8YABCOCIkB4BySJUsmt956q1UOIycAAAAiV+B7wcAnzwAACEWExABwHoFv/FesWGFHAAAAiCSnTp2Sr7/+2iqHlcQAgHBASAwA51GxYkU7cpYtW2ZHAAAAiCQ6j/jYsWNWieTJk0euvfZaqwAACF2ExABwHuXLl5c0adJYJfL777/Lli1brAIAAECk+OSTT+zIueeee+wIAIDQRkgMAOeRNm3aWI8RBl4gAAAAIPwFPlF277332hEAAKGNkBgALkDgBQAhMQAAQGT5559/Ym1aR0gMAAgXhMQAcAECLwCYSwwAABBZvvjiCzl58qRVIgUKFJCCBQtaBQBAaCMkBoALUK5cOcmQIYNVIjt37pSNGzdaBQAAgHAX+CQZq4gBAOGEkBgALkCqVKmkQoUKVjmMnAAAAIgchMQAgHBGSAwAF4iREwAAAJHp0KFD8s0331jlEBIDAMIJITEAXKB77rnHjpzly5dLdHS0VQAAAAhXn332mZw5c8YqkaJFi0qePHmsAgAg9BESA8AFKlOmjGTJksUqkX379sm6deusAgAAQLhi1AQAINwREgPABUqRIoXcddddVjnz58+3IwAAAISrhQsX2pFDSAwACDeExABwEWrUqGFHzrx58+wIAAAA4Wjr1q2yceNGq0RSpkwplSpVsgoAgPBASAwAF6FWrVp25KxevVr2799vFQAAAMJN4KKA8uXLS9asWa0CACA8EBIDwEXIly+f3HDDDVaJt4FJ4OOHAAAACB+BIXHgogEAAMIBITEAXKTACwNGTgAAAISnY8eOyfLly61yCIkBAOGIkBgALlLghYGuJNYVxQAAAAgvS5culePHj1slUqBAASlRooRVAACED0JiALhIt99+u2TLls0q8WYSr1q1yioAAACEC0ZNAAAiBSExAFykFClSSLVq1axy5s+fb0cAAAAIF4TEAIBIQUgMAJeAucQAAADhbf369bJt2zarRNKlSyf33HOPVQAAhBdCYgC4BNWrV5fkyf/7Frpu3boYFxEAAAAIbXPnzrUjp1KlSpI2bVqrAAAIL4TEAHAJcuTIIbfeeqtVzqxZs+wIAAAAoW7OnDl25DBqAgAQzgiJAeAS1alTx46cadOm2REAAABCmT4htnr1aqscQmIAQDgjJAaAS9SwYUM7clasWCG7d++2CgAAAKHqo48+kujoaKtEypUrJ/ny5bMKAIDwQ0gMAJfouuuuk9KlS1slcubMGZkxY4ZVAAAACFVTp061I6dx48Z2BABAeCIkBoDL0KhRIztyGDkBAAAQ2rZv3y5ffvmlVU7gez4AAMINITEAXIbAC4bly5fLvn37rAIAAECoCRw1UbZsWSlQoIBVAACEJ0JiALgMRYsWlRIlSlglcvr0aZk5c6ZVAAAACDWBT4axihgAEAkIiQHgMjFyAgAAIDzs3LlTPv/8c6scQmIAQCQgJAaAyxR44bB06VL5+++/rQIAAEComD59ukRFRVklctNNN0mhQoWsAgAgfBESA8BlKlmypFx//fVWiZw6dUpmz55tFQAAAEIFoyYAAJGKkBgA4kHgBcSHH35oRwAAAAgFu3btks8++8wqh5AYABApCIkBIB40btzYjpzFixd7FxoAAAAIDZMmTZIzZ85YJVKqVCkpUqSIVQAAhDdCYgCIB6VLl/bGTvjoBcbEiROtAgAAQLAbN26cHTnNmze3IwAAwh8hMQDEk4ceesiOnMALDQAAAASnDRs2yNq1a63690I5eXJ54IEHrAIAIPwREgNAPNELCb2g8Pnuu+/khx9+sAoAAADBKvDm/r333itXX321VQAAhD9CYgCIJ1dddZVUqlTJKofVxAAAAMEtKipKPvjgA6ucwCfEAAAId4TEABCPHnzwQTtydC6xXngAAAAgOC1dulT++usvq0QyZMggDRo0sAoAgMhASAwA8UgvKPTCwkcvOPTCAwAAAMEp8MmvwPdzAABEAkJiAIhHca08GT9+vB0BAAAgmBw5ckRmzJhhlcOoCQBAJCIkBoB4FnhhMX36dDl69KhVAAAACBaB79Py5s3rbVoHAECkISQGgHimFxZ6geGjFx5Tp061CgAAAMFi7NixduS0aNFCkifnMhkAEHl49QOAeKYXFg888IBVzrBhw+wIAAAAweDXX3+VZcuWWeUEbkIMAECkICQGgATw6KOPSrJkyawSWblypXz//fdWAQAAIKnpTfzo6GirRMqVKyclSpSwCgCAyEJIDAAJ4LrrrpN77rnHKmfo0KF2BAAAgKR08uRJGT16tFVO+/bt7QgAgMhDSAwACaRdu3Z25EyYMEGOHTtmFQAAAJKKbli3Z88eq0SyZMkiTZs2tQoAgMhDSAwACaR+/fqSK1cuq0QOHjwokyZNsgoAAABJZciQIXbkPPTQQ5I+fXqrAACIPITEAJBAUqVKJa1atbLKYeQEAABA0tq0aZN8+umnVjmBT4ABABBpCIkBIAG1bds2xgZ2X3/9taxdu9YqAAAAJLbAm/YVKlRgwzoAQMQjJAaABHTttddK5cqVrXJYTQwAAJA0jh8/LuPGjbPKYRUxAACExACQ4AIvPCZOnChHjhyxCgAAAIllypQpsn//fqtEsmfPLo0aNbIKAIDIRUgMAAmsbt26kjt3bqtEDh8+LOPHj7cKAAAAiSVww7qHH35Y0qZNaxUAAJGLkBgAEljKlCmldevWVjnvvvuuREdHWwUAAICEpntDrFy50ipH948AAACExACQKNq3b++FxT4//fSTLFiwwCoAAAAktLffftuOHN034vrrr7cKAIDIRkgMAIng6quvlsaNG1vlBF6oAAAAIGFs27ZNpk6dapXz1FNP2REAACAkBoBEEngh8vHHH8v3339vFQAAABLKgAED5PTp01aJFC1aVGrUqGEVAAAgJAaARHLLLbfIHXfcYZXzzjvv2BEAAAASwtGjR2XYsGFWOU888YQkS5bMKgAAQEgMAIkocDXxBx98ILt377YKAAAA8W306NFy4MABq0SuuOIKadmypVUAAEAREgNAIqpXr54UKFDAKpETJ07I4MGDrQIAAEB8ioqKknfffdcqp127dpIuXTqrAACAIiQGgESUIkUKefzxx61yNCTWsBgAAADxa+7cufLLL79YJZIqVSrp1KmTVQAAwIeQGAASWevWrSVTpkxWiezatUsmTpxoFQAAAOLLW2+9ZUfO/fffL3ny5LEKAAD4EBIDQCLLnDmzFxT7e+ONNyQ6OtoqAAAAXK41a9bIp59+apUTuD8EAABwCIkBIAnoyAkdPeHz448/yowZM6wCAADA5erbt68dOXfffbfcdNNNVgEAAH+ExACQBAoWLChNmza1ygm8kAEAAMCliesG/DPPPGNHAAAgECExACSR7t27S7Jkyaxyj0QuXLjQKgAAAFwqvfnuP8pLVxDXrFnTKgAAEIiQGACSSMmSJaVu3bpWOawmBgAAuDy//vqrTJ482SrnhRdesCMAABAXQmIASELPP/+8HTkrVqyQzz77zCoAAABcrH79+smZM2esEilWrJg0aNDAKgAAEBdCYgBIQrfccotUrVrVKqdPnz52BAAAgIuxbds2GTdunFWO3pT3H/EFAABiIyQGgCQW+Pjj4sWL5ZtvvrEKAAAAF+r111+XkydPWiVy7bXXSrNmzawCAABnQ0gMAEmsYsWKUqFCBascVhMDAABcnF27dsmIESOscp577jlJkSKFVQAA4GwIiQEgCASuJp41a5b88MMPVgEAAOB83nrrLfnnn3+sErn66qulZcuWVgEAgHMhJAaAIFC9enUpU6aMVSLR0dHy8ssvWwUAAIBz2bNnjwwaNMgq55lnnpHUqVNbBQAAzoWQGACCRI8ePezImT59OrOJAQAALkDfvn3lyJEjVonkypVL2rRpYxUAADgfQmIACBL169eXsmXLWuUEBscAAACIadu2bTJ48GCrHJ1FnC5dOqsAAMD5EBIDQBB59dVX7chZtGiRfPbZZ1YBAAAg0CuvvCInTpywys0i7tChg1UAAOBCEBIDQBCpVq2aVKxY0SoncFM7AAAAOL/88ouMHj3aKuell16StGnTWgUAAC4EITEABJk+ffrYkfP555/LwoULrQIAAICPBsKnT5+2SqRw4cLSqlUrqwAAwIUiJAaAIFOhQgWpXr26VY6uJo6OjrYKAAAA69evl8mTJ1vl9OrVS1KmTGkVAAC4UITEABCEdDVxsmTJrBL59ttvZfr06VYBAABAN/j1v4l+ww03yP33328VAAC4GITEABCEypQpIw0aNLDKefHFFyUqKsoqAACAyLVq1SqZM2eOVY5uAJw8OZe4AABcCl5BASBI9e7dO8aFzsaNG2XMmDFWAQAARK7u3bvbkXPbbbdJnTp1rAIAABeLkBgAglSxYsWkRYsWVjn6WOXRo0etAgAAiDyzZ8+W5cuXW+UEbvwLAAAuDiExAASxV155RdKmTWuVyI4dO6R///5WAQAARJZTp07JM888Y5VTuXJluffee60CAACXgpAYAILYNddcI0899ZRVzhtvvCHbtm2zCgAAIHIMGjRIfv75Z6v+vaBNnlzefPNNqwAAwKUiJAaAIKcz93LlymWVyD///BNrDh8AAEC4279/v/eUlb/WrVtLqVKlrAIAAJeKkBgAglymTJm8Tez8ffDBB/LNN99YBQAAEP40INag2Ceu90gAAODSEBIDQAjQVTIlS5a0SiQ6Olq6dOliFQAAQHjTERM6asKfPll15ZVXWgUAAC4HITEAhIAUKVLEmre3YsUK+eijj6wCAAAIX127dvU2rfOJa98GAABw6QiJASBEVK1aVWrUqGGV061bNzl58qRVAAAA4eeTTz6ROXPmWOX069dP0qZNaxUAALhchMQAEELeeOMNb1Wxz6+//irvvvuuVQAAAOElKioq1oit22+/Xe6//36rAABAfCAkBoAQUrx4cWnbtq1Vjm7ism3bNqsAAADCx+DBg2XdunVWiSRLlkzeeustqwAAQHwhJAaAENOrVy/Jli2bVSJHjhxhJh8AAAg7u3btkh49eljl6Ari2267zSoAABBfCIkBIMTkzJlT+vTpY5Uzbdo0Wbx4sVUAAACh75lnnpEDBw5YJZIxY0b53//+ZxUAAIhPhMQAEILatWsnZcuWtcrp1KmTnDhxwioAAIDQ9emnn8r48eOtcnr27Cl58+a1CgAAxCdCYgAIQcmTJ5dBgwZ5P/ps3ryZ1TUAACDknTp1Sh577DGrnJIlS8oTTzxhFQAAiG+ExAAQom655RZp06aNVU7fvn1l69atVgEAAISed955RzZs2GCV26xON7BLmTKldQAAQHxLFh0dvezfH+92JQAglPz9999SpEgR2bt3r3VEateuLbNnz7YKAAAgdPz5559SrFgxOXr0qHVEHn74YRk9erRVAAAgASxnJTEAhLBs2bLJ66+/bpUzZ84cQmIAABCSnnzyyRgBcVzvdQAAQPwjJAaAEKera8qXL2+VozP7/C+wAAAAgt2CBQtk+vTpVjk6SitnzpxWAQCAhEJIDAAhTuf06SZ2KVKksI7Ib7/9Ji+88IJVAAAAwU1vbnfs2NEqR/dfaNu2rVUAACAhERIDQBgoXbq0dO7c2SpnwIABsnLlSqsAAACCV/fu3b2b3D7Jkyf3NqvTHwEAQMLjFRcAwsSrr74qBQoUsEokKipKWrduLSdOnLAOAABA8Pniiy9k4MCBVjl68/vmm2+2CgAAJDRCYgAIExkyZJDhw4db5WzcuFF69+5tFQAAQHA5fvy4d1M7OjraOiIFCxaUPn36WAUAABIDITEAhJHKlSvLI488YpXTv39/WbdunVUAAADBo2fPnvLTTz9Z5YwYMcK7+Q0AABJPsujo6GX//ni3KwEAoe7AgQNSvHhx2bFjh3VEypQpI6tXr5aUKVNaBwAAIGmtWbNGbr31Vjlz5ox1RNq0aSPDhg2zCgAAJJLlrCQGgDCTNWtWGTRokFXOt99+K2+88YZVAAAASevUqVPe00/+AXHevHnlf//7n1UAACAxERIDQBiqV6+eNGnSxCqnV69esR7nBAAASAqvvfaarF+/3ipnyJAhkiVLFqsAAEBiYtwEAISp3bt3e2Mn9u3bZx2R8uXLy4oVKyR5cu4RAgCApLFhwwZvFNbJkyetI/LAAw/IhAkTrAIAAImMcRMAEK5y5col77zzjlXOl19+6W1kBwAAkBR0zMSDDz4YIyDW9yzvvvuuVQAAICkQEgNAGGvRooXUqlXLKufll1+WtWvXWgUAAJB4XnzxxVjvQwYMGCBXXHGFVQAAICkwbgIAwtzOnTvlhhtukL1791pHpFixYt5mdmnTprUOAABAwtKRV3fffbdERUVZR7w9FD788EOrAABAEmHcBACEu9y5c8vQoUOtcjZu3CjdunWzCgAAIGEdOnRIHnrooRgBcd68eb3N6gAAQNIjJAaACNCgQQN5+OGHrXL00c4lS5ZYBQAAkHA6d+4sv/32m1UiyZIlkzFjxki2bNmsAwAAkhIhMQBEiPfee08KFChglUh0dLS0atVK/v77b+sAAADEv2nTpsm4ceOscp544gmpXLmyVQAAIKkREgNAhMiUKZOMHz9ekif/71v/X3/9Je3bt7cKAAAgfm3fvl3atWtnlRSgx5cAACpGSURBVFOiRAl57bXXrAIAAMGAkBgAIkiFChXk2WeftcqZMmWKfPDBB1YBAADED99TS/v377eOSOrUqWXChAlsngsAQJAhJAaACNOrVy+58cYbrXI6duwoW7ZssQoAAODyvfvuu7J48WKrnN69e8d6HwIAAJJesujo6GX//ni3KwEAkeDHH3+Um2++WY4fP24d8eovv/zSW+EDAABwOb755hu544475OTJk9YRueuuu+STTz6JMfoKAAAEheW8OgNABCpevLi8/vrrVjlr1qyRrl27WgUAAHBpDh48KE2aNIkREGfJkkXGjh1LQAwAQJDiFRoAIlTnzp2lXr16VjkDBgyQGTNmWAUAAHDxWrduLVu3brXKGT58uFxzzTVWAQCAYENIDAARbPTo0VKgQAGrnEceeUR+++03qwAAAC6c3nD+6KOPrHJ074PGjRtbBQAAghEziQEgwq1evVruvPNOOXXqlHVEypUrJ59//rmkSpXKOgAAAOemo6vKly8fY8zETTfdJCtXrpQ0adJYBwAABCFmEgNApLv11lulX79+VjlfffWVdOvWzSoAAIBzi2sOcebMmWXKlCkExAAAhABCYgCAdOnSRWrXrm2V8/bbb8ucOXOsAgAAOLtHH31UtmzZYpWjc4gLFy5sFQAACGaExAAAz5gxYyRfvnxWOQ8//LD8/vvvVgEAAMQ2cOBAmTZtmlVOhw4dvJXFAAAgNDCTGADw/7788ku566675PTp09ZxswS/+OILSZcunXUAAACcVatWee8dmEMMAEBIYyYxAOA/utlMnz59rHLWrl0rbdu2tQoAAMDZsWOHNGzYMEZAnClTJuYQAwAQggiJAQAxPPPMM1KvXj2rnAkTJsi7775rFQAAiHQaDDdq1Ei2b99uHWfkyJHMIQYAIAQREgMAYkiWLJmMGzdOihYtah2na9eusnz5cqsAAEAke/zxx70xVf6effZZady4sVUAACCUEBIDAGLRR0VnzpwpmTNnto54c4p1A5o///zTOgAAIBINHz5chg4dapVTtWpV6du3r1UAACDUEBIDAOJ0/fXXy/jx472VxT579uyRBg0ayPHjx60DAAAiiW5U16lTJ6uca6+9ViZNmiQpUqSwDgAACDWExACAs6pTp4689NJLVjnffPONdOjQwSoAABAp4tqoLn369DJjxgzJnj27dQAAQCgiJAYAnNPLL78stWvXtsoZM2aMDBw40CoAABDuzrZR3ahRo6RUqVJWAQCAUEVIDAA4Jx03oWMnihQpYh3nqaeekiVLllgFAADCWceOHePcqK5p06ZWAQCAUEZIDAA4ryxZsngb2emGdj66kZ3uYP7jjz9aBwAAhKPXX39dRo4caZXDRnUAAIQXQmIAwAUpVqyYt6I4efL/XjoOHjwo9913n7ehHQAACD/Tp0+X5557ziqHjeoAAAg/hMQAgAtWt25d6d+/v1XO1q1bvf7x48etAwAAwsHXX38tLVq0kOjoaOu4p4vmzJnDRnUAAIQZQmIAwEXp2rWrtGnTxipn5cqV0qpVqxgXkQAAIHT98ccfUqdOHfnnn3+sI5IyZUqZNm2aFC9e3DoAACBcEBIDAC7aoEGDpFKlSlY5kydPlpdfftkqAAAQqg4fPuyNk9q5c6d1HH39r1y5slUAACCcEBIDAC6abyVR0aJFreP07t1bJkyYYBUAAAg1Z86ckSZNmsj3339vHeeZZ56J9SQRAAAIH4TEAIBLkjVrVpk3b57kyJHDOk7r1q3l888/twoAAISSxx9/XBYuXGiVU79+/Vh7EgAAgPBCSAwAuGS6u/nMmTMlTZo01hE5efKkt5Hdjz/+aB0AABAK3nzzTW+khL+yZct6TwklS5bMOgAAIBwREgMALssdd9who0aNssrZv3+/VKtWTf7880/rAACAYKZBsI6U8JcvXz6ZM2eOpE+f3joAACBcERIDAC5b8+bNpVevXlY527Zt84JiDYwBAEDwWrBggbRq1Uqio6OtI5IpUyZvrFTu3LmtAwAAwhkhMQAgXrz00kvSrl07q5yNGzd6u6MfO3bMOgAAIJisWrVKGjVqJKdPn7aOSOrUqWX69Olyww03WAcAAIQ7QmIAQLzROYYNGjSwylm5cqW3S7r/xScAAEh6ejO3Vq1aMW7mJk+eXMaNGyeVK1e2DgAAiASExACAeKMXlhMnTpS77rrLOo4+rvroo49aBQAAktrZxkK9++670rRpU6sAAECkICQGAMSrNGnSyKxZs6R06dLWccaOHSvdunWzCgAAJBUNhqtWrRprg9kePXpIp06drAIAAJGEkBgAEO+yZMnibYJTsGBB6zivv/66vPXWW1YBAIDEpqMldMSEjprw17ZtW+ndu7dVAAAg0hASAwASRJ48eWTRokWSM2dO6zhPP/20DB061CoAAJBYTpw44e0doJvV+atfv763rwAAAIhchMQAgARz3XXXeSuKM2bMaB2nQ4cO3vgJAACQOE6dOiWNGzf2buD6030EJk2aJClSpLAOAACIRITEAIAEdfPNN8uMGTO8WcU+0dHR0rp1a5k8ebJ1AABAQjl9+rQ0a9ZM5syZYx3nxhtvlNmzZ8d4jQYAAJGJkBgAkOAqV64s06ZNk1SpUllH5MyZM/Lggw/KzJkzrQMAAOJbVFSUPPTQQ/LRRx9ZxylWrJi3qjhz5szWAQAAkYyQGACQKO67775Yj7PqyqamTZvK/PnzrQMAAOKL78kdff31p+Ogli5dKrly5bIOAACIdITEAIBE07BhQxk3bpwkT/7fy8/Jkye9vl6sAgCA+NO+fXsZM2aMVU7BggW911zdYBYAAMCHkBgAkKiaN28uw4cPl2TJkllH5Pjx41KnTh1ZsWKFdQAAwOV44oknZNiwYVY5+fLlk08++cT7EQAAwB8hMQAg0T3yyCPy/vvvW+UcO3ZMatWqJV988YV1AADApXjmmWfkvffes8rRlcMaEBcoUMA6AAAA//m/9u4E2su6zAP4A4gssrjBICqigLuARkouKKhUiB5DO1IuaYwraWA5LmXNOKPjqAeGxtSQMYNCdDRHxVCSRIbcwSCXFDylaLjiwr6Pv/f/uwICCspy730/n3Pe87/3++LMqSPQ/b7P+/yUxABsFueee24MGjQof1cxe/bs+OpXvxrjx4/PCQCwPi688MK47rrr8ncVafdwWjHRvn37nAAArEpJDMBmM3DgwLjqqqvydxVz586NXr16xdixY3MCAHyWdEjdeeedF4MHD85JxXbbbRcPPfRQ7LXXXjkBAFidkhiAzerSSy+NK664In9XMX/+/GJH8ejRo3MCAKzNsmXLol+/fnHjjTfmpGKbbbYpHrrut99+OQEAWDMlMQCb3eWXXx7XXHNN/q5i4cKF0adPn/jtb3+bEwDgk5YuXRqnnnpq/PKXv8xJRYsWLeLhhx+OAw44ICcAAGunJAagWkiH7AwZMiR/V7F48eI46aSTYtSoUTkBAKpU/T05cuTInFS0atWq2O/fqVOnnAAAfDolMQDVxgUXXBA33XRT1KlTJycRS5YsiVNOOSWGDx+eEwCg6o2bu+66KycVO+20U0yYMCH23nvvnAAAfDYlMQDVytlnnx233HJL1K274q+o9Crt6aefHkOHDs0JAJRX2t1/7LHHrra7v23btkVB3KFDh5wAAKwbJTEA1U4qhEeMGBH16tXLSeXU9lQg//u//3tOAKB83n///ejZs2f8/ve/z0lFKoZTQbzrrrvmBABg3SmJAaiWvv3tb8ftt98e9evXz0nFZZddFgMGDChKYwAok7///e/RrVu3mDhxYk4q0mqJRx55JHbeeeecAACsHyUxANXWCSecUOxabNiwYU4q0gF3J598cnFgDwCUwYsvvhgHH3xw/PnPf85JRTqcLh1St8MOO+QEAGD9KYkBqNbSzsUHHnggmjdvnpOK2267LXr37h1z587NCQDUTk8++WQceuih8corr+Sk4pBDDomHH344WrRokRMAgM9HSQxAtXf44YcXr9G2atUqJxVjx46NHj16xDvvvJMTAKhdHnzwwTX+XZceoqa9xNtss01OAAA+PyUxADVCep320Ucfjfbt2+ekomq66tVXX80JANQOv/nNb4oy+JNvzXz3u9+Nu+++Oxo1apQTAIAvRkkMQI2RTmz/4x//GAcccEBOKqr2ND777LM5AYCabfDgwXHqqaeutn//0ksvjf/+7/+OevXq5QQA4ItTEgNQo7Rs2bI4oCe9eruy119/vZgoTq/eAkBNtWzZsvjBD34QF154YSxfvjynEXXq1CkObr3qqqtyAgCw4SiJAahxmjZtGmPGjIlvfvObOan44IMPolevXjF06NCcAEDNkdZKfOMb34hBgwblpGLLLbeMkSNHxgUXXJATAIANS0kMQI2UfmAeNWpUnHfeeTmpWLJkSZx99tlx0UUXFdNYAFATpDdiDjvssLj33ntzUtGkSZMYPXp09O3bNycAABuekhiAGqtu3brx85//PK699tri65Vdd911ccIJJ8S8efNyAgDV0zPPPBMHHXRQ8bmy1q1bxyOPPBJHH310TgAANg4lMQA13g9/+MO48847o3Hjxjmp+N///d/o1q1bzJw5MycAUL2kyeE0QZwmiVfWuXPneOKJJ1Y7rBUAYGNQEgNQK6QdjmnaaocddshJxaRJk4rprKlTp+YEAKqHtHs4/f2VdhGvrHfv3vF///d/sdNOO+UEAGDjUhIDUGt06dKlmLrq2LFjTipmzJgRhx56aNx///05AYDNp2p//g9+8IPV9ucPGDAg7rnnnmIXMQDApqIkBqBW2XnnnWPixInx9a9/PScVs2fPjuOOOy6uuuqqnADApvfOO+9Ez549Y+jQoTmpqFevXtxwww0xePDg1fbsAwBsbP7XBwC1TtOmTeO+++6L/v3756QiTWv96Ec/ihNPPDHmzJmTUwDYNCZPnhxf+tKX4uGHH85JRbNmzYq3Xc4999ycAABsWkpiAGqlNJF1/fXXx5AhQ4qvV3bXXXdF165dY/r06TkBgI1r+PDhccghh8Srr76ak4q2bdvGo48+Gl/96ldzAgCw6SmJAajVLrjggnjggQdi2223zUnFc889F1/+8pdjzJgxOQGADS/tH/7+978f3/nOd2LBggU5rejWrVuxS3+fffbJCQDA5qEkBqDWO+qoo+Lpp5+OTp065aTi/fffL06Qt6cYgI3hrbfeiiOPPDJ+9rOf5WSF888/P8aNGxctW7bMCQDA5qMkBqAUdt111+J13r59++akwp5iADaGp556qtg/PGHChJxUNGzYMH71q18VxfEWW2yRUwCAzUtJDEBpNG7cOG677ba49tpr17qn+IUXXsgJAHw+t9xySxx22GHx2muv5aSiTZs2MXHixDjttNNyAgBQPSiJASidH/7wh5+6p3jEiBE5AYB1N3fu3GL3cL9+/WLhwoU5rejevXux+ihNFwMAVDdKYgBKaW17itMP+GnCK/2AP2/evJwCwKd79tlniweNw4cPz8kKAwcOjLFjx0aLFi1yAgBQvSiJASitqj3FJ598ck5WSK8KH3jggdZPAPCZhg0btsa/M9Kao1//+tcxaNAg+4cBgGpNSQxAqVX9AD906NBo1KhRTiuq1k+saSoMANKBp+lB45lnnhnz58/PacVee+0VTz755BofRAIAVDdKYgD4SPoB//HHH4899tgjJxVV+yXPOOMM6ycA+NiUKVOK/cIjR47MyQrp74200mifffbJCQBA9aYkBoCsY8eOxQ/1a5r6uvXWW4up4jRdDEC53XTTTdG1a9d46aWXclKx1VZbFX9fpCu9qQIAUFMoiQFgJU2aNCnWT9x8882rrZ94/vnno0uXLjFkyJBYvnx5TgEoi3feeSf69OkT5557bixYsCCnFfvuu2889dRTxRQxAEBNoyQGgDX4x3/8x3jiiSdizz33zElFKgUGDBgQPXv2jNdffz2nANR2Y8aMif322y/uvvvunKzQr1+/Yv9w2kMMAFATKYkBYC1SGZDWT5xyyik5WeGhhx4q1lPccccdOQGgNkr76M8777zo1atXvPHGGzmtqHr7ZNiwYau9fQIAUJMoiQHgU6T9kiNGjChKgObNm+e0YtasWXHSSSfFaaedFh9++GFOAagt0vqI/fffP2688cacrJDWD02aNGmNe+wBAGoaJTEArINUAkydOjWOOOKInKyQSuQ0VTxhwoScAFCTLV26NK644oo4+OCDVzucrl69enH55ZfHY489FrvvvntOAQBqNiUxAKyjNm3axLhx4+Kaa66JLbfcMqcVr7zySnTv3j0uvvjiWLRoUU4BqGmmTZsWhxxySPz0pz+NJUuW5LSiffv2MXHixKJA3mKLLXIKAFDzKYkBYD3UrVs3LrroouKAonSS/cqWLVtWFMjp1eTHH388pwDUBOnP8CFDhkTnzp2Lg0s/6cwzz4w//elP0bVr15wAANQeSmIA+Bw6depUHGo3cODAqFOnTk4rnn/++WIK7cILLywOPAKgenvhhRfi0EMPjQEDBqz253bLli3j3nvvjaFDhxZ76gEAaiMlMQB8Tg0aNIhBgwbF73//+9hpp51yWpEm0gYPHlzsKh4/fnxOAahO0jqJK6+8sngDJO0Y/qTjjjsunn322Tj22GNzAgBQOymJAeALOvLII+PPf/5znHHGGTlZ4eWXX44ePXrEOeecEx9++GFOAdjcJk+eHF26dIkf//jHsXDhwpxWNG/ePIYNGxb33HNPtGjRIqcAALWXkhgANoCtt946brnllnjwwQdjl112yWnF8uXL4xe/+EWxw/h3v/tdTgHYHBYsWBCXXHJJHHTQQTFlypScrpCmh9PaoH79+uUEAKD2UxIDwAbUs2fP4tXk/v37r7areMaMGXHMMcfEaaedFu+8805OAdhUJk6cWOyU/4//+I9i1cTK0sTwbbfdVkwPt27dOqcAAOWgJAaADaxJkyZx/fXXxyOPPBIdOnTI6QojRoyIPfbYo5guTruLAdi40oO5NBncrVu3eOmll3K6wre+9a1ierhv3745AQAoFyUxAGwkhx12WEydOjUuuuiiqFevXk4rZs2aVewp/spXvlLsxQRgw0sP4tIDufRgLq0ESut/VrbjjjvGfffdFyNHjoztt98+pwAA5aMkBoCNqGHDhnHNNdcUp+anncSf9OSTT8aXv/zlOP/88+ODDz7IKQBf1KRJk6Jr167FA7n0YG5laR3QWWedVUwP9+7dO6cAAOWlJAaATSAVwWli+Oqrr46tttoqpxVp0i2tp0iTbr/+9a9zCsDn8f777xd74Q888MB46qmncrrCXnvtFX/4wx+KCeNmzZrlFACg3JTEALCJ1K9fPy6++OJ44YUX4hvf+EZOV3jzzTfj1FNPjSOOOKKYbgNg3aVVEr/61a+KB2433HDDajvf0wO69KBuypQpxZ+zAACsoCQGgE1s5513jt/+9rdx//33x2677ZbTFdKBd507d46BAwfGe++9l1MA1ia9qZEOpTv99NPjrbfeyukKffr0KR7QpQd16YEdAACrUhIDwGbSq1eveO655+InP/lJNGjQIKcVixcvjv/8z/+M9u3bx89+9rNYsmRJvgNAlddff70ohrt06RITJ07M6Qrt2rWLMWPGxF133VU8oAMAYM3qLF++/OGPPr1vBQCb0bRp0+J73/tejB07NierSq9PX3fddQ5YAvjI3Llz49prry2uefPm5XSFdGjoJZdcUlyffAgHAMBqxpskBoBqoEOHDvHggw/GHXfcEW3atMnpCi+++GIce+yxcdRRR8XUqVNzClAuac/wrbfeGrvvvnv8y7/8yxoL4mOOOaZ4S+OnP/2pghgAYB0piQGgGvnmN79ZFMJXXnllNGnSJKcrjBs3Lvbff/8488wzi4PuAMpi/PjxxVqJM844I/7+97/ndIV99tmnWC0xevToNe57BwBg7ZTEAFDNpNekL7vssmIFRb9+/aJu3VX/uk6TdMOGDSumj//1X/815syZk+8A1D5/+ctf4vjjj4/u3bvHM888k9MVWrRoETfeeGNMmTIlvva1r+UUAID1oSQGgGqqVatWRRmcTu3v0aNHTleYPXt2cehdmphLh9wtXLgw3wGo+f72t78VU8P77rtv3HPPPTldIa2SuPjii2P69OlxzjnnRL169fIdAADWl5IYAKq5Tp06FWsmUkmS9nB+0ttvvx0DBw6M9u3bx8033xxLlizJdwBqnpkzZ0b//v2LAzvT/uGlS5fmOyucdNJJxYTx1VdfHc2aNcspAACfl5IYAGqI4447Lp599tlianjbbbfN6QqvvfZanHXWWbH33nvHbbfdFsuXL893AKq/d999N/7pn/4p2rVrFzfccEMsWrQo31mha9eu8eijj8aoUaOibdu2OQUA4Iuq89EPkA9/9HlE5VsAoCb44IMP4rrrrisK47XtJO7YsWP827/9Wxx77LE5Aah+0uqcQYMGFdeHH36Y01XtueeexQ72E088MScAAGxA45XEAFCDpVUTV111VXFo09p2EqfJu8svvzx69eqVE4DNLz3gShPD11xzTTFFvCZpWvif//mf45RTTrFzGABg41ESA0BtMGPGjLjiiiuK/Z1r20m8//77x49+9KPo06dP1KlTJ6cAm9Z7770X//Vf/xVDhgyJWbNm5XRVO+ywQ/z4xz+OM888M+rXr59TAAA2EiUxANQm06ZNi5/85Cdx++23r3Un8V577RWXXXZZfOtb3zKZB2wyb775ZgwePLiYHk4rJtZku+22i4svvji+973vRaNGjXIKAMBGpiQGgNpo6tSpxRTefffdl5PV7bbbbnHJJZfEd77zndhyyy1zCrBhpTcdrr322hg2bFjMnz8/p6tq1qxZDBw4MC688MLiawAANiklMQDUZpMnT44rr7wy7r777rVOFu+0005x0UUXFa91m9wDNpTp06fH1VdfHcOHD4/FixfndFVbb711nH/++fH973+/mCIGAGCzUBIDQBk8//zzxQF3o0aNiqVLl+Z0VamgOffcc6N///7RqlWrnAKsn8ceeywGDRpUPJxa2583LVu2LCaHzzvvPJPDAACbn5IYAMrk5Zdf/niyb9GiRTldVVo90bdv36LA6dy5c04B1i4dmHnnnXcWO4effPLJnK7OmwsAANWSkhgAymhddoQm3bt3L8ri3r17R506dXIKUPH+++/H0KFD4/rrry/+XFmbdu3aFTvQTzvtNDvQAQCqHyUxAJTZm2++WUz+/eIXvyjKnrXZfffdi52hp59+ejRu3DinQFlNmzYthgwZErfeemvMnTs3p6vbd99949JLL42TTjop6tWrl1MAAKoZJTEAEDFnzpz45S9/WZQ+aSXF2myzzTbRr1+/OOuss6JDhw45Bcrgo58bYuzYsfHzn/88Ro8evdbDMNNbB1/72teKtxCOPvronAIAUI0piQGAFZYtWxb33ntvMV08YcKEnK4ulUA9evSIs88+O44//vioX79+vgPUNumNg1tuuSVuvvnm+Otf/5rT1aUdw2mdxIABA2LPPffMKQAANYCSGABYs0mTJhVl8R133BGLFy/O6er+4R/+Ib773e8W08Vt27bNKVCTpSnhcePGFato7rnnnk/9M6B169bRv3//4qHRdtttl1MAAGoQJTEA8Olef/314lCqdDjVrFmzcrq6unXrRs+ePeOcc84pDrqzfxRqnrfffrvYM5x+v0+fPj2na3bAAQcUKyXSvmFvEwAA1GhKYgBg3cyfPz9uv/32uOmmm+KJJ57I6ZrtuOOOxSF3p556auyxxx45BaqjpUuXxkMPPVTsJb/77rtj0aJF+c7qGjZsGCeeeGLxMOiQQw7JKQAANZySGABYf1OmTCnK4t/85jcxe/bsnK7ZQQcdVOwpTdOGXkWH6mPq1KkxfPjwGDlyZMycOTOna5Ye9qSVMunhz7bbbptTAABqCSUxAPD5zZkzpyiY0t7SyZMn53TNttxyy+jVq1dRGB9zzDHF98Cmlcrg9Hs2lcOpJP406fdonz59il3DRxzhxwUAgFpMSQwAbBhPP/10MV08atSomDt3bk7XLE0i9u3bt1hH0bVr15wCG8O8efOKNRIjRowo1kqk9RKfpn379h9PDbdo0SKnAADUYkpiAGDD+vDDD+POO+8sJhUnTJgQH/1vjXxnzdq1a1fsOE1Xly5dcgp8EWmH+AMPPFD8Xrz33nuLqf9P07Rp0zjhhBOKSf80NVynTp18BwCAElASAwAbzyuvvFJML6brpZdeyunatW3b9uPC+MADD1RUwXpIE/y/+93vimL4/vvv/8yJ/nr16sVRRx1VFMPHH398NG7cON8BAKBklMQAwKbx+OOPF2VxWkcxa9asnK5dmzZtisnGVBh/5StfURjDGqSDI0ePHl0Uw2PGjCkmiD9Lp06dilUv3/72t2OHHXbIKQAAJaYkBgA2rUWLFhVTjmkdRSq1Fi5cmO+s3Y477lgcoNW7d+84/PDDo0GDBvkOlM+bb75Z/N5Je4YffPDBdfo9lMrgk08+uSiHO3bsmFMAACgoiQGAzSftL77vvvvif/7nf4qya8GCBfnO2m211VbFK/LHHHNMcbVu3Trfgdop7fVOB0OmVRLpAUv6OmWfperhSprGP/TQQ6Nu3br5DgAArEJJDABUD+lgrfTafCqM1/W1+WT//ff/uDBOe4wVYdQG6QHK2LFji1I4/X5I08PrwpoWAAA+ByUxAFD9pAO3UjmW9qym6cnPOoCryvbbbx9f//rX4+ijj44ePXoUk5RQEyxbtiymTJkSDz30UFEKT5w4MRYvXpzvfrpdd911lQMfAQBgPSmJAYDqLU0Up1UUaco4FcYzZ87Mdz7b7rvvXpTF6erevXtRIkN18dxzz8XDDz8cf/jDH2L8+PHx3nvv5TufLk0HV03QH3/88XHAAQfkOwAA8LkoiQGAmiPtYX3mmWeKKeN0PfXUU8UE5rpIxdp+++33cWncrVu3aN68eb4LG9/06dOLQjgVw+la1xUSSdOmTYsJ+VQMp2n5dBAdAABsIEpiAKDmevvtt4tX81NhnKaNP/jgg3zns9WrV6+YwDz44IOL3a1du3aNXXbZJd+FL2bJkiXF+ojHH388HnvssZgwYULMmDEj3103e+yxR1EK9+rVq3ioUb9+/XwHAAA2KCUxAFA7pFLuj3/8Y3HYV5rWfPrpp4tsfaTpzFQYV11f+tKXomHDhvkurF2aCk5lcLpSMZz+/Zs3b16+u2623nrrOPzww+PII48siuF27drlOwAAsFEpiQGA2mn27NnF9GZ6rX/cuHHFVGdaV7E+0uRm2v2aCuN0IFjnzp2L6c40hUx5pX+3pk6dGpMnT/64FP7rX/+a7667Jk2axGGHHVbsy04rUNK/a3Xr1s13AQBgk1ESAwDlMGvWrOJwsDRlnK4XXngh31k/abI47TZOhXHV1bFjx6Lwo/Z57bXX4k9/+lNxpQcN6fPll19e7wcOSfp3J603qTpIMT142GKLLfJdAADYbJTEAEA5vfHGGx+vB0jXpEmTYv78+fnu+kmH4qXVAGkStFOnTrHvvvsWE8cps0e2Zkj7rF966aXi4UEqg6sK4XfffTf/ivXXqlWrYtd11fqSVAo3aNAg3wUAgGpDSQwAkCxevLgoBVcujl955ZV89/NJU6K77bZbURh/8mrZsmX+VWwqS5cuLdZCvPjii6td6aHBF5EeBqQHBFWFcLratm2b7wIAQLWmJAYAWJuZM2cW+2bTVbVy4K233sp3v5h0SFkqi9O0cZs2bWKXXXYpPqu+btq0af6VrKu0AiIdIPfqq68WBX/6rPo6TQmnNRGLFi3Kv/rzS3uDO3ToUKwaSYcbpkI4fTZq1Cj/CgAAqFGUxAAA6yMVx1WFcdU1ffr0WLZsWf4VG0YqkT9ZHLdu3bqYQG7RosXHn2VZZzFnzpyioH/77beLz1QGz5gxY5UiOO0PXrhwYf4nNozGjRsXO6dTIZwmhdNn+j7lAABQSyiJAQC+qLlz58bUqVOLwjh9/uUvfylWGKRCeWNLZXIqjD9ZHm+33XbFNHKzZs2Kz3Slw/Wqvk5XOkhtU0lTvqnonT179sefn7zSXuBUAlcVwVWf6VqwYEH+v7RxpLK9ajXI3nvv/fGhhGliOE0OAwBALaYkBgDYWFLx+cndt6lAnjZt2uc+JG9DSjuTq8rjVJKm76s+P+3rVPimHc5Lliz5+Frb96ncTf89pCI9/XObWyrRV94NXXWlgjj9ZwMAgBJSEgMAbGqpLE0rElJZ/Le//W2VlQnpM61N2BC7c8soTU6vvKajalVH1ZRwmrwGAABWoSQGAKhu0n7jN954Y5XiOF1pD+/KaxhmzZq1wXchV1cNGjQo1mhUrdRIV9rRXFUCVxXCzZs3z/8EAACwjpTEAAA11dKlS+Pdd9/9eG/vyrt833vvvVX2/a7pSusgNqVGjRqtshN5Tdf222+/ym7lqkI4TQgDAAAbhZIYAKCsVt4X/Gk7hj95r06dOmvcVbym79MEcFUBXK9evfz/GQAAqEaUxAAAAAAAJTa+bv4CAAAAAIASUhIDAAAAAJSYkhgAAAAAoMSUxAAAAAAAJaYkBgAAAAAoMSUxAAAAAECJKYkBAAAAAEpMSQwAAAAAUGJKYgAAAACAElMSAwAAAACUmJIYAAAAAKDElMQAAAAAACWmJAYAAAAAKDElMQAAAABAiSmJAQAAAABKTEkMAAAAAFBiSmIAAAAAgBJTEgMAAAAAlJiSGAAAAACgxJTEAAAAAAAlpiQGAAAAACgxJTEAAAAAQIkpiQEAAAAASkxJDAAAAABQYkpiAAAAAIASUxIDAAAAAJSYkhgAAAAAoMSUxAAAAAAAJaYkBgAAAAAoMSUxAAAAAECJKYkBAAAAAEpMSQwAAAAAUGJKYgAAAACAElMSAwAAAACUmJIYAAAAAKDElMQAAAAAACWmJAYAAAAAKDElMQAAAABAiSmJAQAAAABKTEkMAAAAAFBiSmIAAAAAgBJTEgMAAAAAlJiSGAAAAACgxJTEAAAAAAAlpiQGAAAAACgxJTEAAAAAQIkpiQEAAAAASkxJDAAAAABQYkpiAAAAAIASUxIDAAAAAJSYkhgAAAAAoMSUxAAAAAAAJaYkBgAAAAAoMSUxAAAAAECJKYkBAAAAAEpMSQwAAAAAUGJKYgAAAACAElMSAwAAAACUmJIYAAAAAKDElMQAAAAAACWmJAYAAAAAKDElMQAAAABAiSmJAQAAAABKTEkMAAAAAFBiSmIAAAAAgBJTEgMAAAAAlJiSGAAAAACgxJTEAAAAAAAlpiQGAAAAACgxJTEAAAAAQIkpiQEAAAAASkxJDAAAAABQYkpiAAAAAIASUxIDAAAAAJSYkhgAAAAAoMSUxAAAAAAAJaYkBgAAAAAoMSUxAAAAAECJKYkBAAAAAEpMSQwAAAAAUGJKYgAAAACAElMSAwAAAACUmJIYAAAAAKDElMQAAAAAACWmJAYAAAAAKDElMQAAAABAiSmJAQAAAABKTEkMAAAAAFBiSmIAAAAAgBJTEgMAAAAAlJiSGAAAAACgxJTEAAAAAAAlpiQGAAAAACgxJTEAAAAAQIkpiQEAAAAASkxJDAAAAABQYkpiAAAAAIASUxIDAAAAAJSYkhgAAAAAoMSUxAAAAAAAJaYkBgAAAAAoMSUxAAAAAECJKYkBAAAAAEpMSQwAAAAAUGJKYgAAAACAElMSAwAAAACUmJIYAAAAAKDElMQAAAAAACWmJAYAAAAAKDElMQAAAABAiSmJAQAAAABKTEkMAAAAAFBiSmIAAAAAgBJTEgMAAAAAlJiSGAAAAACgxJTEAAAAAAAlpiQGAAAAACgxJTEAAAAAQIkpiQEAAAAASkxJDAAAAABQYkpiAAAAAIASUxIDAAAAAJSYkhgAAAAAoMSUxAAAAAAAJaYkBgAAAAAoMSUxAAAAAECJKYkBAAAAAEpMSQwAAAAAUGJKYgAAAACAElMSAwAAAACUmJIYAAAAAKDElMQAAAAAACWmJAYAAAAAKDElMQAAAABAiSmJAQAAAABKTEkMAAAAAFBiSmIAAAAAgBJTEgMAAAAAlJiSGAAAAACgxJTEAAAAAAAlpiQGAAAAACgxJTEAAAAAQIkpiQEAAAAASkxJDAAAAABQYkpiAAAAAIASUxIDAAAAAJSYkhgAAAAAoMSUxAAAAAAAJaYkBgAAAAAoMSUxAAAAAECJKYkBAAAAAEpMSQwAAAAAUGJKYgAAAACAElMSAwAAAACUmJIYAAAAAKDElMQAAAAAACWmJAYAAAAAKDElMQAAAABAiSmJAQAAAABKTEkMAAAAAFBiSmIAAAAAgBJTEgMAAAAAlJiSGAAAAACgxJTEAAAAAAAlVmf58uW3fvS5S+VbAAAAAADKI175f+a1BuazzgbnAAAAAElFTkSuQmCC;fontSize=14;" vertex="1" parent="1">
          <mxGeometry x="130" y="50" width="527" height="535.92" as="geometry" />
        </mxCell>
        <mxCell id="79cBRET2oQ-xiVpWBCgC-2" value="" style="fontColor=#0066CC;verticalAlign=top;verticalLabelPosition=bottom;labelPosition=center;align=center;html=1;outlineConnect=0;fillColor=#CCCCCC;strokeColor=#6881B3;gradientColor=none;gradientDirection=north;strokeWidth=2;shape=mxgraph.networks.satellite;rotation=-45;aspect=fixed;fontSize=14;" vertex="1" parent="1">
          <mxGeometry x="355" y="101" width="40" height="40" as="geometry" />
        </mxCell>
        <mxCell id="79cBRET2oQ-xiVpWBCgC-3" value="O" style="text;html=1;align=center;verticalAlign=middle;resizable=0;points=[];autosize=1;strokeColor=none;fillColor=none;fontSize=14;" vertex="1" parent="1">
          <mxGeometry x="340" y="390" width="30" height="30" as="geometry" />
        </mxCell>
        <mxCell id="79cBRET2oQ-xiVpWBCgC-4" value="R" style="text;html=1;align=center;verticalAlign=middle;resizable=0;points=[];autosize=1;strokeColor=none;fillColor=none;fontSize=14;" vertex="1" parent="1">
          <mxGeometry x="300" y="350" width="30" height="30" as="geometry" />
        </mxCell>
        <mxCell id="79cBRET2oQ-xiVpWBCgC-5" value="H" style="text;html=1;align=center;verticalAlign=middle;resizable=0;points=[];autosize=1;strokeColor=none;fillColor=none;fontSize=14;" vertex="1" parent="1">
          <mxGeometry x="530" y="190" width="30" height="30" as="geometry" />
        </mxCell>
        <mxCell id="79cBRET2oQ-xiVpWBCgC-6" value="" style="endArrow=classic;startArrow=classic;html=1;rounded=0;strokeWidth=0.8;fontSize=14;" edge="1" parent="1">
          <mxGeometry width="50" height="50" relative="1" as="geometry">
            <mxPoint x="520" y="281" as="sourcePoint" />
            <mxPoint x="520" y="131" as="targetPoint" />
          </mxGeometry>
        </mxCell>
        <mxCell id="79cBRET2oQ-xiVpWBCgC-7" value="P&lt;sub style=&quot;font-size: 14px;&quot;&gt;1&lt;/sub&gt;" style="text;html=1;align=center;verticalAlign=middle;resizable=0;points=[];autosize=1;strokeColor=none;fillColor=none;fontSize=14;" vertex="1" parent="1">
          <mxGeometry x="240" y="290" width="40" height="30" as="geometry" />
        </mxCell>
        <mxCell id="79cBRET2oQ-xiVpWBCgC-8" value="P&lt;span style=&quot;font-size: 14px;&quot;&gt;&lt;sub&gt;2&lt;/sub&gt;&lt;/span&gt;" style="text;html=1;align=center;verticalAlign=middle;resizable=0;points=[];autosize=1;strokeColor=none;fillColor=none;fontSize=14;" vertex="1" parent="1">
          <mxGeometry x="470" y="290" width="40" height="30" as="geometry" />
        </mxCell>
        <mxCell id="79cBRET2oQ-xiVpWBCgC-11" value="&lt;span style=&quot;color: rgb(51, 51, 51); font-family: &amp;quot;Helvetica Neue&amp;quot;, Helvetica, Arial, &amp;quot;PingFang SC&amp;quot;, &amp;quot;Hiragino Sans GB&amp;quot;, &amp;quot;Microsoft YaHei&amp;quot;, &amp;quot;WenQuanYi Micro Hei&amp;quot;, sans-serif; font-size: 14px; font-style: normal; font-variant-ligatures: normal; font-variant-caps: normal; font-weight: 400; letter-spacing: normal; orphans: 2; text-align: start; text-indent: 28px; text-transform: none; widows: 2; word-spacing: 0px; -webkit-text-stroke-width: 0px; background-color: rgb(255, 255, 255); text-decoration-thickness: initial; text-decoration-style: initial; text-decoration-color: initial; float: none; display: inline !important;&quot;&gt;γ&lt;/span&gt;" style="text;whiteSpace=wrap;html=1;fontSize=14;" vertex="1" parent="1">
          <mxGeometry x="315" y="250" width="40" height="40" as="geometry" />
        </mxCell>
        <mxCell id="79cBRET2oQ-xiVpWBCgC-12" value="&#xa;&lt;span style=&quot;color: rgb(51, 51, 51); font-family: &amp;quot;Helvetica Neue&amp;quot;, Helvetica, Arial, &amp;quot;PingFang SC&amp;quot;, &amp;quot;Hiragino Sans GB&amp;quot;, &amp;quot;Microsoft YaHei&amp;quot;, &amp;quot;WenQuanYi Micro Hei&amp;quot;, sans-serif; font-size: 14px; font-style: normal; font-variant-ligatures: normal; font-variant-caps: normal; font-weight: 400; letter-spacing: normal; orphans: 2; text-align: start; text-indent: 28px; text-transform: none; widows: 2; word-spacing: 0px; -webkit-text-stroke-width: 0px; background-color: rgb(255, 255, 255); text-decoration-thickness: initial; text-decoration-style: initial; text-decoration-color: initial; float: none; display: inline !important;&quot;&gt;α&lt;/span&gt;&#xa;&#xa;" style="text;whiteSpace=wrap;html=1;fontSize=14;" vertex="1" parent="1">
          <mxGeometry x="360" y="340" width="40" height="40" as="geometry" />
        </mxCell>
        <mxCell id="79cBRET2oQ-xiVpWBCgC-13" value="S" style="text;html=1;align=center;verticalAlign=middle;resizable=0;points=[];autosize=1;strokeColor=none;fillColor=none;fontSize=14;" vertex="1" parent="1">
          <mxGeometry x="340" y="130" width="30" height="30" as="geometry" />
        </mxCell>
        <mxCell id="79cBRET2oQ-xiVpWBCgC-14" value="β" style="text;html=1;align=center;verticalAlign=middle;resizable=0;points=[];autosize=1;strokeColor=none;fillColor=none;" vertex="1" parent="1">
          <mxGeometry x="350" y="160" width="30" height="30" as="geometry" />
        </mxCell>
      </root>
    </mxGraphModel>
  </diagram>
</mxfile>
